<?xml version="1.0" encoding="UTF-8"?>
<svg id="_レイヤー_1" data-name="レイヤー 1" xmlns="http://www.w3.org/2000/svg" viewBox="0 0 236 65">
  <defs>
    <style>
      .cls-1 {
        fill: #787100;
      }
    </style>
  </defs>
  <g>
    <path d="m81.27,60.5l2-2.44h.52s2.69,2.87,2.69,2.87v.89s-30.48-.34-30.48-.34l-2.61.19-.43-1.72,3.05.26,16.13.18c.57-1.26.99-2.26,1.26-3.15.15-.52.27-1.08.36-1.82l.26-.15c2.93,1.11,3.37,1.38,3.37,1.86,0,.45-.49.59-1.65.65-.57.78-1.29,1.7-2.23,2.62l7.75.09Zm.66-15.82l1.66-2.07h.52s2.36,2.49,2.36,2.49v.89s-29.62-.33-29.62-.33l-2.61.2-.43-1.72,3.05.26,25.07.28Zm-21.81-1.73l-.38.37-1.98.05.25-5.29.05-4.13c.02-1.68-.12-2.61-.52-3.73l.23-.22c1.15.53,2.07,1.07,3.11,1.67l4.47.05v-.78c.02-1.27-.08-1.94-.37-2.72l.19-.22c3.12.48,3.75.75,3.75,1.2,0,.37-.38.59-1.54.88l-.02,1.68,5.21.06v-.78c.02-1.27-.08-1.94-.37-2.72l.19-.22c3.12.48,3.75.75,3.75,1.2,0,.37-.38.59-1.54.88l-.02,1.68,4.84.05,1.21-1.44h.52c1.88,1.55,2.29,1.93,2.28,2.38,0,.37-.34.63-1.35.99l-.05,4.36.13,4.84-.38.37-2.01.05v-1.19s-19.65-.22-19.65-.22v.93Zm17.67,5.3l1.13-1.37h.52c1.92,1.52,2.33,1.86,2.32,2.3,0,.33-.34.59-1.35.92l-.03,2.5.15,3.35-.38.37-2.09.05.02-1.53-16.54-.18v1.3s-.39.37-.39.37l-2.05.05.23-3.83.02-1.94c.02-1.82-.12-2.76-.52-3.88l.23-.22c1.11.53,2,.99,2.93,1.56l15.79.18Zm-17.65-7.5l5.1.06.04-3.46-5.1-.06-.04,3.46Zm5.16-4.67l.03-3.09-5.1-.06-.03,3.09,5.1.06Zm-3.73,17.32l16.54.18.05-4.06-16.54-.18-.05,4.06Zm1.81,1.81c2.63,1.15,3.7,2.46,3.69,3.54-.01.97-.5,1.45-1.25,1.44-.67,0-.96-.38-1.25-1.21-.4-1.2-.76-1.95-1.86-3.19l.68-.59Zm9.14-17.78l-5.21-.06-.04,3.46,5.21.06.04-3.46Zm.05-4.36l-5.21-.06-.03,3.09,5.21.06.03-3.09Zm7.29,4.44l-5.33-.06-.04,3.46,5.33.06.04-3.46Zm.05-4.36l-5.33-.06-.03,3.09,5.33.06.03-3.09Z"/>
    <path d="m102.33,39.84c3.9,1.05,5.45,2.48,5.43,3.93,0,.86-.43,1.45-1.25,1.44-.56,0-.96-.31-1.59-1.43-.69-1.2-1.47-2.06-3.06-3.16l.46-.78Zm12.41-3.77c-2.35,6.6-4.98,12.72-6.6,17.25-.23.71-.46,1.63-.47,2.08,0,.86.21,1.57.5,2.24.33.9.69,1.72.68,2.73-.01,1.3-.76,1.78-1.66,1.77-.97-.01-1.63-.76-1.61-2.22.01-1.12.06-1.79.07-2.57.02-1.49-.39-2.2-3.16-3.69l.31-.82c1.37.42,1.93.54,2.38.55.48,0,.78-.21,1.28-1.18,2.02-4.37,4.81-10.53,7.45-16.42l.85.27Zm-9.17-6.43c3.9,1.2,5.7,2.9,5.69,4.35,0,.86-.43,1.56-1.28,1.55-.67,0-1.04-.38-1.51-1.36-.77-1.54-1.76-2.67-3.35-3.76l.46-.78Zm19.18,13.62c1.66,8.33,5.26,12.69,12,16.49l-.2.78c-1.27.1-2.02.87-2.41,1.95-5.98-4.46-9.46-10.39-10.7-19.23l-4.21-.05c-.51,9.16-2.96,14.72-9.42,19.6l-.63-.64c5.42-5.3,7.61-11.39,7.74-22.49l.06-5.62c.02-1.68-.08-2.57-.51-3.95l.23-.22c1.11.53,2.07,1.03,3.11,1.64l11.29.13,1.21-1.44h.52c1.99,1.56,2.51,1.93,2.51,2.38,0,.37-.34.63-1.35.99l-.06,4.99.11,6.67-.38.37-2.24.05.03-2.31-6.7-.08Zm6.72-1.19l.1-9.16-12.14-.13-.08,7.08c0,.71-.02,1.42-.06,2.09l12.18.13Z"/>
    <path d="m182.79,39.43c-.36,2.38-.8,4.76-1.53,7.06-.77,2.45-1.84,4.79-3.21,6.97,1.83,2.96,4.37,5.56,8,7.65l-.34.7c-1.3-.2-2.09.2-2.99,1.23-2.51-2.23-4.53-4.78-6.06-7.67-2.95,3.69-6.81,6.29-11.6,8.07l-.51-.75c4.64-2.26,8.37-5.34,11.06-9.49-1.6-3.74-2.56-7.7-3-11.77-.95,1.7-2.09,3.29-3.44,4.77l-.22-.19c0,.41-.23.56-1.54.88-1.28.96-2.55,1.91-3.94,2.79.41.15.52.3.52.49,0,.3-.38.52-1.54.8l-.02,1.6c2.32-.61,4.67-1.33,7.03-2.19l.25.9c-2.4,1.13-4.83,2.03-7.3,2.9l-.02,1.45.02,4.62c-.02,2.12-1.23,3.15-4.39,3.23-.1-1.27-.5-1.76-2.62-2.49l.2-.85c2.16.28,2.98.37,3.61.38.67,0,.97-.29.98-.96l.05-4.66c-1.87.58-3.74,1.11-5.68,1.69-.09,1.15-.32,1.56-.76,1.56-.41,0-.67-.3-2.16-3.34l.15-.26c.97.05,1.79-.09,2.98-.3,1.72-.32,3.58-.67,5.49-1.13v-1.19c.03-1.34-.08-2.01-.36-2.87l.19-.22c.97.2,1.71.35,2.27.51,1.02-.99,1.92-2.07,2.75-3.17l-5.33-.06c-2.67,2.21-5.55,3.81-8.81,4.97l-.44-.79c2.47-1.13,4.76-2.52,6.83-4.21l-1.71-.02-2.61.19-.43-1.72,3.05.26,3.17.04c1.32-1.18,2.52-2.54,3.66-3.91l-8.04-.09-2.65.19-.39-1.72,3.05.26,4.69.05.04-3.76-3.02-.03-2.65.19-.39-1.72,3.05.26,3.02.03.02-2.16c.02-1.38-.09-2.05-.38-2.95l.19-.22c3.35.6,3.98.79,3.97,1.27s-.3.63-1.54.95l-.03,3.13h1.34s1.29-1.68,1.29-1.68h.52s1.84,2.04,1.84,2.04c.11-.19.19-.37.3-.56.8-1.48,1.18-2.45,1.49-3.34l.26-.03c2.18,1.37,2.88,1.86,2.88,2.34,0,.3-.12.48-.68.48-.22,0-.6-.04-1.04-.12-1.29,2.22-2.58,4.18-3.9,5.95l1.38.02,1.21-1.55h.52s1.84,1.96,1.84,1.96v.89s-5.89-.07-5.89-.07c-1.13,1.37-2.34,2.69-3.62,3.91l3.84.04,1.13-1.25h.52c1.11.95,1.7,1.4,1.99,1.74,2.69-3.96,4.01-8.52,4.68-12.54.2-1.23.36-2.27.37-3.46l.26-.11c3.27,1.08,3.93,1.38,3.93,1.94,0,.45-.34.59-1.83.8-.47,2.16-1.05,4.16-1.82,6.05l7.23.08,1.66-2.07h.52s2.36,2.49,2.36,2.49v.89s-3.21-.04-3.21-.04Zm-21.42.21l2.05.02c.91-1.18,1.7-2.44,2.43-3.74l-4.43-.05-.04,3.76Zm12.33-.31c-.08.19-.15.33-.23.52.59,3.92,1.55,7.8,3.34,11.36,1.94-3.7,2.99-7.68,3.56-11.81l-6.67-.07Z"/>
    <path d="m215.98,29.37c3.34,1.3,4.23,1.8,4.22,2.39,0,.45-.27.67-1.61.5,4.04,5.26,9.44,8.63,16.6,10.73l-.16.82c-1.34.1-2.17.76-2.67,2.06-6.07-3.05-10.87-7.05-14.75-13.05-5.11,7.13-10.89,10.98-17.62,13.4l-.4-.79c6.33-3.1,11.41-7.51,14.82-12.8.76-1.18,1.1-2.07,1.3-3.12l.26-.15Zm-1.96,21.99c2.11.84,2.63,1.3,2.63,1.67,0,.45-.49.59-1.83.46-1.59,2.44-3.29,4.55-5.4,6.5,5.21.06,10.43-.29,15.61-.61-1.18-1.39-2.69-2.75-4.35-3.92l.49-.74c5.42,2.07,8.88,5.69,8.86,7.47-.01,1.12-.54,1.71-1.36,1.7-.67,0-1.04-.31-1.62-1.51-.33-.67-.73-1.35-1.21-1.99-7.16,1-11.9,1.54-19.69,2.17-.08.93-.39,1.49-.84,1.48-.56,0-1.14-.98-2.53-3.98l.15-.26c1.15.2,2.49.18,4.28.2h.67c1.63-2.17,2.96-4.69,3.84-6.69.34-.78.54-1.33.66-1.97l-7.78-.09-2.61.19-.43-1.72,3.05.26,23.54.26,1.93-2.36h.52s2.61,2.79,2.61,2.79v.89s-19.19-.21-19.19-.21Zm-2.31-6.54l-2.61.19-.43-1.72,3.05.26,9.31.1,1.74-2.03h.52s2.39,2.45,2.39,2.45v.89s-13.98-.16-13.98-.16Z"/>
  </g>
  <g>
    <path class="cls-1" d="m54.9,2.06h12.17v15.79h-1.31v-1.13h-9.56v1.24h-1.29V2.06Zm10.86,1.28h-9.56v5.38h9.56V3.33Zm-9.56,12.11h9.56v-5.5h-9.56v5.5Z"/>
    <path class="cls-1" d="m92.05,6.18h-6.85c1.61,3.34,4.43,6.43,7.48,7.9-.32.26-.73.75-.96,1.11-2.94-1.59-5.61-4.59-7.33-7.99v6.15h3.75v1.28h-3.75v3.64h-1.31v-3.64h-3.81v-1.28h3.81v-6.11c-1.78,3.39-4.46,6.34-7.29,7.99-.22-.32-.62-.79-.9-1.03,2.94-1.52,5.76-4.67,7.39-8.01h-6.77v-1.28h7.58V.86l1.69.09c-.02.13-.11.22-.38.26v3.69h7.65v1.28Z"/>
    <path class="cls-1" d="m107.32,11.68l.68,5.89-1.35.15-.66-5.87-7.03.9-.17-1.24,7.07-.9-.49-4.22-5.89.77-.17-1.26,5.91-.75-.41-3.71,1.84-.08c0,.19-.17.34-.43.41l.34,3.19,5.7-.75.15,1.28-5.7.73.49,4.2,7.05-.88.17,1.24-7.09.9Z"/>
    <path class="cls-1" d="m124.44,11.73V2.62l1.78.11c-.02.17-.15.3-.45.34v8.66h-1.33Zm10.45-9.84c-.02.19-.15.28-.45.32v5.96c0,3.94-1.35,7.54-6.73,9.62-.19-.28-.66-.77-.98-1.01,5.19-1.93,6.36-5.14,6.36-8.61V1.78l1.8.11Z"/>
    <path class="cls-1" d="m157.44,3.3c-.04.09-.13.17-.24.21-1.01,2.38-2.21,4.45-3.75,6.45,2.04,1.63,5.12,4.43,6.86,6.36l-1.14.99c-1.65-1.91-4.67-4.76-6.58-6.3-1.65,2.01-4.5,4.74-7.22,6.3-.21-.28-.66-.75-.98-1.01,5.19-2.85,9.3-8.18,10.99-12.25h-9.21v-1.28h9.94l.24-.09,1.09.62Z"/>
    <path class="cls-1" d="m180.54,11.34c-1.91-1.03-4.54-2.25-6.58-3.06v9.38h-1.41V1.36l1.89.11c-.02.21-.17.34-.49.39v5.48l.28-.39c2.19.81,5.1,2.1,7.05,3.13l-.75,1.26Z"/>
    <path class="cls-1" d="m198.89,13.24l-4.16.62v3.04c0,1.26-.53,1.41-3.26,1.37-.06-.32-.24-.77-.39-1.09.51,0,.96.02,1.33.02,1.09,0,1.13,0,1.13-.3v-2.87c-1.31.21-2.51.38-3.45.51-.02.15-.13.24-.24.26l-.47-1.39c1.11-.13,2.57-.3,4.16-.51v-1.82l.67.04c.56-.43,1.16-.96,1.63-1.48h-2.48c-.99.94-2.08,1.78-3.23,2.47-.19-.24-.58-.67-.84-.9.79-.45,1.54-.98,2.27-1.58h-.52v-1.03h1.69c.47-.45.94-.94,1.37-1.44h-4.69v-1.12h3.39v-2.03h-2.53v-1.11h2.53V.82l1.56.11c-.02.11-.13.21-.38.24v1.73h2.48v.97c.49-.84.94-1.71,1.31-2.61l1.46.51c-.06.15-.26.19-.45.17-.64,1.44-1.43,2.81-2.31,4.09h2.25v1.12h-3.09c-.39.51-.81.98-1.24,1.44h2.46l.19-.08.88.58c-.04.08-.17.13-.26.15-.71.84-1.88,1.89-2.93,2.61v.88c1.35-.17,2.76-.36,4.14-.54l.02,1.03Zm-4.91-7.2h1.03c.49-.64.94-1.33,1.37-2.03h-2.4v2.03Zm12.86-.47h-1.26c-.45,3.09-1.18,5.66-2.36,7.75.96,1.71,2.19,3.06,3.77,3.88-.3.26-.69.73-.9,1.09-1.5-.88-2.68-2.17-3.64-3.77-1.14,1.58-2.63,2.83-4.58,3.77-.13-.3-.47-.82-.69-1.07,2.01-.92,3.51-2.23,4.61-3.96-.77-1.59-1.35-3.43-1.78-5.44-.38.86-.77,1.63-1.22,2.27-.21-.24-.66-.62-.96-.81,1.33-1.88,2.29-5.18,2.83-8.44l1.59.34c-.04.15-.17.23-.41.23-.19.99-.41,2.01-.68,2.98h5.66v1.18Zm-6,0l-.06.19c.38,2.25.94,4.35,1.74,6.17.86-1.76,1.41-3.88,1.78-6.36h-3.47Z"/>
    <path class="cls-1" d="m213.1,1.74h15.85v16.52h-1.29v-.88h-13.31v.88h-1.24V1.74Zm1.24,14.42h13.31V2.96h-13.31v13.2Zm12.49-9.84v1.12h-2.89v6.3c0,1.46-.73,1.46-3.66,1.46-.06-.32-.23-.79-.38-1.11.56.02,1.11.02,1.54.02,1.16,0,1.29,0,1.29-.38v-6.3h-7.33v-1.12h7.33v-2.66l1.56.09c-.02.11-.11.21-.36.24v2.33h2.89Zm-7.58,6.25c-.36-1.03-1.33-2.53-2.31-3.6l.94-.49c.98,1.05,1.99,2.51,2.36,3.53l-.99.56Z"/>
  </g>
  <g>
    <rect class="cls-1" x=".64" y="30.56" width="30.36" height="3.46"/>
    <rect class="cls-1" x="-7.42" y="38.63" width="46.49" height="3.46" transform="translate(-24.54 56.18) rotate(-90)"/>
  </g>
</svg>