<svg id="レイヤー_1" data-name="レイヤー 1" xmlns="http://www.w3.org/2000/svg" viewBox="0 0 271 174"><defs><style>.cls-1{fill:olive;}.cls-2{fill:#fff;}.cls-3{opacity:0.49;}.cls-4{opacity:0.48;}.cls-5{opacity:0.5;}</style></defs><title>toyosawa-church</title><path class="cls-1" d="M168.35,112.46c-1.75-3.25-7-3.67-10.29-1.92a6.69,6.69,0,1,0,6.34,11.79C167.66,120.58,170.11,115.72,168.35,112.46Z"/><path class="cls-2" d="M168.33,112.48a6,6,0,0,0-4.5-2.76,9.36,9.36,0,0,0-5.28.83,6.46,6.46,0,0,0-3.33,3.9,6.43,6.43,0,0,0,4.49,8.13,6.41,6.41,0,0,0,5.08-.73,9.23,9.23,0,0,0,3.45-4.08A6.17,6.17,0,0,0,168.33,112.48Zm0,0a6.25,6.25,0,0,1,0,5.36,9.5,9.5,0,0,1-3.42,4.25,6.73,6.73,0,0,1-9.59-2.37,6.65,6.65,0,0,1-.49-5.36,6.76,6.76,0,0,1,3.6-4,9.74,9.74,0,0,1,5.41-.71A6,6,0,0,1,168.37,112.45Z"/><path class="cls-1" d="M171.11,40.84c-1.75-3.25-7-3.67-10.3-1.92a6.7,6.7,0,0,0,6.35,11.79C170.41,49,172.86,44.1,171.11,40.84Z"/><path class="cls-2" d="M171.09,40.85a5.94,5.94,0,0,0-4.5-2.75,9.31,9.31,0,0,0-5.29.83,6.46,6.46,0,0,0-3.33,3.9A6.45,6.45,0,0,0,162.46,51a6.45,6.45,0,0,0,5.08-.74A9.29,9.29,0,0,0,171,46.15,6.26,6.26,0,0,0,171.09,40.85Zm0,0a6.32,6.32,0,0,1,0,5.36,9.47,9.47,0,0,1-3.42,4.24,6.72,6.72,0,1,1-6.49-11.73A9.58,9.58,0,0,1,166.6,38,6,6,0,0,1,171.13,40.83Z"/><path class="cls-1" d="M176.5,75.78l-.3-.15a8,8,0,0,0,1.34-4.13A13,13,0,0,0,175.07,64a8.81,8.81,0,0,0-4.26-16.53c-4.52,0-9.63,3-10.33,7.32a9.15,9.15,0,0,0-2.17-.27,8.82,8.82,0,0,0-8.82,8.82c0,4.87,3.15,9.46,8,9.46.22,0,.44,0,.67,0A12,12,0,0,0,159.77,78c-4.3-1.74-10.42-1-12.56,3-2.31,4.28.92,10.68,5.2,13a8.83,8.83,0,0,0,10.12-1.25,9.51,9.51,0,0,0,3.27,3.06,7.32,7.32,0,0,0,9.86-10,5.46,5.46,0,0,0,.84-10Zm-12.29,6a5.81,5.81,0,0,0,1.46.28,10.62,10.62,0,0,0-1.13.36C164.44,82.2,164.33,82,164.21,81.78Z"/><path class="cls-1" d="M136.21,75.7a5.47,5.47,0,0,0,3,2.61A7.32,7.32,0,0,0,149,88.43a9.5,9.5,0,0,0,3.3-3,8.82,8.82,0,0,0,10.11,1.35c4.31-2.27,7.59-8.63,5.33-12.94-2.1-4-8.21-4.82-12.53-3.13a12.08,12.08,0,0,0,1.65-5.22l.67,0c4.86,0,8.06-4.51,8.11-9.38a8.83,8.83,0,0,0-8.73-8.91,9.08,9.08,0,0,0-2.17.25c-.66-4.33-5.74-7.38-10.26-7.42a8.81,8.81,0,0,0-4.43,16.49A12.86,12.86,0,0,0,137.52,64a7.94,7.94,0,0,0,1.3,4.14l-.3.15A5.49,5.49,0,0,0,136.21,75.7Zm14.19-.64a8.16,8.16,0,0,0-1.12-.37,6,6,0,0,0,1.47-.27C150.62,74.63,150.51,74.84,150.4,75.06Z"/><path class="cls-1" d="M161.65,107.41a12.07,12.07,0,0,0,1.64-5.22l.67,0c4.87,0,8.06-4.51,8.11-9.38a8.82,8.82,0,0,0-8.72-8.91,9.22,9.22,0,0,0-2.18.25c-.65-4.33-5.73-7.38-10.26-7.42a8.81,8.81,0,0,0-4.42,16.49,12.79,12.79,0,0,0-2.54,7.48,7.94,7.94,0,0,0,1.3,4.14c-.1.05-.21.09-.31.15a5.47,5.47,0,0,0,.74,10,7.32,7.32,0,0,0,9.76,10.12,9.59,9.59,0,0,0,3.3-3m-1.91-10.34a8.64,8.64,0,0,0-1.12-.37,5.8,5.8,0,0,0,1.46-.27C157.05,111.36,156.94,111.57,156.83,111.79Z"/><path class="cls-1" d="M150.46,47.34c2-3.68,7.94-4.15,11.61-2.17a7.55,7.55,0,0,1-7.16,13.3C151.24,56.49,148.48,51,150.46,47.34Z"/><path class="cls-2" d="M150.44,47.32a6.82,6.82,0,0,1,5.09-3.25,11.05,11.05,0,0,1,6.19.68,7.78,7.78,0,1,1-7.49,13.55,10.89,10.89,0,0,1-3.81-4.91A7.12,7.12,0,0,1,150.44,47.32Zm0,0a7,7,0,0,0,0,6,10.67,10.67,0,0,0,3.85,4.75,7.51,7.51,0,0,0,11.25-8.63,7.55,7.55,0,0,0-4-4.48,10.77,10.77,0,0,0-6.06-.8A6.73,6.73,0,0,0,150.48,47.35Z"/><path class="cls-1" d="M171.85,55.49c-1.91-3.56-7.7-4-11.26-2.11a7.32,7.32,0,1,0,6.94,12.9C171.09,64.36,173.77,59.05,171.85,55.49Z"/><path class="cls-2" d="M171.65,55.6a6.37,6.37,0,0,0-4.76-3,10.35,10.35,0,0,0-5.79.74,7.19,7.19,0,0,0-3.35,10,7.25,7.25,0,0,0,10.3,2.58,10.38,10.38,0,0,0,3.74-4.59,6.82,6.82,0,0,0,.06-5.82Zm.2-.11a6.85,6.85,0,0,1,0,5.85A10.39,10.39,0,0,1,168.11,66,7.43,7.43,0,1,1,161,53a10.66,10.66,0,0,1,6-.82,6.8,6.8,0,0,1,5.11,3.18Z"/><path class="cls-1" d="M150.62,111.3c0-3.66,2.37-7.11,6-7.11a7.59,7.59,0,0,1,7.23,7.11,6.63,6.63,0,1,1-13.26,0Z"/><path class="cls-2" d="M150.39,111.3a8.26,8.26,0,0,1,1.71-5.06,5.76,5.76,0,0,1,4.77-2.21,7.49,7.49,0,0,1,4.82,2.19A7.36,7.36,0,0,1,164,111a6.68,6.68,0,1,1-13.36.34Zm.23,0a6.59,6.59,0,0,0,6.8,6.57,6.54,6.54,0,0,0,6.33-6.9,7.47,7.47,0,0,0-6.89-6.6,5.37,5.37,0,0,0-4.44,2.12,7.79,7.79,0,0,0-1.57,4.81Z"/><path class="cls-1" d="M148.9,101.19c1.74,3.22,7,3.64,10.2,1.9a6.63,6.63,0,0,0-6.28-11.68C149.59,93.15,147.17,98,148.9,101.19Z"/><path class="cls-2" d="M149.1,101.08a5.77,5.77,0,0,0,4.3,2.71,9.41,9.41,0,0,0,5.24-.67,6.49,6.49,0,0,0,3-9,6.54,6.54,0,0,0-9.31-2.34A9.37,9.37,0,0,0,149,95.91a6.21,6.21,0,0,0-.06,5.28Zm-.2.11a6.22,6.22,0,0,1,0-5.3,9.47,9.47,0,0,1,3.38-4.23,6.73,6.73,0,0,1,10.1,7.72,6.83,6.83,0,0,1-3.61,4.06,9.67,9.67,0,0,1-5.44.74,6.13,6.13,0,0,1-4.64-2.88Z"/><path class="cls-1" d="M144.38,89.33c1.73,3.22,7,3.64,10.2,1.9a6.63,6.63,0,0,0-6.29-11.68C145.06,81.29,142.64,86.1,144.38,89.33Z"/><path class="cls-2" d="M144.58,89.22a5.77,5.77,0,0,0,4.29,2.71,9.41,9.41,0,0,0,5.24-.67A6.5,6.5,0,0,0,153,79a6.58,6.58,0,0,0-5.18.86,9.35,9.35,0,0,0-3.38,4.15,6.18,6.18,0,0,0-.06,5.28Zm-.2.11a6.26,6.26,0,0,1,0-5.3,9.54,9.54,0,0,1,3.38-4.23,6.73,6.73,0,0,1,10.1,7.71,6.82,6.82,0,0,1-3.61,4.07,9.67,9.67,0,0,1-5.44.74,6.18,6.18,0,0,1-4.64-2.89Z"/><path class="cls-1" d="M159.64,95c1.44,2.68,5.79,3,8.47,1.58a5.51,5.51,0,1,0-5.22-9.7C160.21,88.31,158.19,92.31,159.64,95Z"/><path class="cls-2" d="M159.84,94.88a4.75,4.75,0,0,0,3.54,2.24,7.65,7.65,0,0,0,4.33-.55,5.36,5.36,0,0,0,2.51-7.45,5.41,5.41,0,0,0-7.71-2,7.72,7.72,0,0,0-2.82,3.44,5.13,5.13,0,0,0-.05,4.38Zm-.2.11a5.14,5.14,0,0,1,0-4.4,7.86,7.86,0,0,1,2.8-3.52,5.61,5.61,0,0,1,8.42,6.42,5.69,5.69,0,0,1-3,3.4,8,8,0,0,1-4.54.62,5.15,5.15,0,0,1-3.88-2.41Z"/><path class="cls-1" d="M157.13,104.79c0-3.66,2.37-7.6,6-7.6s7.23,3.94,7.23,7.6a6.63,6.63,0,1,1-13.26,0Z"/><path class="cls-2" d="M156.9,104.79a9.29,9.29,0,0,1,1.63-5.18A5.65,5.65,0,0,1,163.19,97a7.18,7.18,0,0,1,4.86,2.29,8.47,8.47,0,0,1,2.42,4.79,6.69,6.69,0,1,1-13.34.69Zm.23,0a6.59,6.59,0,0,0,11.6,4.26,6.49,6.49,0,0,0,1.51-4.92,8.14,8.14,0,0,0-2.4-4.61,6.8,6.8,0,0,0-4.65-2.15,5.28,5.28,0,0,0-4.33,2.47,8.81,8.81,0,0,0-1.5,5Z"/><path class="cls-1" d="M150.2,52.17c-1.28-2.38-5.15-2.68-7.52-1.4a4.88,4.88,0,1,0,4.63,8.6C149.69,58.09,151.47,54.55,150.2,52.17Z"/><path class="cls-2" d="M150.18,52.18a4.32,4.32,0,0,0-3.29-2,6.78,6.78,0,0,0-3.83.63,4.66,4.66,0,1,0,4.5,8.15A6.71,6.71,0,0,0,150.1,56,4.57,4.57,0,0,0,150.18,52.18Zm0,0a4.63,4.63,0,0,1,0,3.92,7,7,0,0,1-2.5,3.1,4.92,4.92,0,0,1-7-1.73,4.86,4.86,0,0,1-.36-3.93A4.93,4.93,0,0,1,143,50.6a7.08,7.08,0,0,1,4-.52A4.42,4.42,0,0,1,150.22,52.16Z"/><path class="cls-1" d="M159.6,62.14c0,3.61-2.33,7-5.93,7a7.48,7.48,0,0,1-7.13-7,6.53,6.53,0,1,1,13.06,0Z"/><path class="cls-2" d="M159.83,62.14a8.15,8.15,0,0,1-1.68,5,5.67,5.67,0,0,1-4.7,2.18,7.4,7.4,0,0,1-4.74-2.15,7.23,7.23,0,0,1-2.26-4.67,6.59,6.59,0,0,1,11.2-5,6.51,6.51,0,0,1,1.95,4.69Zm-.23,0a6.46,6.46,0,1,0-12.92.33A7.35,7.35,0,0,0,153.46,69a5.28,5.28,0,0,0,4.37-2.09,7.64,7.64,0,0,0,1.54-4.73Z"/><path class="cls-1" d="M167.84,65.53c-1.89-3.52-7.61-4-11.14-2.08a7.25,7.25,0,0,0,6.87,12.76C167.09,74.31,169.74,69.06,167.84,65.53Z"/><path class="cls-2" d="M167.64,65.64a6.29,6.29,0,0,0-4.71-3,10.19,10.19,0,0,0-5.72.73,7.12,7.12,0,1,0,6.87,12.43,10.31,10.31,0,0,0,3.7-4.53,6.78,6.78,0,0,0,.06-5.77Zm.2-.11a6.82,6.82,0,0,1,0,5.79,10.29,10.29,0,0,1-3.69,4.61,7.34,7.34,0,0,1-11-8.42,7.43,7.43,0,0,1,3.93-4.42,10.62,10.62,0,0,1,5.94-.81,6.71,6.71,0,0,1,5.05,3.14Z"/><path class="cls-1" d="M166.41,75.57c-1.9-3.52-7.62-4-11.14-2.08a7.24,7.24,0,1,0,6.87,12.75C165.66,84.35,168.31,79.09,166.41,75.57Z"/><path class="cls-1" d="M183.45,76.55c-1.89-3.52-7.61-4-11.14-2.08a7.25,7.25,0,0,0,6.87,12.76C182.7,85.33,185.35,80.07,183.45,76.55Z"/><path class="cls-2" d="M183.25,76.66a6.29,6.29,0,0,0-4.71-3,10.19,10.19,0,0,0-5.72.73,7.12,7.12,0,1,0,6.87,12.43,10.28,10.28,0,0,0,3.7-4.54,6.75,6.75,0,0,0,.06-5.76Zm.2-.11a6.82,6.82,0,0,1,0,5.79A10.29,10.29,0,0,1,179.75,87a7.34,7.34,0,0,1-11-8.42,7.4,7.4,0,0,1,3.93-4.42,10.54,10.54,0,0,1,5.94-.81,6.71,6.71,0,0,1,5,3.14Z"/><path class="cls-1" d="M146.72,64.61c-1.89-3.52-7.61-4-11.14-2.08a7.25,7.25,0,0,0,6.87,12.76C146,73.39,148.62,68.14,146.72,64.61Z"/><path class="cls-2" d="M146.52,64.72a6.28,6.28,0,0,0-4.71-3,10.19,10.19,0,0,0-5.72.72A7.12,7.12,0,1,0,143,74.91a10.2,10.2,0,0,0,3.7-4.53,6.78,6.78,0,0,0,.06-5.77Zm.2-.11a6.75,6.75,0,0,1,0,5.79A10.23,10.23,0,0,1,143,75a7.34,7.34,0,0,1-11-8.41,7.42,7.42,0,0,1,3.93-4.43,10.62,10.62,0,0,1,5.94-.81,6.72,6.72,0,0,1,5.05,3.15Z"/><path class="cls-1" d="M158.51,57.93c-1.9-3.52-7.62-4-11.14-2.08a7.24,7.24,0,1,0,6.86,12.76C157.75,66.71,160.4,61.45,158.51,57.93Z"/><path class="cls-1" d="M167.84,88.47c-1.89-3.52-7.61-4-11.14-2.08a7.25,7.25,0,0,0,6.87,12.76C167.09,97.25,169.74,92,167.84,88.47Z"/><path class="cls-1" d="M162.11,104.24c-1.9-3.52-7.62-4-11.14-2.08a7.24,7.24,0,1,0,6.86,12.76C161.36,113,164,107.77,162.11,104.24Z"/><path class="cls-1" d="M165,51.2c-1.9-3.53-7.62-4-11.14-2.09a7.24,7.24,0,1,0,6.86,12.76C164.22,60,166.87,54.72,165,51.2Z"/><path class="cls-1" d="M179.31,65.53c-1.89-3.52-7.61-4-11.14-2.08A7.25,7.25,0,0,0,175,76.21C178.56,74.31,181.21,69.06,179.31,65.53Z"/><path class="cls-1" d="M156.37,89.91c-1.89-3.53-7.61-4-11.14-2.08a7.24,7.24,0,1,0,6.87,12.75C155.62,98.69,158.27,93.43,156.37,89.91Z"/><g class="cls-3"><path class="cls-1" d="M185.62,36.4c-.38-1.94,1.4-3.77,3.33-4.19s3.92.18,5.81.76l9.62,3a14.37,14.37,0,0,1-6.12,3.23c3.51.89,5.68,4.42,6.78,7.87s1.55,7.15,3.38,10.27a17,17,0,0,0,7.35,6.43l-15.5-1.88a14.63,14.63,0,0,1-5-1.23c-2.84-1.49-4.42-4.68-7.11-6.43.51,3,1.09,5.92,1.72,8.85-3.68-1.55-7.43-3.15-10.43-5.79s-5.16-6.56-4.68-10.53S179,39.21,183,39.88c-2.6-1.14-3.64-4.54-6.27-5.61-3-1.22-6.13,1.17-8.77,3.06s-6.82,3.17-8.72.53c1.63-.24,3.17,1.12,4.8.89,1.45-.21,2.39-1.59,3.45-2.61,3.86-3.73,11.22-2.55,13.71,2.21A3.43,3.43,0,0,0,182.48,40a2,2,0,0,0,2.4-1.09,5.71,5.71,0,0,0,.31-2.88"/></g><path class="cls-1" d="M178,63.18c.76-2.09-.37-4.35-1.46-6.29l-8.36-14.8a17.72,17.72,0,0,1-2.1-4.76c-1.31-6,3.84-11.56,9.4-14.11,2.9-1.34,6.09-2.25,8.48-4.37s3.62-6.05,1.58-8.51a17.27,17.27,0,0,1,2.25,7.06c8.44-1.67,18-3.11,25,1.92,2.4,1.73,4.26,4.1,6.5,6a23.36,23.36,0,0,0,18.18,5.38c-9.17,6.45-21.57,5.73-32.43,3a16.91,16.91,0,0,1-5.44-2.15c-3.65-2.49-6.47-7.85-10.73-6.7,1.26-1.19.31-3.54-1.3-4.17s-3.44-.07-5,.6c-5.85,2.44-11.46,7.1-12.22,13.4-1.18,9.78,9.52,17.67,9.41,27.52,0,1-.7,2.26-1.54,1.8"/><path class="cls-1" d="M136.19,31.7c-1.22-1.81-.3-4.46,1.45-5.77s4.06-1.61,6.24-1.7c3-.13,6.27.14,8.43,2.21,3.63,3.46,1.94,9.71-1.19,13.64s-7.46,7.09-9.2,11.8A12.72,12.72,0,0,0,146,66a26.88,26.88,0,0,1-17.55-11.36,16.1,16.1,0,0,1-13.08,9.93c-2.53.25-5.18-.09-7.57.77-5.35,1.94-6.88,8.63-7.62,14.28-4.39-3-5.66-9-5.32-14.25s1.9-10.51,1.66-15.81c-.12-2.46-.62-4.92-.21-7.34,1.25-7.36,10.07-10.8,17.54-10.64a36.6,36.6,0,0,0-19.29.36,25.5,25.5,0,0,0,12.91-7.84c1.3-1.48,2.48-3.16,4.2-4.14,1.87-1.06,4.12-1.15,6.26-1.22l8.33-.25c1.81-.05,3.73-.09,5.31.8s2.6,3.06,1.63,4.59-3.23,2.77-2.11,4,2.54-.5,3.71-1.4c2.47-1.9,6.13-.39,8.36,1.78s4,5,6.8,6.32c3.33,1.55,7.24.52,10.9.84s7.82,3.46,6.53,6.91a13.09,13.09,0,0,0-9.46-4.91c-2.48-.13-5,.45-7.42.07-5.37-.85-8.87-5.92-11.73-10.54a1.79,1.79,0,0,0-1.65,1.55"/><path class="cls-1" d="M182.29,9a6.13,6.13,0,0,1,11.25,0c.47,1.1.61,2.33,1.17,3.39s1.76,2,2.9,1.59a5.22,5.22,0,0,1-6.75,1.43C194.8,20.5,193,28,189.41,33.35a9.65,9.65,0,0,0-1.9,3.73c-.22,1.39.53,3.06,1.92,3.28-3.05-.92-6.18-1.88-8.74-3.78s-4.49-5-4.16-8.14c.41-3.94,4.08-7,4.44-10.91a8.65,8.65,0,0,1-8.27,3,1.88,1.88,0,0,0,.72-2.28A14.61,14.61,0,0,0,172.14,16a5.09,5.09,0,0,1,.7-5.95,3.87,3.87,0,0,1,5.64.39c-.47-3.07-2.29-6.34-5.35-6.9-2-.37-4,.5-6,.82s-4.53-.29-5.09-2.24a1,1,0,0,1,.09-.89c.46-.57,1.31,0,2,.38,2.12,1.23,4.63-.73,7.06-1.07a7,7,0,0,1,6.38,3.14,15.88,15.88,0,0,1,2.42,7l2.84-2.3"/><path class="cls-1" d="M164.71,13.55c3.21.78,7,2.18,7.55,5.44.62,3.82-3.73,6.34-5.78,9.62-.55.89-.66,2.45.37,2.61-1.29,1-3.3.49-4.44-.68a10.26,10.26,0,0,1-2.12-4.4c-.81,3.7-4.76,5.64-8.24,7.11s-7.41,3.52-8.08,7.24c-5.53-8.35-3.54-20.81,4.32-27a8.29,8.29,0,0,0-6.41,3.33,8.64,8.64,0,0,1-1.49,1.85c-1.47,1.15-3.59.61-5.36,0a4,4,0,0,0,3-3.08,18.24,18.24,0,0,0,.29-4.5c.05-3.75,1.54-8.06,5.13-9.16,2.56-.79,5.3.37,7.65,1.67,2.65,1.47,5.5,3.75,5.27,6.77a6.71,6.71,0,0,0,4.38-3.43,4.4,4.4,0,0,0-1.07-5.21,1.11,1.11,0,0,1,1.63-.6,2.51,2.51,0,0,1,1,1.69,7.63,7.63,0,0,1-5.41,8.76,17.51,17.51,0,0,1,8,2"/><path class="cls-1" d="M255.34,15.52a6.13,6.13,0,0,1,11.25.05c.47,1.1.61,2.33,1.17,3.4s1.76,2,2.89,1.58A5.22,5.22,0,0,1,263.91,22c3.94,5.05,2.13,12.59-1.46,17.9a9.63,9.63,0,0,0-1.89,3.73c-.22,1.39.53,3.06,1.92,3.28-3.06-.92-6.18-1.88-8.74-3.78s-4.49-5-4.16-8.14c.41-3.93,4.07-7,4.43-10.9a8.59,8.59,0,0,1-8.26,3,1.87,1.87,0,0,0,.72-2.27,14.26,14.26,0,0,0-1.28-2.28,5.08,5.08,0,0,1,.7-5.95,3.86,3.86,0,0,1,5.64.4c-.47-3.08-2.29-6.35-5.35-6.91-2-.37-4,.51-6,.82s-4.53-.29-5.09-2.24a1,1,0,0,1,.09-.89c.45-.57,1.31,0,1.95.39,2.12,1.22,4.63-.74,7.06-1.08a7,7,0,0,1,6.38,3.14,15.88,15.88,0,0,1,2.42,7l2.84-2.29"/><path class="cls-1" d="M237.76,20.09c3.21.78,7,2.18,7.55,5.44.61,3.82-3.73,6.34-5.78,9.62-.55.89-.66,2.45.37,2.61-1.29,1-3.3.5-4.45-.68a10.26,10.26,0,0,1-2.11-4.39c-.81,3.69-4.76,5.63-8.24,7.1S217.68,43.31,217,47c-5.53-8.35-3.54-20.8,4.32-27a8.27,8.27,0,0,0-6.41,3.33,9,9,0,0,1-1.49,1.85c-1.47,1.15-3.59.61-5.36,0a4,4,0,0,0,3-3.09,17.77,17.77,0,0,0,.3-4.5c0-3.74,1.54-8.06,5.12-9.16,2.57-.78,5.31.37,7.66,1.67,2.65,1.47,5.49,3.75,5.27,6.77a6.67,6.67,0,0,0,4.37-3.43,4.39,4.39,0,0,0-1.06-5.21c.1-.67,1-.93,1.63-.6a2.51,2.51,0,0,1,1,1.7A7.63,7.63,0,0,1,230,18.12a17.4,17.4,0,0,1,8,2.05"/><g class="cls-4"><path class="cls-1" d="M81.44,14.15a7.42,7.42,0,0,1,13.63.06c.57,1.33.75,2.82,1.42,4.11s2.13,2.38,3.51,1.93A6.32,6.32,0,0,1,91.83,22c4.77,6.13,2.58,15.27-1.77,21.7a11.9,11.9,0,0,0-2.3,4.52c-.26,1.69.64,3.71,2.33,4-3.7-1.12-7.48-2.28-10.59-4.58s-5.44-6-5-9.87C75,33,79.4,29.29,79.83,24.52a10.46,10.46,0,0,1-10,3.68,2.26,2.26,0,0,0,.87-2.76,16.29,16.29,0,0,0-1.54-2.76A6.14,6.14,0,0,1,70,15.47c1.88-1.8,5.39-1.68,6.84.48-.57-3.73-2.77-7.69-6.48-8.37-2.42-.45-4.83.61-7.26,1s-5.5-.35-6.17-2.71A1.22,1.22,0,0,1,57,4.77c.56-.69,1.6,0,2.37.47C62,6.73,65,4.35,67.94,3.94s6,1.35,7.73,3.8a19.42,19.42,0,0,1,2.94,8.48l3.44-2.78"/><path class="cls-1" d="M60.13,19.69c3.89.94,8.52,2.64,9.16,6.59.74,4.63-4.53,7.68-7,11.66-.67,1.08-.8,3,.45,3.16-1.57,1.23-4,.6-5.39-.82A12.5,12.5,0,0,1,54.77,35c-1,4.48-5.77,6.83-10,8.61s-9,4.27-9.78,8.78c-6.71-10.12-4.3-25.22,5.23-32.75a10.06,10.06,0,0,0-7.77,4,10.45,10.45,0,0,1-1.81,2.25c-1.78,1.39-4.34.74-6.49,0a4.88,4.88,0,0,0,3.59-3.74,22,22,0,0,0,.36-5.45c.06-4.54,1.87-9.77,6.21-11.1,3.11-1,6.43.44,9.28,2,3.21,1.77,6.66,4.54,6.39,8.2a8.14,8.14,0,0,0,5.3-4.15A5.34,5.34,0,0,0,54,5.36c.12-.81,1.26-1.13,2-.73a3,3,0,0,1,1.24,2.06,9.22,9.22,0,0,1-6.56,10.6,21.39,21.39,0,0,1,9.68,2.49"/></g><path class="cls-1" d="M74.35,160.46c-1.75-3.25-7-3.67-10.29-1.92a6.69,6.69,0,1,0,6.34,11.79C73.66,168.58,76.11,163.72,74.35,160.46Z"/><path class="cls-2" d="M74.33,160.48a6,6,0,0,0-4.5-2.76,9.36,9.36,0,0,0-5.28.83,6.46,6.46,0,0,0-3.33,3.9,6.43,6.43,0,0,0,4.49,8.13,6.41,6.41,0,0,0,5.08-.73,9.23,9.23,0,0,0,3.45-4.08A6.17,6.17,0,0,0,74.33,160.48Zm0,0a6.25,6.25,0,0,1,0,5.36,9.5,9.5,0,0,1-3.42,4.25,6.73,6.73,0,0,1-9.59-2.37,6.65,6.65,0,0,1-.49-5.36,6.76,6.76,0,0,1,3.6-4,9.74,9.74,0,0,1,5.41-.71A6,6,0,0,1,74.37,160.45Z"/><path class="cls-1" d="M77.11,88.84c-1.75-3.25-7-3.67-10.3-1.92a6.7,6.7,0,0,0,6.35,11.79C76.41,97,78.86,92.1,77.11,88.84Z"/><path class="cls-2" d="M77.09,88.85a5.94,5.94,0,0,0-4.5-2.75,9.31,9.31,0,0,0-5.29.83A6.46,6.46,0,0,0,64,90.83,6.45,6.45,0,0,0,68.46,99a6.45,6.45,0,0,0,5.08-.74A9.29,9.29,0,0,0,77,94.15,6.26,6.26,0,0,0,77.09,88.85Zm0,0a6.32,6.32,0,0,1,0,5.36,9.47,9.47,0,0,1-3.42,4.24A6.72,6.72,0,1,1,67.19,86.7,9.58,9.58,0,0,1,72.6,86,6,6,0,0,1,77.13,88.83Z"/><path class="cls-1" d="M82.5,123.78l-.3-.15a8,8,0,0,0,1.34-4.13A13,13,0,0,0,81.07,112a8.81,8.81,0,0,0-4.26-16.53c-4.52,0-9.63,3-10.33,7.32a9.15,9.15,0,0,0-2.17-.27,8.82,8.82,0,0,0-8.82,8.82c0,4.87,3.15,9.46,8,9.46.22,0,.44,0,.67,0A12,12,0,0,0,65.77,126c-4.3-1.74-10.42-1-12.56,3-2.31,4.28.92,10.68,5.2,13a8.83,8.83,0,0,0,10.12-1.25,9.51,9.51,0,0,0,3.27,3.06,7.32,7.32,0,0,0,9.86-10,5.46,5.46,0,0,0,.84-10Zm-12.29,6a5.81,5.81,0,0,0,1.46.28,10.62,10.62,0,0,0-1.13.36C70.44,130.2,70.33,130,70.21,129.78Z"/><path class="cls-1" d="M42.21,123.7a5.47,5.47,0,0,0,3,2.61A7.32,7.32,0,0,0,55,136.43a9.5,9.5,0,0,0,3.3-3,8.82,8.82,0,0,0,10.11,1.35c4.31-2.27,7.59-8.63,5.33-12.94-2.1-4-8.21-4.82-12.53-3.13a12.08,12.08,0,0,0,1.65-5.22l.67,0c4.86,0,8.06-4.51,8.11-9.38a8.83,8.83,0,0,0-8.73-8.91,9.08,9.08,0,0,0-2.17.25C60.09,91.13,55,88.08,50.49,88a8.81,8.81,0,0,0-4.43,16.49A12.86,12.86,0,0,0,43.52,112a7.94,7.94,0,0,0,1.3,4.14l-.3.15A5.49,5.49,0,0,0,42.21,123.7Zm14.19-.64a8.16,8.16,0,0,0-1.12-.37,6,6,0,0,0,1.47-.27C56.62,122.63,56.51,122.84,56.4,123.06Z"/><path class="cls-1" d="M67.65,155.41a12.07,12.07,0,0,0,1.64-5.22l.67,0c4.87,0,8.06-4.51,8.11-9.38a8.82,8.82,0,0,0-8.72-8.91,9.22,9.22,0,0,0-2.18.25c-.65-4.33-5.73-7.38-10.26-7.42a8.81,8.81,0,0,0-4.42,16.49A12.79,12.79,0,0,0,50,148.74a7.94,7.94,0,0,0,1.3,4.14c-.1.05-.21.09-.31.15a5.47,5.47,0,0,0,.74,10,7.32,7.32,0,0,0,9.76,10.12,9.59,9.59,0,0,0,3.3-3m-1.91-10.34a8.64,8.64,0,0,0-1.12-.37,5.8,5.8,0,0,0,1.46-.27C63.05,159.36,62.94,159.57,62.83,159.79Z"/><path class="cls-1" d="M56.46,95.34c2-3.68,7.94-4.15,11.61-2.17a7.55,7.55,0,0,1-7.16,13.3C57.24,104.49,54.48,99,56.46,95.34Z"/><path class="cls-2" d="M56.44,95.32a6.82,6.82,0,0,1,5.09-3.25,11.05,11.05,0,0,1,6.19.68,7.78,7.78,0,1,1-7.49,13.55,10.89,10.89,0,0,1-3.81-4.91A7.12,7.12,0,0,1,56.44,95.32Zm0,0a7,7,0,0,0,0,6,10.67,10.67,0,0,0,3.85,4.75,7.51,7.51,0,0,0,11.25-8.63,7.55,7.55,0,0,0-4-4.48,10.77,10.77,0,0,0-6.06-.8A6.73,6.73,0,0,0,56.48,95.35Z"/><path class="cls-1" d="M77.85,103.49c-1.91-3.56-7.7-4-11.26-2.11a7.32,7.32,0,1,0,6.94,12.9C77.09,112.36,79.77,107.05,77.85,103.49Z"/><path class="cls-2" d="M77.65,103.6a6.37,6.37,0,0,0-4.76-3,10.35,10.35,0,0,0-5.79.74,7.19,7.19,0,0,0-3.35,10,7.25,7.25,0,0,0,10.3,2.58,10.38,10.38,0,0,0,3.74-4.59,6.82,6.82,0,0,0,.06-5.82Zm.2-.11a6.85,6.85,0,0,1,0,5.85A10.39,10.39,0,0,1,74.11,114,7.43,7.43,0,1,1,67,101a10.66,10.66,0,0,1,6-.82,6.8,6.8,0,0,1,5.11,3.18Z"/><path class="cls-1" d="M56.62,159.3c0-3.66,2.37-7.11,6-7.11a7.59,7.59,0,0,1,7.23,7.11,6.63,6.63,0,1,1-13.26,0Z"/><path class="cls-2" d="M56.39,159.3a8.26,8.26,0,0,1,1.71-5.06A5.76,5.76,0,0,1,62.87,152a7.49,7.49,0,0,1,4.82,2.19A7.36,7.36,0,0,1,70,159a6.68,6.68,0,1,1-13.36.34Zm.23,0a6.59,6.59,0,0,0,6.8,6.57,6.54,6.54,0,0,0,6.33-6.9,7.47,7.47,0,0,0-6.89-6.6,5.37,5.37,0,0,0-4.44,2.12,7.79,7.79,0,0,0-1.57,4.81Z"/><path class="cls-1" d="M54.9,149.19c1.74,3.22,7,3.64,10.2,1.9a6.63,6.63,0,0,0-6.28-11.68C55.59,141.15,53.17,146,54.9,149.19Z"/><path class="cls-2" d="M55.1,149.08a5.77,5.77,0,0,0,4.3,2.71,9.41,9.41,0,0,0,5.24-.67,6.49,6.49,0,0,0,3-9,6.54,6.54,0,0,0-9.31-2.34A9.37,9.37,0,0,0,55,143.91a6.21,6.21,0,0,0-.06,5.28Zm-.2.11a6.22,6.22,0,0,1,0-5.3,9.47,9.47,0,0,1,3.38-4.23,6.73,6.73,0,0,1,10.1,7.72,6.83,6.83,0,0,1-3.61,4.06,9.67,9.67,0,0,1-5.44.74,6.13,6.13,0,0,1-4.64-2.88Z"/><path class="cls-1" d="M50.38,137.33c1.73,3.22,7,3.64,10.2,1.9a6.63,6.63,0,0,0-6.29-11.68C51.06,129.29,48.64,134.1,50.38,137.33Z"/><path class="cls-2" d="M50.58,137.22a5.77,5.77,0,0,0,4.29,2.71,9.41,9.41,0,0,0,5.24-.67A6.5,6.5,0,0,0,59,127a6.58,6.58,0,0,0-5.18.86,9.35,9.35,0,0,0-3.38,4.15,6.18,6.18,0,0,0-.06,5.28Zm-.2.11a6.26,6.26,0,0,1,0-5.3,9.54,9.54,0,0,1,3.38-4.23,6.73,6.73,0,0,1,10.1,7.71,6.82,6.82,0,0,1-3.61,4.07,9.67,9.67,0,0,1-5.44.74,6.18,6.18,0,0,1-4.64-2.89Z"/><path class="cls-1" d="M65.64,143c1.44,2.68,5.79,3,8.47,1.58a5.51,5.51,0,1,0-5.22-9.7C66.21,136.31,64.19,140.31,65.64,143Z"/><path class="cls-2" d="M65.84,142.88a4.75,4.75,0,0,0,3.54,2.24,7.65,7.65,0,0,0,4.33-.55,5.36,5.36,0,0,0,2.51-7.45,5.41,5.41,0,0,0-7.71-2,7.72,7.72,0,0,0-2.82,3.44,5.13,5.13,0,0,0,0,4.38Zm-.2.11a5.14,5.14,0,0,1,0-4.4,7.86,7.86,0,0,1,2.8-3.52,5.61,5.61,0,0,1,8.42,6.42,5.69,5.69,0,0,1-3,3.4,8,8,0,0,1-4.54.62,5.15,5.15,0,0,1-3.88-2.41Z"/><path class="cls-1" d="M63.13,152.79c0-3.66,2.37-7.6,6-7.6s7.23,3.94,7.23,7.6a6.63,6.63,0,1,1-13.26,0Z"/><path class="cls-2" d="M62.9,152.79a9.29,9.29,0,0,1,1.63-5.18A5.65,5.65,0,0,1,69.19,145a7.18,7.18,0,0,1,4.86,2.29,8.47,8.47,0,0,1,2.42,4.79,6.69,6.69,0,1,1-13.34.69Zm.23,0a6.59,6.59,0,0,0,11.6,4.26,6.49,6.49,0,0,0,1.51-4.92,8.14,8.14,0,0,0-2.4-4.61,6.8,6.8,0,0,0-4.65-2.15,5.28,5.28,0,0,0-4.33,2.47,8.81,8.81,0,0,0-1.5,4.95Z"/><path class="cls-1" d="M56.2,100.17c-1.28-2.38-5.15-2.68-7.52-1.4a4.88,4.88,0,1,0,4.63,8.6C55.69,106.09,57.47,102.55,56.2,100.17Z"/><path class="cls-2" d="M56.18,100.18a4.32,4.32,0,0,0-3.29-2,6.78,6.78,0,0,0-3.83.63,4.66,4.66,0,1,0,4.5,8.15A6.71,6.71,0,0,0,56.1,104,4.57,4.57,0,0,0,56.18,100.18Zm0,0a4.63,4.63,0,0,1,0,3.92,7,7,0,0,1-2.5,3.1,4.92,4.92,0,0,1-7-1.73,4.86,4.86,0,0,1-.36-3.93A4.93,4.93,0,0,1,49,98.6a7.08,7.08,0,0,1,4-.52A4.42,4.42,0,0,1,56.22,100.16Z"/><path class="cls-1" d="M65.6,110.14c0,3.61-2.33,7-5.93,7a7.48,7.48,0,0,1-7.13-7,6.53,6.53,0,1,1,13.06,0Z"/><path class="cls-2" d="M65.83,110.14a8.15,8.15,0,0,1-1.68,5,5.67,5.67,0,0,1-4.7,2.18,7.4,7.4,0,0,1-4.74-2.15,7.23,7.23,0,0,1-2.26-4.67,6.59,6.59,0,0,1,11.2-5,6.51,6.51,0,0,1,1.95,4.69Zm-.23,0a6.46,6.46,0,1,0-12.92.33A7.35,7.35,0,0,0,59.46,117a5.28,5.28,0,0,0,4.37-2.09,7.64,7.64,0,0,0,1.54-4.73Z"/><path class="cls-1" d="M73.84,113.53c-1.89-3.52-7.61-4-11.14-2.08a7.25,7.25,0,0,0,6.87,12.76C73.09,122.31,75.74,117.06,73.84,113.53Z"/><path class="cls-2" d="M73.64,113.64a6.29,6.29,0,0,0-4.71-3,10.19,10.19,0,0,0-5.72.73,7.12,7.12,0,1,0,6.87,12.43,10.31,10.31,0,0,0,3.7-4.53,6.78,6.78,0,0,0,.06-5.77Zm.2-.11a6.82,6.82,0,0,1,0,5.79,10.29,10.29,0,0,1-3.69,4.61,7.34,7.34,0,0,1-11-8.42,7.43,7.43,0,0,1,3.93-4.42,10.62,10.62,0,0,1,5.94-.81,6.71,6.71,0,0,1,5,3.14Z"/><path class="cls-1" d="M72.41,123.57c-1.9-3.52-7.62-4-11.14-2.08a7.24,7.24,0,1,0,6.87,12.75C71.66,132.35,74.31,127.09,72.41,123.57Z"/><path class="cls-1" d="M89.45,124.55c-1.89-3.52-7.61-4-11.14-2.08a7.25,7.25,0,0,0,6.87,12.76C88.7,133.33,91.35,128.07,89.45,124.55Z"/><path class="cls-2" d="M89.25,124.66a6.29,6.29,0,0,0-4.71-3,10.19,10.19,0,0,0-5.72.73,7.12,7.12,0,1,0,6.87,12.43,10.28,10.28,0,0,0,3.7-4.54,6.75,6.75,0,0,0,.06-5.76Zm.2-.11a6.82,6.82,0,0,1,0,5.79A10.29,10.29,0,0,1,85.75,135a7.34,7.34,0,0,1-11-8.42,7.4,7.4,0,0,1,3.93-4.42,10.54,10.54,0,0,1,5.94-.81,6.71,6.71,0,0,1,5,3.14Z"/><path class="cls-1" d="M52.72,112.61c-1.89-3.52-7.61-4-11.14-2.08a7.25,7.25,0,0,0,6.87,12.76C52,121.39,54.62,116.14,52.72,112.61Z"/><path class="cls-2" d="M52.52,112.72a6.28,6.28,0,0,0-4.71-3,10.19,10.19,0,0,0-5.72.72A7.12,7.12,0,1,0,49,122.91a10.2,10.2,0,0,0,3.7-4.53,6.78,6.78,0,0,0,.06-5.77Zm.2-.11a6.75,6.75,0,0,1,0,5.79A10.23,10.23,0,0,1,49,123a7.34,7.34,0,0,1-11-8.41,7.42,7.42,0,0,1,3.93-4.43,10.62,10.62,0,0,1,5.94-.81,6.72,6.72,0,0,1,5,3.15Z"/><path class="cls-1" d="M59.51,104.93c-1.9-3.52-7.62-4-11.14-2.08a7.24,7.24,0,1,0,6.86,12.76C58.75,113.71,61.4,108.45,59.51,104.93Z"/><path class="cls-1" d="M73.84,136.47c-1.89-3.52-7.61-4-11.14-2.08a7.25,7.25,0,0,0,6.87,12.76C73.09,145.25,75.74,140,73.84,136.47Z"/><path class="cls-1" d="M68.11,152.24c-1.9-3.52-7.62-4-11.14-2.08a7.24,7.24,0,1,0,6.86,12.76C67.36,161,70,155.77,68.11,152.24Z"/><path class="cls-1" d="M71,99.2c-1.9-3.53-7.62-4-11.14-2.09a7.24,7.24,0,1,0,6.86,12.76C70.22,108,72.87,102.72,71,99.2Z"/><path class="cls-1" d="M85.31,113.53c-1.89-3.52-7.61-4-11.14-2.08A7.25,7.25,0,0,0,81,124.21C84.56,122.31,87.21,117.06,85.31,113.53Z"/><path class="cls-1" d="M62.37,137.91c-1.89-3.53-7.61-4-11.14-2.08a7.24,7.24,0,1,0,6.87,12.75C61.62,146.69,64.27,141.43,62.37,137.91Z"/><g class="cls-3"><path class="cls-1" d="M92,84c1.22-1.55,3.76-1.4,5.34-.21s2.43,3.08,3.22,4.9l4,9.24a14.36,14.36,0,0,1-6.43-2.52c1.61,3.24.36,7.18-1.53,10.27s-4.41,5.84-5.58,9.27a17.06,17.06,0,0,0-.08,9.76l-8.69-13a14.69,14.69,0,0,1-2.35-4.61c-.73-3.13.66-6.4.23-9.59q-2.86,3.49-5.58,7.09c-1.23-3.8-2.47-7.69-2.43-11.69s1.6-8.19,4.93-10.41,8.51-1.69,10.58,1.74c-.83-2.71,1.06-5.73.16-8.41-1-3.08-4.89-3.88-8-4.65s-6.86-3.1-6.1-6.26c1.24,1.08,1.22,3.14,2.46,4.21s2.76.78,4.23.92c5.34.48,9.25,6.83,7.28,11.83A3.34,3.34,0,0,0,87.19,84a1.94,1.94,0,0,0,2.39,1.1A5.47,5.47,0,0,0,92,83.44"/></g><path class="cls-1" d="M84,111.18c.76-2.09-.37-4.35-1.46-6.29l-8.36-14.8a17.72,17.72,0,0,1-2.1-4.76c-1.31-6,3.84-11.56,9.4-14.11,2.9-1.34,6.09-2.25,8.48-4.37s3.62-6,1.58-8.51a17.27,17.27,0,0,1,2.25,7.06c8.44-1.67,18-3.11,25,1.92,2.4,1.73,4.26,4.1,6.5,6a23.36,23.36,0,0,0,18.18,5.38c-9.17,6.45-21.57,5.73-32.43,3a16.91,16.91,0,0,1-5.44-2.15c-3.65-2.49-6.47-7.85-10.73-6.7,1.26-1.19.31-3.54-1.3-4.17s-3.44-.07-5,.6c-5.85,2.44-11.46,7.1-12.22,13.4-1.18,9.78,9.52,17.67,9.41,27.52,0,1-.7,2.26-1.54,1.8"/><path class="cls-1" d="M42.19,79.7c-1.22-1.81-.3-4.46,1.45-5.77s4.06-1.61,6.24-1.7c3-.13,6.27.14,8.43,2.21,3.63,3.46,1.94,9.71-1.19,13.64s-7.46,7.09-9.2,11.8A12.72,12.72,0,0,0,52,114a26.88,26.88,0,0,1-17.55-11.36,16.1,16.1,0,0,1-13.08,9.93c-2.53.25-5.18-.09-7.57.77-5.35,1.94-6.88,8.63-7.62,14.28-4.39-3-5.66-9-5.32-14.25s1.9-10.51,1.66-15.81c-.12-2.46-.62-4.92-.21-7.34,1.25-7.36,10.07-10.8,17.54-10.64a36.6,36.6,0,0,0-19.29.36,25.5,25.5,0,0,0,12.91-7.84c1.3-1.48,2.48-3.16,4.2-4.14s4.12-1.15,6.26-1.22l8.33-.25c1.81,0,3.73-.09,5.31.8s2.6,3.06,1.63,4.59-3.23,2.77-2.11,4,2.54-.5,3.71-1.4c2.47-1.9,6.13-.39,8.36,1.78s4,5,6.8,6.32c3.33,1.55,7.24.52,10.9.84s7.82,3.46,6.53,6.91a13.09,13.09,0,0,0-9.46-4.91c-2.48-.13-5,.45-7.42.07-5.37-.85-8.87-5.92-11.73-10.54a1.79,1.79,0,0,0-1.65,1.55"/><path class="cls-1" d="M88.29,57A6.13,6.13,0,0,1,99.54,57c.47,1.1.61,2.33,1.17,3.39s1.76,2,2.9,1.59a5.22,5.22,0,0,1-6.75,1.43C100.8,68.5,99,76,95.41,81.35a9.65,9.65,0,0,0-1.9,3.73c-.22,1.39.53,3.06,1.92,3.28-3.05-.92-6.18-1.88-8.74-3.78s-4.49-5-4.16-8.14c.41-3.94,4.08-7,4.44-10.91a8.65,8.65,0,0,1-8.27,3,1.88,1.88,0,0,0,.72-2.28A14.61,14.61,0,0,0,78.14,64a5.09,5.09,0,0,1,.7-5.95,3.87,3.87,0,0,1,5.64.39c-.47-3.07-2.29-6.34-5.35-6.9-2-.37-4,.5-6,.82s-4.53-.29-5.09-2.24a1,1,0,0,1,.09-.89c.46-.57,1.31,0,2,.38,2.12,1.23,4.63-.73,7.06-1.07a7,7,0,0,1,6.38,3.14,15.88,15.88,0,0,1,2.42,7l2.84-2.3"/><path class="cls-1" d="M70.71,61.55c3.21.78,7,2.18,7.55,5.44.62,3.82-3.73,6.34-5.78,9.62-.55.89-.66,2.45.37,2.61-1.29,1-3.3.49-4.44-.68a10.26,10.26,0,0,1-2.12-4.4c-.81,3.7-4.76,5.64-8.24,7.11S50.64,84.77,50,88.49c-5.53-8.35-3.54-20.81,4.32-27a8.29,8.29,0,0,0-6.41,3.33,8.64,8.64,0,0,1-1.49,1.85c-1.47,1.15-3.59.61-5.36,0a4,4,0,0,0,3-3.08,18.24,18.24,0,0,0,.29-4.5c.05-3.75,1.54-8.06,5.13-9.16,2.56-.79,5.3.37,7.65,1.67,2.65,1.47,5.5,3.75,5.27,6.77a6.71,6.71,0,0,0,4.38-3.43,4.4,4.4,0,0,0-1.07-5.21,1.11,1.11,0,0,1,1.63-.6,2.51,2.51,0,0,1,1,1.69,7.63,7.63,0,0,1-5.41,8.76,17.51,17.51,0,0,1,8,2"/><path class="cls-1" d="M161.34,63.52a6.13,6.13,0,0,1,11.25,0c.47,1.1.61,2.33,1.17,3.4s1.76,2,2.89,1.58A5.22,5.22,0,0,1,169.91,70c3.94,5.05,2.13,12.59-1.46,17.9a9.63,9.63,0,0,0-1.89,3.73c-.22,1.39.53,3.06,1.92,3.28-3.06-.92-6.18-1.88-8.74-3.78s-4.49-5-4.16-8.14c.41-3.93,4.07-7,4.43-10.9a8.59,8.59,0,0,1-8.26,3,1.87,1.87,0,0,0,.72-2.27,14.26,14.26,0,0,0-1.28-2.28,5.08,5.08,0,0,1,.7-6,3.86,3.86,0,0,1,5.64.4c-.47-3.08-2.29-6.35-5.35-6.91-2-.37-4,.51-6,.82s-4.53-.29-5.09-2.24a1,1,0,0,1,.09-.89c.45-.57,1.31,0,1.95.39,2.12,1.22,4.63-.74,7.06-1.08a7,7,0,0,1,6.38,3.14,15.88,15.88,0,0,1,2.42,7l2.84-2.29"/><g class="cls-5"><path class="cls-1" d="M143.76,68.09c3.21.78,7,2.18,7.55,5.44.61,3.82-3.73,6.34-5.78,9.62-.55.89-.66,2.45.37,2.61-1.29,1-3.3.5-4.45-.68a10.26,10.26,0,0,1-2.11-4.39c-.81,3.69-4.76,5.63-8.24,7.1S123.68,91.31,123,95c-5.53-8.35-3.54-20.8,4.32-27a8.27,8.27,0,0,0-6.41,3.33,9,9,0,0,1-1.49,1.85c-1.47,1.15-3.59.61-5.36,0a4,4,0,0,0,3-3.09,17.77,17.77,0,0,0,.3-4.5c0-3.74,1.54-8.06,5.12-9.16,2.57-.78,5.31.37,7.66,1.67,2.65,1.47,5.49,3.75,5.27,6.77a6.67,6.67,0,0,0,4.37-3.43,4.39,4.39,0,0,0-1.06-5.21c.1-.67,1-.93,1.63-.6a2.51,2.51,0,0,1,1,1.7A7.63,7.63,0,0,1,136,66.12a17.4,17.4,0,0,1,8,2"/></g></svg>