<svg id="レイヤー_1" data-name="レイヤー 1" xmlns="http://www.w3.org/2000/svg" viewBox="0 0 1170 91"><defs><style>.cls-1,.cls-2{fill:none;stroke:#787100;stroke-miterlimit:10;stroke-width:0.87px;}.cls-2{stroke-dasharray:0.87 5.44;}</style></defs><title>toyosawa-church</title><line class="cls-1" y1="35.25" x2="0.43" y2="35.25"/><path class="cls-2" d="M5.87,35.25h414.2s76,0,187.92,25.63c0,0,88.44,30,240.43,29.3,139.84-.68,293.7-.11,317.44,0"/><path class="cls-1" d="M1168.57,90.18h.43"/><line class="cls-1" y1="26.64" x2="0.43" y2="26.64"/><path class="cls-2" d="M5.87,26.64h414.2s76,0,187.92,25.64c0,0,88.44,30,240.43,29.29,139.84-.67,293.7-.11,317.44,0"/><path class="cls-1" d="M1168.57,81.57h.43"/><line class="cls-1" y1="18.04" x2="0.43" y2="18.04"/><path class="cls-2" d="M5.87,18h414.2s76,0,187.92,25.63c0,0,88.44,30,240.43,29.3,139.84-.68,293.7-.11,317.44,0"/><path class="cls-1" d="M1168.57,73h.43"/><line class="cls-1" y1="9.43" x2="0.43" y2="9.43"/><path class="cls-2" d="M5.87,9.43h414.2s76,0,187.92,25.64c0,0,88.44,30,240.43,29.29,139.84-.67,293.7-.11,317.44,0"/><path class="cls-1" d="M1168.57,64.36h.43"/><line class="cls-1" y1="0.83" x2="0.43" y2="0.83"/><path class="cls-2" d="M5.87.83h414.2s76,0,187.92,25.63c0,0,88.44,30,240.43,29.3,139.84-.68,293.7-.11,317.44,0"/><path class="cls-1" d="M1168.57,55.75h.43"/></svg>