<?xml version="1.0" encoding="UTF-8"?>
<svg id="_レイヤー_1" data-name="レイヤー 1" xmlns="http://www.w3.org/2000/svg" viewBox="0 0 400 170">
  <defs>
    <style>
      .cls-1 {
        fill: #787100;
      }

      .cls-2 {
        opacity: .9;
      }
    </style>
  </defs>
  <g>
    <g>
      <path d="m9.35,120.1h-2.53v7.77h-.93v-7.77h-2.52v-.79h5.97v.79Z"/>
      <path d="m37.58,123.51c0,3.01-1.68,4.5-3.71,4.5-2.12,0-3.63-1.68-3.63-4.35s1.58-4.49,3.73-4.49,3.6,1.75,3.6,4.34Zm-6.36.12c0,1.82.94,3.6,2.68,3.6s2.7-1.72,2.7-3.68c0-1.72-.84-3.61-2.67-3.61s-2.71,1.87-2.71,3.69Z"/>
      <path d="m64.96,119.3l-2.75,4.89v3.68h-.93v-3.65l-2.61-4.92h1.07l1.19,2.4c.33.64.6,1.19.85,1.81h.03c.24-.57.53-1.16.86-1.82l1.24-2.38h1.04Z"/>
      <path d="m93.24,123.51c0,3.01-1.68,4.5-3.71,4.5-2.12,0-3.63-1.68-3.63-4.35s1.58-4.49,3.73-4.49,3.6,1.75,3.6,4.34Zm-6.36.12c0,1.82.94,3.6,2.68,3.6s2.7-1.72,2.7-3.68c0-1.72-.84-3.61-2.67-3.61s-2.71,1.87-2.71,3.69Z"/>
      <path d="m118.93,120.36c-.25-.16-.79-.39-1.5-.39-1.19,0-1.64.73-1.64,1.35,0,.84.52,1.27,1.66,1.75,1.38.58,2.09,1.29,2.09,2.52,0,1.36-.99,2.41-2.83,2.41-.77,0-1.62-.24-2.04-.54l.26-.78c.46.3,1.15.53,1.84.53,1.15,0,1.82-.62,1.82-1.54,0-.84-.46-1.36-1.57-1.81-1.29-.48-2.17-1.24-2.17-2.42,0-1.3,1.06-2.26,2.62-2.26.81,0,1.43.2,1.75.41l-.28.78Z"/>
      <path d="m147.61,127.87h-.99l-.92-2.78h-2.98l-.9,2.78h-.95l2.83-8.57h1.08l2.83,8.57Zm-2.1-3.52l-.84-2.54c-.18-.58-.33-1.12-.44-1.63h-.03c-.11.52-.27,1.06-.43,1.6l-.85,2.58h2.59Z"/>
      <path d="m178.55,119.31l-2.36,8.56h-.95l-1.11-4.58c-.28-1.12-.46-1.98-.57-2.83h-.02c-.13.85-.36,1.7-.67,2.82l-1.24,4.59h-.95l-2.12-8.56h.99l1.04,4.45c.25,1.08.48,2.11.63,2.97h.03c.12-.87.4-1.88.69-2.98l1.18-4.44h.94l1.08,4.43c.24,1.02.48,2.05.61,2.98h.03c.17-.98.4-1.92.67-2.98l1.16-4.43h.95Z"/>
      <path d="m206.21,127.87h-.99l-.92-2.78h-2.98l-.9,2.78h-.95l2.83-8.57h1.08l2.83,8.57Zm-2.1-3.52l-.84-2.54c-.18-.58-.33-1.12-.44-1.63h-.03c-.11.52-.27,1.06-.43,1.6l-.85,2.58h2.59Z"/>
      <path d="m256.6,127.61c-.39.19-1.16.38-2.13.38-2.2,0-3.98-1.43-3.98-4.33s1.72-4.49,4.22-4.49c1.02,0,1.62.21,1.89.35l-.25.79c-.39-.19-.94-.35-1.62-.35-1.94,0-3.27,1.3-3.27,3.67s1.21,3.58,3.21,3.58c.65,0,1.29-.15,1.72-.35l.2.75Z"/>
      <path d="m284.37,127.87h-.93v-4.09h-4.09v4.09h-.93v-8.56h.93v3.66h4.09v-3.66h.93v8.56Z"/>
      <path d="m312.64,124.43c0,2.58-1.33,3.58-3.03,3.58-1.59,0-2.86-.93-2.86-3.52v-5.17h.93v5.19c0,1.95.85,2.73,1.98,2.73,1.24,0,2.06-.83,2.06-2.73v-5.19h.93v5.12Z"/>
      <path d="m338.34,123.77c.66.21,1.06.85,1.26,1.79.27,1.24.46,1.99.63,2.32h-.97c-.13-.25-.33-1-.55-2.07-.25-1.19-.72-1.72-1.73-1.72h-1.04v3.79h-.93v-8.45c.53-.11,1.27-.18,1.94-.18,1.11,0,1.84.22,2.35.7.4.37.64.96.64,1.6,0,1.14-.69,1.87-1.59,2.19v.03Zm-1.3-.41c1.19,0,1.95-.67,1.95-1.71,0-1.27-.95-1.66-2-1.66-.51,0-.86.04-1.06.09v3.28h1.1Z"/>
      <path d="m367.55,127.61c-.39.19-1.16.38-2.13.38-2.2,0-3.98-1.43-3.98-4.33s1.72-4.49,4.22-4.49c1.02,0,1.62.21,1.89.35l-.25.79c-.39-.19-.94-.35-1.62-.35-1.94,0-3.27,1.3-3.27,3.67s1.21,3.58,3.21,3.58c.65,0,1.29-.15,1.72-.35l.2.75Z"/>
      <path d="m389.81,119.2v3.82h2.81v-3.82h.83v8.76h-.83v-4.16h-2.81v4.16h-.83v-8.76h.83Z"/>
    </g>
    <g>
      <g>
        <path class="cls-1" d="m.46,3.34h2.15v11.5c0,1.17.11,1.95.32,2.34.22.39.65.58,1.29.58s1.06-.17,1.26-.51c.21-.34.32-1.04.32-2.1V3.34h2.15v11.82c0,1.77-.27,2.97-.81,3.59-.65.71-1.63,1.06-2.96,1.06-1.46,0-2.49-.46-3.09-1.37-.41-.63-.62-1.83-.62-3.6V3.34Z"/>
        <path class="cls-1" d="m10.34,8.7h2.01v1.25c.58-.96,1.32-1.43,2.23-1.43s1.52.35,1.9,1.04c.21.39.32,1.16.32,2.29v7.76h-2.01v-7.29c-.01-.74-.1-1.26-.27-1.57-.18-.31-.48-.46-.91-.46-.23,0-.43.04-.58.12-.16.08-.29.21-.38.39-.1.18-.17.41-.22.7-.05.29-.07.64-.07,1.06v7.05h-2.01v-10.91Z"/>
        <path class="cls-1" d="m20.02,4.06c.37,0,.68.13.95.4.27.27.4.59.4.96s-.13.7-.4.97c-.27.27-.59.4-.97.4s-.7-.13-.97-.4c-.26-.26-.39-.59-.39-.98,0-.37.13-.68.4-.95.29-.27.61-.4.98-.4Zm-.95,4.64h2.02v10.91h-2.02v-10.91Z"/>
        <path class="cls-1" d="m23.61,5.65h2.01v3.06h1.1v1.6h-1.1v9.31h-2.01v-9.31h-1.11v-1.6h1.11v-3.06Z"/>
        <path class="cls-1" d="m32.38,15.93h1.88c-.15,2.56-1.2,3.85-3.16,3.85-.58,0-1.08-.11-1.5-.33s-.76-.55-1.04-1.01c-.27-.46-.48-1.04-.61-1.74-.13-.7-.2-1.54-.2-2.51,0-1.93.27-3.35.81-4.28.54-.93,1.37-1.39,2.49-1.39,2.19,0,3.28,1.92,3.28,5.78v.25h-4.61c0,2.33.46,3.5,1.39,3.5.84,0,1.26-.71,1.26-2.12Zm-.11-2.83c-.08-1.15-.21-1.9-.39-2.25-.18-.4-.48-.6-.89-.6s-.71.2-.89.6c-.18.36-.31,1.11-.39,2.25h2.55Z"/>
        <path class="cls-1" d="m42.35,1.7v17.91h-2.01v-1.4c-.29.6-.58,1.01-.86,1.23s-.67.34-1.15.34c-.9,0-1.56-.46-1.98-1.39-.42-.92-.63-2.38-.63-4.36,0-.96.05-1.78.16-2.48.11-.7.27-1.27.48-1.72.21-.45.49-.78.83-1,.34-.21.74-.32,1.2-.32s.81.11,1.1.32c.14.1.28.24.43.42.15.18.29.41.43.68V1.7h2.01Zm-4.55,12.41c0,1.43.1,2.43.28,3,.2.57.54.85,1.03.85.45,0,.78-.3.98-.89.2-.63.31-1.61.31-2.92s-.1-2.3-.31-2.93c-.2-.59-.53-.89-.98-.89-.48,0-.82.28-1.02.84-.2.52-.3,1.49-.3,2.92Z"/>
        <path class="cls-1" d="m55.6,3.6v1.97c-.56-.27-1.03-.41-1.41-.41-.52,0-.97.13-1.34.38-.37.26-.68.65-.92,1.19-.24.54-.42,1.21-.54,2.03s-.17,1.79-.17,2.9c0,4.02,1.03,6.03,3.09,6.03.36,0,.79-.11,1.3-.34v2.01c-.53.29-1.12.44-1.77.44-3.3,0-4.94-2.69-4.94-8.07,0-2.91.4-5.07,1.21-6.49.8-1.42,2.04-2.13,3.69-2.13.61,0,1.22.16,1.81.49Z"/>
        <path class="cls-1" d="m57.33,1.7h2.01v8.25c.58-.96,1.32-1.43,2.23-1.43s1.52.35,1.9,1.04c.21.39.32,1.16.32,2.29v7.76h-2.01v-7.29c-.01-.74-.1-1.26-.27-1.57-.18-.31-.48-.46-.91-.46-.23,0-.43.04-.58.12-.16.08-.29.21-.38.39-.1.18-.17.41-.22.7-.05.29-.07.64-.07,1.06v7.05h-2.01V1.7Z"/>
        <path class="cls-1" d="m66.07,8.7h2.01v7.29c.01.67.11,1.16.3,1.44s.5.43.93.43c.46,0,.78-.13.96-.38.18-.27.27-.73.27-1.39v-7.4h2.01v6.53c0,1.52-.11,2.54-.34,3.06-.47,1-1.45,1.5-2.93,1.5-1.17,0-2-.29-2.49-.89-.49-.6-.74-1.59-.74-2.98v-7.21Z"/>
        <path class="cls-1" d="m74.84,8.7h2.01v1.36c.34-.58.69-.98,1.02-1.21.34-.23.78-.37,1.34-.4v2.11c-.14-.02-.26-.03-.36-.03-.72,0-1.24.19-1.55.56-.3.37-.45,1-.45,1.92v6.61h-2.01v-10.91Z"/>
        <path class="cls-1" d="m85.06,8.91v2.06c-.28-.34-.62-.52-1.01-.52-1.11,0-1.67,1.2-1.67,3.61,0,2.55.55,3.83,1.65,3.83.31,0,.65-.14,1.02-.41v1.89c-.53.28-1.08.42-1.62.42-2.16,0-3.25-1.84-3.25-5.52,0-1.96.27-3.41.8-4.34.53-.93,1.36-1.4,2.49-1.4.54,0,1.07.13,1.58.39Z"/>
        <path class="cls-1" d="m86.77,1.7h2.01v8.25c.58-.96,1.32-1.43,2.23-1.43s1.52.35,1.9,1.04c.21.39.32,1.16.32,2.29v7.76h-2.01v-7.29c-.01-.74-.1-1.26-.27-1.57-.18-.31-.48-.46-.91-.46-.23,0-.43.04-.58.12-.16.08-.29.21-.38.39-.1.18-.17.41-.22.7-.05.29-.07.64-.07,1.06v7.05h-2.01V1.7Z"/>
        <path class="cls-1" d="m106.42,14.25c0,3.69-1.14,5.53-3.43,5.53s-3.43-1.87-3.43-5.62,1.14-5.64,3.42-5.64c.59,0,1.1.11,1.53.34.43.23.79.57,1.07,1.04.28.47.49,1.06.63,1.78.14.72.21,1.57.21,2.56Zm-2.09-.05c0-1.43-.09-2.43-.28-2.99-.19-.57-.53-.85-1.01-.85s-.82.28-1.02.84c-.19.56-.28,1.54-.28,2.94s.1,2.38.28,2.93c.2.56.54.84,1.02.84s.81-.28,1-.83c.2-.52.29-1.48.29-2.88Z"/>
        <path class="cls-1" d="m107.52,8.7h1.01v-3.8c0-1.24.18-2.12.55-2.63.37-.51,1-.77,1.91-.77.39,0,.85.1,1.37.29v2.13c-.32-.18-.61-.26-.85-.26-.34,0-.59.1-.73.31-.14.2-.22.55-.22,1.03v.82s-.01,2.9-.01,2.9h1.71v1.6h-1.71v9.31h-2.01v-9.31h-1.01v-1.6Z"/>
        <path class="cls-1" d="m124.55,3.6v1.97c-.56-.27-1.03-.41-1.41-.41-.52,0-.97.13-1.34.38-.37.26-.68.65-.92,1.19-.24.54-.42,1.21-.54,2.03s-.17,1.79-.17,2.9c0,4.02,1.03,6.03,3.09,6.03.36,0,.79-.11,1.3-.34v2.01c-.53.29-1.12.44-1.77.44-3.3,0-4.94-2.69-4.94-8.07,0-2.91.4-5.07,1.21-6.49.8-1.42,2.04-2.13,3.69-2.13.61,0,1.22.16,1.81.49Z"/>
        <path class="cls-1" d="m126.28,1.7h2.01v8.25c.58-.96,1.32-1.43,2.23-1.43s1.52.35,1.9,1.04c.21.39.32,1.16.32,2.29v7.76h-2.01v-7.29c-.01-.74-.1-1.26-.27-1.57-.18-.31-.48-.46-.91-.46-.23,0-.43.04-.58.12-.16.08-.29.21-.38.39-.1.18-.17.41-.22.7-.05.29-.07.64-.07,1.06v7.05h-2.01V1.7Z"/>
        <path class="cls-1" d="m135.02,8.7h2.01v1.36c.34-.58.69-.98,1.02-1.21.34-.23.78-.37,1.34-.4v2.11c-.14-.02-.26-.03-.36-.03-.72,0-1.24.19-1.55.56-.3.37-.45,1-.45,1.92v6.61h-2.01v-10.91Z"/>
        <path class="cls-1" d="m141.73,4.06c.37,0,.68.13.95.4.27.27.4.59.4.96s-.13.7-.4.97c-.27.27-.59.4-.97.4s-.7-.13-.97-.4c-.26-.26-.39-.59-.39-.98,0-.37.13-.68.4-.95.29-.27.61-.4.98-.4Zm-.95,4.64h2.02v10.91h-2.02v-10.91Z"/>
        <path class="cls-1" d="m149.29,8.92v1.89c-.49-.37-1.01-.55-1.55-.55-.18,0-.35.03-.51.09s-.29.15-.41.26c-.12.11-.21.24-.27.39s-.1.31-.1.48c0,.52.47,1.14,1.41,1.86.38.29.7.57.95.82s.45.49.58.72c.27.44.41,1,.41,1.68,0,.98-.28,1.76-.85,2.35-.56.58-1.32.88-2.27.88-.58,0-1.17-.17-1.77-.52v-1.95c.58.44,1.13.65,1.65.65.92,0,1.38-.45,1.38-1.36,0-.34-.08-.63-.25-.87-.08-.12-.2-.26-.37-.42-.17-.16-.38-.33-.62-.53-.85-.66-1.43-1.21-1.73-1.67-.29-.46-.44-1.02-.44-1.68,0-.88.27-1.6.81-2.16.55-.55,1.26-.83,2.14-.83.62,0,1.22.16,1.8.47Z"/>
        <path class="cls-1" d="m151.66,5.65h2.01v3.06h1.1v1.6h-1.1v9.31h-2.01v-9.31h-1.11v-1.6h1.11v-3.06Z"/>
        <path class="cls-1" d="m161.63,4.06c.37,0,.68.13.95.4.27.27.4.59.4.96s-.13.7-.4.97c-.27.27-.59.4-.97.4s-.7-.13-.97-.4c-.26-.26-.39-.59-.39-.98,0-.37.13-.68.4-.95.29-.27.61-.4.98-.4Zm-.95,4.64h2.02v10.91h-2.02v-10.91Z"/>
        <path class="cls-1" d="m164.97,8.7h2.01v1.25c.58-.96,1.32-1.43,2.23-1.43s1.52.35,1.9,1.04c.21.39.32,1.16.32,2.29v7.76h-2.01v-7.29c-.01-.74-.1-1.26-.27-1.57-.18-.31-.48-.46-.91-.46-.23,0-.43.04-.58.12-.16.08-.29.21-.38.39-.1.18-.17.41-.22.7-.05.29-.07.64-.07,1.06v7.05h-2.01v-10.91Z"/>
        <path class="cls-1" d="m179.9,3.34h2.2v12.49c0,1.27-.19,2.19-.56,2.75-.55.82-1.44,1.23-2.68,1.23-.73,0-1.35-.14-1.87-.42v-2.19c.62.37,1.11.56,1.45.56.96,0,1.44-.68,1.44-2.04V3.34Z"/>
        <path class="cls-1" d="m190.72,8.7v10.91h-2.01v-1.4c-.29.6-.58,1.01-.86,1.23s-.67.34-1.14.34c-.91,0-1.57-.46-1.99-1.39-.42-.93-.63-2.38-.63-4.36s.21-3.28.63-4.17c.42-.89,1.09-1.33,1.99-1.33.83,0,1.5.47,2,1.41v-1.23h2.01Zm-4.55,5.41c0,1.43.1,2.43.28,3,.2.57.54.85,1.03.85.45,0,.78-.3.98-.89.2-.63.31-1.61.31-2.92s-.1-2.3-.31-2.93c-.2-.59-.53-.89-.98-.89-.48,0-.82.28-1.02.84-.2.52-.3,1.49-.3,2.92Z"/>
        <path class="cls-1" d="m193.01,24.08v-15.38h2.01v1.41c.28-.6.57-1.01.86-1.24.29-.23.68-.35,1.16-.35.9,0,1.56.47,1.98,1.4.42.93.63,2.39.63,4.37s-.21,3.33-.64,4.19c-.42.87-1.1,1.31-2.03,1.31-.45,0-.82-.1-1.11-.31-.14-.1-.28-.24-.42-.42s-.28-.4-.42-.66v5.69h-2.01Zm4.55-9.87c0-1.48-.1-2.49-.29-3.01-.19-.57-.53-.85-1.02-.85-.46,0-.79.29-.99.89-.2.55-.3,1.52-.3,2.93s.1,2.38.3,2.93c.2.58.53.88.99.88s.82-.28,1.02-.84c.2-.52.29-1.49.29-2.91Z"/>
        <path class="cls-1" d="m207.75,8.7v10.91h-2.01v-1.4c-.29.6-.58,1.01-.86,1.23s-.67.34-1.14.34c-.91,0-1.57-.46-1.99-1.39-.42-.93-.63-2.38-.63-4.36s.21-3.28.63-4.17c.42-.89,1.09-1.33,1.99-1.33.83,0,1.5.47,2,1.41v-1.23h2.01Zm-4.55,5.41c0,1.43.1,2.43.28,3,.2.57.54.85,1.03.85.45,0,.78-.3.98-.89.2-.63.31-1.61.31-2.92s-.1-2.3-.31-2.93c-.2-.59-.53-.89-.98-.89-.48,0-.82.28-1.02.84-.2.52-.3,1.49-.3,2.92Z"/>
        <path class="cls-1" d="m210.04,8.7h2.01v1.25c.58-.96,1.32-1.43,2.23-1.43s1.52.35,1.9,1.04c.21.39.32,1.16.32,2.29v7.76h-2.01v-7.29c-.01-.74-.1-1.26-.27-1.57-.18-.31-.48-.46-.91-.46-.23,0-.43.04-.58.12-.16.08-.29.21-.38.39-.1.18-.17.41-.22.7-.05.29-.07.64-.07,1.06v7.05h-2.01v-10.91Z"/>
      </g>
      <g>
        <path class="cls-1" d="m230.03,2.79h14.01v18.18h-1.51v-1.29h-11.01v1.42h-1.49V2.79Zm12.5,1.47h-11.01v6.2h11.01v-6.2Zm-11.01,13.95h11.01v-6.33h-11.01v6.33Z"/>
        <path class="cls-1" d="m268.05,7.54h-7.88c1.86,3.84,5.1,7.41,8.61,9.09-.37.3-.84.86-1.1,1.27-3.39-1.83-6.46-5.29-8.44-9.2v7.08h4.32v1.47h-4.32v4.19h-1.51v-4.19h-4.38v-1.47h4.38v-7.04c-2.05,3.91-5.14,7.3-8.4,9.2-.26-.37-.71-.91-1.04-1.19,3.39-1.75,6.63-5.38,8.51-9.22h-7.79v-1.47h8.72V1.41l1.94.11c-.02.15-.13.26-.43.3v4.25h8.81v1.47Z"/>
        <path class="cls-1" d="m280.89,13.87l.78,6.78-1.55.17-.76-6.76-8.1,1.04-.19-1.42,8.14-1.04-.56-4.86-6.78.89-.19-1.45,6.8-.86-.48-4.28,2.12-.09c0,.22-.19.39-.5.47l.39,3.67,6.56-.86.17,1.47-6.56.84.56,4.84,8.12-1.01.19,1.42-8.16,1.04Z"/>
        <path class="cls-1" d="m295.84,13.93V3.44l2.05.13c-.02.19-.17.35-.52.39v9.97h-1.53Zm12.03-11.33c-.02.22-.17.32-.52.37v6.87c0,4.53-1.55,8.68-7.75,11.08-.22-.32-.76-.89-1.12-1.17,5.98-2.22,7.32-5.92,7.32-9.91V2.47l2.07.13Z"/>
        <path class="cls-1" d="m329.09,4.22c-.04.11-.15.19-.28.24-1.17,2.74-2.55,5.12-4.32,7.43,2.35,1.88,5.89,5.1,7.9,7.32l-1.32,1.14c-1.9-2.2-5.38-5.48-7.58-7.25-1.9,2.31-5.18,5.46-8.31,7.25-.24-.32-.76-.86-1.12-1.17,5.98-3.28,10.71-9.41,12.65-14.1h-10.6v-1.47h11.44l.28-.11,1.25.71Z"/>
        <path class="cls-1" d="m350.93,13.48c-2.2-1.19-5.23-2.59-7.58-3.52v10.8h-1.62V1.99l2.18.13c-.02.24-.19.39-.56.45v6.3l.32-.45c2.53.93,5.87,2.42,8.12,3.61l-.86,1.45Z"/>
        <path class="cls-1" d="m367.32,15.66l-4.79.71v3.5c0,1.45-.6,1.62-3.76,1.58-.06-.37-.28-.88-.45-1.25.58,0,1.1.02,1.53.02,1.25,0,1.3,0,1.3-.35v-3.3c-1.51.24-2.89.43-3.97.58-.02.17-.15.28-.28.3l-.54-1.6c1.27-.15,2.96-.35,4.79-.58v-2.09l.78.04c.65-.5,1.34-1.1,1.88-1.71h-2.85c-1.14,1.08-2.4,2.05-3.71,2.85-.22-.28-.67-.78-.97-1.04.91-.52,1.77-1.12,2.61-1.81h-.6v-1.19h1.94c.54-.52,1.08-1.08,1.58-1.66h-5.4v-1.3h3.91v-2.33h-2.91v-1.27h2.91V1.37l1.79.13c-.02.13-.15.24-.43.28v1.99h2.85v1.12c.56-.97,1.08-1.96,1.51-3l1.68.58c-.06.17-.3.22-.52.19-.73,1.66-1.64,3.24-2.66,4.71h2.59v1.3h-3.56c-.45.58-.93,1.12-1.42,1.66h2.83l.22-.09,1.01.67c-.04.09-.19.15-.3.17-.82.97-2.16,2.18-3.37,3v1.01c1.55-.19,3.17-.41,4.77-.63l.02,1.19Zm-5.66-8.29h1.19c.56-.73,1.08-1.53,1.58-2.33h-2.76v2.33Zm14.81-.54h-1.45c-.52,3.56-1.36,6.52-2.72,8.92,1.1,1.96,2.53,3.52,4.34,4.47-.35.3-.8.84-1.04,1.25-1.73-1.01-3.09-2.5-4.19-4.34-1.32,1.81-3.02,3.26-5.27,4.34-.15-.35-.54-.95-.8-1.23,2.31-1.06,4.04-2.57,5.31-4.56-.89-1.83-1.55-3.95-2.05-6.26-.43.99-.89,1.88-1.4,2.61-.24-.28-.76-.71-1.1-.93,1.53-2.16,2.63-5.96,3.26-9.72l1.84.39c-.04.17-.19.26-.48.26-.22,1.14-.48,2.31-.78,3.43h6.52v1.36Zm-6.91,0l-.06.22c.43,2.59,1.08,5.01,2.01,7.1.99-2.03,1.62-4.47,2.05-7.32h-3.99Z"/>
        <path class="cls-1" d="m378.93,2.42h18.24v19.02h-1.49v-1.01h-15.33v1.01h-1.43V2.42Zm1.43,16.6h15.33V3.83h-15.33v15.2Zm14.38-11.34v1.3h-3.32v7.25c0,1.68-.84,1.68-4.21,1.68-.06-.37-.26-.91-.43-1.27.65.02,1.27.02,1.77.02,1.34,0,1.49,0,1.49-.43v-7.25h-8.44v-1.3h8.44v-3.07l1.79.11c-.02.13-.13.24-.41.28v2.68h3.32Zm-8.72,7.19c-.41-1.19-1.53-2.92-2.66-4.15l1.08-.56c1.12,1.21,2.29,2.89,2.72,4.06l-1.14.65Z"/>
      </g>
    </g>
    <g>
      <path d="m56.85,98.33l3.94-4.91h1.04l5.43,5.65v1.78H6.45l-5.2.45-.89-3.42,6.09.45h32.18c1.11-2.53,1.93-4.53,2.45-6.32.3-1.04.52-2.15.67-3.64l.52-.3c5.87,2.16,6.76,2.67,6.76,3.64,0,.89-.97,1.19-3.27,1.34-1.11,1.56-2.53,3.42-4.39,5.28h15.46Zm.97-31.59l3.27-4.16h1.04l4.76,4.91v1.78H7.79l-5.2.45-.89-3.42,6.09.45h50.02Zm-43.56-2.97l-.74.74-3.94.15.37-10.55v-8.25c0-3.34-.3-5.2-1.12-7.43l.45-.45c2.3,1.04,4.16,2.08,6.24,3.27h8.92v-1.56c0-2.53-.22-3.87-.82-5.43l.37-.45c6.24.89,7.51,1.41,7.51,2.3,0,.74-.74,1.19-3.05,1.78v3.34h10.41v-1.56c0-2.53-.22-3.87-.82-5.43l.37-.45c6.24.89,7.51,1.41,7.51,2.3,0,.74-.74,1.19-3.05,1.78v3.34h9.66l2.38-2.9h1.04c3.79,3.05,4.61,3.79,4.61,4.68,0,.74-.67,1.26-2.68,2.01v8.7l.37,9.66-.74.74-4.01.15v-2.38H14.26v1.86Zm35.38,10.18l2.23-2.75h1.04c3.87,2.97,4.68,3.64,4.68,4.53,0,.67-.67,1.19-2.68,1.86v4.98l.37,6.69-.74.74-4.16.15v-3.05H17.38v2.6l-.74.74-4.09.15.37-7.66v-3.86c0-3.64-.3-5.5-1.11-7.73l.45-.45c2.23,1.04,4.01,1.93,5.87,3.05h31.51Zm-25.2-24.01v-6.17h-10.18v6.17h10.18Zm-10.18,9.44h10.18v-6.91h-10.18v6.91Zm3.12,25.2h33v-8.1H17.38v8.1Zm3.64,3.57c5.28,2.23,7.43,4.83,7.43,6.99,0,1.93-.97,2.9-2.45,2.9-1.34,0-1.93-.74-2.53-2.38-.82-2.38-1.56-3.87-3.79-6.32l1.34-1.19Zm17.84-44.37h-10.41v6.17h10.41v-6.17Zm0,8.7h-10.41v6.91h10.41v-6.91Zm14.64-8.7h-10.63v6.17h10.63v-6.17Zm0,8.7h-10.63v6.91h10.63v-6.91Z"/>
      <path d="m110.29,56.63c7.8,2.01,10.93,4.83,10.93,7.73,0,1.71-.82,2.9-2.45,2.9-1.11,0-1.93-.59-3.2-2.82-1.41-2.38-2.97-4.09-6.17-6.24l.89-1.56Zm24.68-7.8c-4.53,13.23-9.66,25.49-12.78,34.56-.45,1.41-.89,3.27-.89,4.16,0,1.71.45,3.12,1.04,4.46.67,1.78,1.41,3.42,1.41,5.43,0,2.6-1.49,3.57-3.27,3.57-1.93,0-3.27-1.49-3.27-4.38,0-2.23.07-3.57.07-5.13,0-2.97-.82-4.38-6.39-7.28l.59-1.64c2.75.82,3.86,1.04,4.76,1.04.97,0,1.56-.45,2.53-2.38,3.94-8.77,9.37-21.11,14.49-32.93l1.71.52Zm-18.43-12.64c7.8,2.3,11.45,5.65,11.45,8.55,0,1.71-.82,3.12-2.53,3.12-1.34,0-2.08-.74-3.05-2.68-1.56-3.05-3.57-5.28-6.76-7.43l.89-1.56Zm38.57,26.76c3.49,16.57,10.78,25.2,24.3,32.63l-.37,1.56c-2.53.22-4.01,1.78-4.76,3.94-12.04-8.77-19.1-20.51-21.78-38.13h-8.4c-.82,18.28-5.57,29.43-18.36,39.32l-1.26-1.26c10.7-10.7,14.94-22.89,14.94-45.04v-11.22c0-3.34-.22-5.13-1.11-7.88l.45-.45c2.23,1.04,4.16,2.01,6.24,3.2h22.52l2.38-2.9h1.04c4.01,3.05,5.05,3.79,5.05,4.68,0,.74-.67,1.26-2.68,2.01v9.96l.37,13.3-.74.74-4.46.15v-4.61h-13.38Zm13.38-2.53v-18.28h-24.23v14.12c0,1.41,0,2.82-.07,4.16h24.3Z"/>
      <path d="m282.73,54.03c-.67,4.76-1.49,9.51-2.9,14.12-1.49,4.9-3.57,9.59-6.24,13.97,3.72,5.87,8.84,11,16.13,15.09l-.67,1.41c-2.6-.37-4.16.45-5.95,2.53-5.05-4.38-9.14-9.44-12.26-15.16-5.8,7.43-13.45,12.71-22.97,16.35l-1.04-1.49c9.22-4.61,16.57-10.85,21.85-19.18-3.27-7.43-5.28-15.31-6.24-23.41-1.86,3.42-4.09,6.61-6.76,9.59l-.45-.37c0,.82-.45,1.12-3.05,1.78-2.53,1.93-5.05,3.87-7.8,5.65.82.3,1.04.59,1.04.97,0,.59-.74,1.04-3.05,1.63v3.2c4.61-1.26,9.29-2.75,13.97-4.53l.52,1.78c-4.76,2.3-9.59,4.16-14.49,5.95v2.9l.15,9.22c0,4.24-2.38,6.32-8.7,6.54-.22-2.53-1.04-3.49-5.28-4.91l.37-1.71c4.31.52,5.95.67,7.21.67,1.34,0,1.93-.6,1.93-1.93v-9.29c-3.72,1.19-7.43,2.3-11.3,3.49-.15,2.3-.59,3.12-1.49,3.12-.82,0-1.34-.59-4.39-6.61l.3-.52c1.93.07,3.57-.22,5.95-.67,3.42-.67,7.14-1.41,10.93-2.38v-2.38c0-2.68-.22-4.01-.82-5.72l.37-.45c1.93.37,3.42.67,4.53.97,2.01-2.01,3.79-4.16,5.43-6.39h-10.63c-5.28,4.46-11,7.73-17.47,10.11l-.89-1.56c4.91-2.3,9.44-5.13,13.53-8.55h-3.42l-5.2.45-.89-3.42,6.09.45h6.32c2.6-2.38,4.98-5.13,7.21-7.88h-16.05l-5.28.45-.82-3.42,6.09.45h9.36v-7.51h-6.02l-5.28.45-.82-3.42,6.09.45h6.02v-4.31c0-2.75-.22-4.09-.82-5.87l.37-.45c6.69,1.11,7.95,1.49,7.95,2.45s-.59,1.26-3.05,1.93v6.24h2.68l2.53-3.42h1.04l3.72,4.01c.22-.37.37-.74.59-1.12,1.56-2.97,2.3-4.91,2.9-6.69l.52-.07c4.39,2.68,5.8,3.64,5.8,4.61,0,.59-.22.96-1.34.96-.45,0-1.19-.07-2.08-.22-2.53,4.46-5.05,8.4-7.66,11.97h2.75l2.38-3.12h1.04l3.72,3.86v1.78h-11.74c-2.23,2.75-4.61,5.43-7.14,7.88h7.66l2.23-2.53h1.04c2.23,1.86,3.42,2.75,4.01,3.42,5.28-7.95,7.8-17.09,9.07-25.12.37-2.45.67-4.53.67-6.91l.52-.22c6.54,2.08,7.88,2.68,7.88,3.79,0,.89-.67,1.19-3.64,1.64-.89,4.31-2.01,8.33-3.49,12.12h14.42l3.27-4.16h1.04l4.76,4.91v1.78h-6.39Zm-42.74.89h4.09c1.78-2.38,3.34-4.91,4.76-7.51h-8.84v7.51Zm24.6-.89c-.15.37-.3.67-.45,1.04,1.26,7.8,3.27,15.53,6.91,22.6,3.79-7.43,5.8-15.39,6.84-23.64h-13.3Z"/>
      <path d="m360.63,33.22c6.69,2.53,8.47,3.49,8.47,4.68,0,.89-.52,1.34-3.2,1.04,8.18,10.41,19.03,17.02,33.37,21.04l-.3,1.63c-2.68.22-4.31,1.56-5.28,4.16-12.19-5.95-21.85-13.82-29.73-25.72-10.03,14.34-21.48,22.15-34.86,27.13l-.82-1.56c12.56-6.32,22.6-15.24,29.28-25.87,1.49-2.38,2.16-4.16,2.53-6.24l.52-.3Zm-3.42,43.93c4.24,1.64,5.28,2.53,5.28,3.27,0,.89-.97,1.19-3.64.97-3.12,4.91-6.47,9.14-10.63,13.08,10.41,0,20.81-.82,31.14-1.56-2.38-2.75-5.43-5.43-8.77-7.73l.97-1.49c10.85,4.01,17.84,11.15,17.84,14.72,0,2.23-1.04,3.42-2.68,3.42-1.34,0-2.08-.59-3.27-2.97-.67-1.34-1.49-2.68-2.45-3.94-14.27,2.16-23.71,3.34-39.24,4.76-.15,1.86-.74,2.97-1.64,2.97-1.11,0-2.3-1.93-5.13-7.88l.3-.52c2.3.37,4.98.3,8.55.3h1.34c3.2-4.38,5.8-9.44,7.51-13.45.67-1.56,1.04-2.68,1.26-3.94h-15.53l-5.2.45-.89-3.42,6.09.45h46.97l3.79-4.76h1.04l5.28,5.5v1.78h-38.28Zm-4.76-13.01l-5.2.45-.89-3.42,6.09.45h18.58l3.42-4.09h1.04l4.83,4.83v1.78h-27.87Z"/>
    </g>
  </g>
  <g class="cls-2">
    <path class="cls-1" d="m63.05,150.03c-.22.02-.39.02-.55.02h-.1c-.53,0-.95-.79-.95-1.07,0-.08.04-.12.12-.12.04,0,.08,0,.14.02.22.06.43.08.69.08h.26l5.28-.3c.24-.04.51-.08.77-.18.06-.02.12-.04.18-.04.32,0,1.01.63,1.01.87,0,.2-.2.29-.43.32l-6.41.39Zm1.62,10.84l.02.37v.06c0,.29-.14.43-.37.43-.12,0-.93-.12-.93-.73,0-.04.02-.1.02-.16.02-.18.04-.35.04-.55,0-.12-.02-.26-.02-.39l-.2-2.52c-.04-.43-.12-.77-.28-1.06-.08-.16-.14-.28-.14-.35s.06-.12.2-.12c.22,0,.65.12,1.4.39l3.29-.18c.08,0,.14-.02.2-.02.32,0,.85.41.85.73,0,.18-.1.3-.12.41l-.33,2.5c.32.41.45.67.45.81,0,.22-.26.24-.55.26l-3.53.12Zm-.28-8.46c-.16,0-.3.02-.41.02-.24,0-.39-.02-.51-.12-.39-.33-.55-.79-.55-.93,0-.08.04-.12.1-.12.04,0,.08,0,.12.02.22.06.43.08.67.08h.2l2.96-.18c.26-.02.49-.08.69-.14.06-.02.12-.04.18-.04.2,0,.93.47.93.85,0,.2-.2.3-.41.32l-3.94.24Zm.1,2.35c-.16,0-.3.02-.41.02-.24,0-.41-.02-.53-.12-.3-.28-.55-.73-.55-.95,0-.08.04-.1.1-.1.02,0,.08,0,.12.02.22.06.43.08.67.08h.22l2.76-.12c.26-.02.45-.06.69-.14.08-.02.14-.04.22-.04.24,0,.89.47.89.83,0,.2-.2.3-.41.32l-3.75.2Zm2.15-6.82c-.87-.55-1.72-1-2.54-1.38-.26-.1-.38-.22-.38-.39,0-.06.14-.69.53-.69.14,0,3.41,1.16,3.41,1.75,0,.06-.18.87-.61.87-.12,0-.26-.06-.41-.16Zm.73,9.25l-2.96.14.18,2.48,2.54-.08.24-2.54Zm3.9-2.62c-.16,0-.35.02-.51.02-.24,0-.45-.02-.57-.14-.39-.37-.55-.77-.55-.95,0-.08.02-.1.1-.1.04,0,.08,0,.14.02.22.06.43.08.65.08.1,0,.22-.02.32-.02l5.46-.28h.22c.53,0,.85.33.85.65,0,.1-.95,2.52-2.86,4.63,1.4,1.14,3.09,2.15,5.13,2.92.28.1.39.2.39.29,0,.26-.85.81-1.04.81-.28,0-2.8-1.14-5.26-3.23-2.62,2.48-5.11,3.29-5.46,3.29-.14,0-.22-.04-.22-.14,0-.12.18-.32.55-.55,1.38-.85,2.9-1.95,4.3-3.35-1.12-1.08-2.39-2.66-2.39-3,0-.16.37-.55.65-.55.14,0,.26.1.39.28.63.87,1.26,1.7,2.09,2.46.87-1.01,1.6-2.13,2.07-3.41l-4.44.26Zm4.46-3.67c0,.26.12.33.87.33,1.18,0,1.44-.04,1.58-.75.18-.53.3-1.1.37-1.68.06-.45.2-.67.32-.67.26,0,.3.75.3,1.42,0,2.8-.37,2.86-2.48,2.86-1.04,0-2.13-.08-2.13-1.34v-.04l.06-3.65-2.35.18v.24c0,.69-.08,1.54-.2,2.07-.47,2.17-2.62,3.69-3.17,3.69-.12,0-.18-.06-.18-.14,0-.12.08-.26.26-.43,1.46-1.36,2.03-2.84,2.03-4.81,0-.16-.02-.33-.02-.51-.02-.36-.06-.85-.14-1.04-.06-.16-.1-.28-.1-.35s.06-.14.18-.14c.2,0,.57.12,1.26.39l2.64-.24c.14-.02.24-.02.33-.02.51,0,.79.53.79.67,0,.12-.06.22-.06.32l-.16,3.59v.06Z"/>
    <path class="cls-1" d="m87.66,161.33c-.26,0-.47.02-.65.02-.32,0-.53-.04-.69-.18-.49-.39-.63-.93-.63-1.04,0-.08.04-.12.12-.12.04,0,.08,0,.14.02.26.06.55.1.87.1.14,0,.28-.02.43-.02l7.43-.28c1.79-3.63,2.62-7,2.62-7.53,0-.2-.04-.39-.12-.63-.04-.08-.06-.16-.06-.22,0-.12.08-.18.22-.18.37,0,1.66.39,1.66.97,0,.02-.02.06-.02.08-.77,2.48-1.83,5.21-3.13,7.47l5.01-.2c.33-.02.71-.08.99-.16.08-.02.14-.04.22-.04.34,0,1.22.65,1.22,1.08,0,.2-.22.28-.49.3l-15.12.55Zm1.14-10.57c-.22.02-.39.02-.55.02h-.2c-.93-.1-1.02-1.08-1.02-1.14,0-.1.04-.14.12-.14.04,0,.08,0,.14.02.28.08.57.1.87.1h.26l5.28-.28-.04-3.08c0-.39-.16-.65-.35-.97-.04-.06-.06-.12-.06-.16,0-.1.1-.16.28-.16.16,0,1.52.16,1.52.75l-.02,3.53,4.75-.26c.28-.02.65-.1.89-.18.04-.02.08-.02.14-.02.35,0,1.1.75,1.1.99,0,.18-.22.26-.49.28l-12.6.69Zm3.69,8.24c-.24,0-.34-.2-.41-.43-.69-2.15-1.46-3.92-2.41-5.74-.08-.16-.14-.28-.14-.39,0-.33.57-.59.77-.59s.32.14.45.35c1.48,2.52,2.72,5.62,2.72,6.05,0,.47-.77.75-.99.75Z"/>
    <path class="cls-1" d="m113.42,148.33c-.63.37-1.38.58-2.05.74-.04.02-.11.02-.17.02-.41,0-.93-.28-.93-.52,0-.11.06-.19.24-.26,1.02-.39,1.97-.97,2.62-1.47.17-.13.63-.76.95-.76.35,0,1.06.41,1.06.84,0,.35-.13.91-.13,1.54v10.57c0,.58.02,1.84.04,2.42,0,.15-.19.22-.45.22-.5,0-1.21-.24-1.21-.61,0-.35.04-1.45.04-1.9v-10.83Z"/>
    <path class="cls-1" d="m132.83,161.72c-.45,0-.56-.22-.56-.48,0-.15.04-.3.06-.43.99-4.82,1.28-6.21,1.43-7.09-1.02,1.25-2.62,2.1-4.15,2.1-2.01,0-3.65-1.45-3.65-3.93,0-2.92,2.49-5.84,5.49-5.84,2.01,0,3.11,1.15,3.48,1.79.13-.63.06-1.17.48-1.17h.04c.37.04,1.15.45,1.15.8v.07c-.93,2.44-2.53,12.26-2.68,13.71-.02.3-.41.45-.99.48h-.09Zm1.56-12.54c-.13,0-.24-.06-.32-.26-.28-.61-.99-1.54-2.51-1.54-2.33,0-4.11,2.46-4.11,4.43,0,1.6.74,2.59,2.14,2.59,3.46,0,4.73-3.98,4.89-4.45.09-.3.13-.61.22-.91-.11.07-.22.13-.3.13Z"/>
    <path class="cls-1" d="m148.74,146.02c3.11,0,4.65,3.31,4.65,7.76s-1.62,8.04-4.93,8.04c-3.61,0-4.91-3.5-4.91-7.68,0-3.89,1.47-6.96,2.18-6.96.17,0,.32.13.43.26.73-.87,1.58-1.43,2.57-1.43Zm3.09,7.63c0-3.2-.73-6.27-3.18-6.27-1.41,0-3.55,2.33-3.55,6.72,0,3.35.52,6.36,3.29,6.36,2.44,0,3.44-3.03,3.44-6.81Z"/>
    <path class="cls-1" d="m162.66,148.25c-.22.02-.43.09-.65.09-.82,0-1.08-1.17-1.08-1.28,0-.13.04-.19.13-.19.24,0,.43.04.78.04.11,0,.24-.02.37-.02l6.57-.48c.35-.02.65-.15.91-.15h.06c.37.04.97.56.97.97,0,.02-.02.06-.02.09-.09.32-.41.74-.54,1-.26.5-3.96,7.7-5.41,13.02-.04.24-.26.35-.63.35-.97,0-1.02-.43-1.02-.56,0-.89,3.96-9.9,5.71-13.41l-6.16.54Z"/>
    <path class="cls-1" d="m188.69,156.63l-.02,5.56c0,.3-.14.41-.34.41s-1.04-.18-1.04-.85c0-.06.02-.12.02-.18.06-.39.08-.77.08-1.18l.02-3.71-6.88.33c-.28.02-.49.02-.67.02-.99,0-1.22-.99-1.22-1.14,0-.08.04-.12.14-.12.04,0,.08,0,.14.02.35.08.67.12.95.12h.16l3.25-.16-.16-3.31h-.33c-.34,0-.51-.04-.75-.22-.49-.41-.51-.89-.51-.89,0-.08.04-.12.14-.12.04,0,.08,0,.14.02.35.08.67.12.95.12h.16l4.57-.28.02-2.78-3.82.24c-1.36,1.97-3.06,3.49-3.49,3.49-.06,0-.1-.04-.1-.12,0-.1.06-.24.2-.41,2.62-3.21,3.49-5.72,3.49-6.37,0-.08,0-.16-.02-.24v-.1c0-.16.04-.24.18-.24.08,0,1.42.38,1.42.91,0,.08-.02.16-.06.24-.28.57-.57,1.14-.89,1.72l7.57-.47c.28-.02.59-.08.89-.18.06-.02.14-.04.22-.04.39,0,1.03.65,1.03.93,0,.2-.22.28-.49.3l-4.89.3v2.78l2.56-.16c.32-.02.63-.08.91-.18.06-.02.12-.04.2-.04.39,0,1.08.73,1.08.97,0,.18-.2.24-.45.26l-4.32.26v3.37l5.52-.28c.32-.02.63-.08.91-.18.06-.02.12-.04.18-.04.16,0,1.1.57,1.1,1,0,.18-.2.24-.45.26l-7.25.35Zm-1.24-4.44l-3.13.18.14,3.33,2.98-.14.02-3.37Z"/>
    <path class="cls-1" d="m230.52,160.56c-.49,0-3.25-3.14-3.25-7.14s2.76-7.14,3.25-7.14c.17,0,.3.11.3.25,0,.06-.03.13-.08.19-1.56,1.86-2.29,4.43-2.29,6.69s.73,4.83,2.29,6.69c.05.06.08.13.08.19,0,.14-.13.25-.3.25Z"/>
    <path class="cls-1" d="m238.82,157.5l.02,1.14v.1c0,.3-.1.43-.28.43-.28,0-1.06-.28-1.06-.81,0-.06,0-.14.02-.22.06-.34.1-.63.1-1.04v-.2l-.2-8.54c-.02-.47-.12-.85-.22-1.1-.04-.12-.08-.2-.08-.26,0-.08.04-.12.16-.12.18,0,.55.1,1.22.33l3.84-.32c.08-.02.16-.02.24-.02.57,0,.79.51.79.65,0,.18-.1.32-.12.47l-.33,8.28c.45.45.61.71.61.87,0,.2-.28.2-.61.22l-4.1.12Zm3.13-9.48l-3.35.32.08,3.37,3.19-.18.08-3.51Zm-.1,4.55l-3.15.18.08,3.67,2.98-.08.1-3.76Zm8.89,2.82l-4.81.24c-.65,3.29-2.09,5.01-3.92,6.51l-.1.08c-.26.18-.43.28-.55.28-.08,0-.14-.04-.14-.14,0-.12.12-.34.33-.59,2.96-3.43,3.51-6.19,3.51-11.28,0-3.37-.12-3.75-.22-3.96-.06-.12-.1-.24-.1-.33s.04-.16.2-.16c.22,0,.65.14,1.44.53l4.65-.33h.18c.67,0,.89.61.89.71,0,.16-.12.28-.12.41l.1,13.58c0,.26.02.47.02.67,0,1.1-.93,1.22-1.01,1.22-.79,0-3.53-2.46-3.53-2.88,0-.06.04-.1.14-.1.14,0,.37.08.67.24.75.39,1.44.77,2.41,1.12l-.04-5.82Zm-.02-3.96l-4.4.26c-.02.69-.04.85-.22,2.88l4.63-.24-.02-2.9Zm-.02-4.04l-4.36.3c.02,1.08.02,2.03.02,2.96l4.36-.28-.02-2.98Z"/>
    <path class="cls-1" d="m262.58,153.28c-.83-.79-1.75-1.54-2.58-2.09-.18-.12-.26-.22-.26-.33s.24-.71.57-.71,1.77,1.06,3.04,2.03c.2.16.32.28.32.43,0,.28-.47.87-.73.87-.1,0-.22-.06-.35-.2Zm-1.38,8.38c-.63-.08-1.24-.57-1.24-.73,0-.06.04-.12.16-.18.26-.12.57-.37.77-.67,1.14-1.62,2.31-3.47,3.19-5.13.22-.39.41-.59.55-.59.08,0,.14.08.14.26,0,.14-.04.33-.12.59-.59,1.73-1.56,3.77-2.58,5.58-.32.55-.47.87-.81.87h-.06Zm3.39-12.32c-.12,0-.24-.08-.37-.24-.71-.85-1.58-1.7-2.31-2.31-.18-.14-.26-.26-.26-.39,0-.12.28-.65.63-.65.45,0,3.1,2.44,3.1,2.8s-.57.79-.79.79Zm2.01,3.04c2.27-3.88,3.23-6.21,3.23-6.76,0-.12-.02-.24-.06-.37,0-.04-.02-.08-.02-.12,0-.1.06-.16.18-.16.24,0,1.4.49,1.4.89,0,.16-1.16,2.86-3.33,6.39,2.05-.22,4.06-.49,6.25-.85-.49-.67-1.01-1.26-1.5-1.81-.18-.2-.28-.33-.28-.47,0-.28.57-.55.69-.55.14,0,.28.08.45.28,1.42,1.52,3.63,4.18,3.63,4.61,0,.26-.57.79-.89.79-.16,0-.3-.12-.45-.37-.32-.51-.63-1.01-.97-1.5-6.29,1.1-9.03,1.32-9.07,1.32-.61,0-1.01-1.06-1.01-1.12,0-.1.06-.14.18-.14h.1c.14.02.28.04.41.04.24,0,.47-.04.79-.06l.26-.02Zm1.68,9.07l.06.71v.1c0,.24-.08.41-.32.41-.04,0-1.16-.22-1.16-.81,0-.04.02-.08.02-.14.04-.2.06-.39.06-.65,0-.14,0-.29-.02-.47l-.28-4.02c-.02-.39-.08-.77-.24-1.1-.06-.12-.1-.24-.1-.32s.04-.14.2-.14c.22,0,.63.1,1.36.35l6.72-.32h.14c.57,0,1.01.49,1.01.77,0,.2-.14.31-.16.47l-.55,3.79c.35.45.49.73.49.91,0,.22-.24.26-.55.28l-6.68.18Zm5.91-5.21l-6.27.26.28,3.8,5.56-.18.43-3.88Z"/>
    <path class="cls-1" d="m293.15,157.97v1.23c.02.89.09,1.75.09,2.25,0,.15-.19.22-.45.22-.48,0-1.17-.24-1.17-.61,0-.35.04-1.6.04-1.9v-1.12l-5.12.26c-.17,0-.5.04-.8.13-.04.02-.09.02-.15.02-.45,0-.99-.5-.99-1.02,0-.15.04-.3.15-.45.26-.37.56-.69.76-.99,4.65-7.27,5.28-8.52,5.75-9.77.04-.11.13-.15.22-.15.39,0,1.1.69,1.1,1.17,0,.06-.02.13-.06.19l-.78,1.21c-1.38,2.25-3.52,5.71-5.32,8.35l5.25-.24v-4.35c0-.41-.06-1.82-.06-2.31,0-.15.19-.22.43-.22.48,0,1.17.24,1.17.61,0,.35-.04,1.41-.04,1.92v4.28l.39-.02c.58-.02,1.3-.13,1.58-.13.37,0,.69.69.69,1.12,0,.2-.06.35-.24.35-.3,0-1.17-.04-2.01-.04l-.41.02Z"/>
    <path class="cls-1" d="m307.98,146.02c3.11,0,4.65,3.31,4.65,7.76s-1.62,8.04-4.93,8.04c-3.61,0-4.91-3.5-4.91-7.68,0-3.89,1.47-6.96,2.18-6.96.17,0,.32.13.43.26.73-.87,1.58-1.43,2.57-1.43Zm3.09,7.63c0-3.2-.73-6.27-3.18-6.27-1.41,0-3.55,2.33-3.55,6.72,0,3.35.52,6.36,3.29,6.36,2.44,0,3.44-3.03,3.44-6.81Z"/>
    <path class="cls-1" d="m329.78,156.63l-.02,5.56c0,.3-.14.41-.34.41s-1.04-.18-1.04-.85c0-.06.02-.12.02-.18.06-.39.08-.77.08-1.18l.02-3.71-6.88.33c-.28.02-.49.02-.67.02-.99,0-1.22-.99-1.22-1.14,0-.08.04-.12.14-.12.04,0,.08,0,.14.02.35.08.67.12.95.12h.16l3.25-.16-.16-3.31h-.33c-.34,0-.51-.04-.75-.22-.49-.41-.51-.89-.51-.89,0-.08.04-.12.14-.12.04,0,.08,0,.14.02.35.08.67.12.95.12h.16l4.57-.28.02-2.78-3.82.24c-1.36,1.97-3.06,3.49-3.49,3.49-.06,0-.1-.04-.1-.12,0-.1.06-.24.2-.41,2.62-3.21,3.49-5.72,3.49-6.37,0-.08,0-.16-.02-.24v-.1c0-.16.04-.24.18-.24.08,0,1.42.38,1.42.91,0,.08-.02.16-.06.24-.28.57-.57,1.14-.89,1.72l7.57-.47c.28-.02.59-.08.89-.18.06-.02.14-.04.22-.04.39,0,1.03.65,1.03.93,0,.2-.22.28-.49.3l-4.89.3v2.78l2.56-.16c.32-.02.63-.08.91-.18.06-.02.12-.04.2-.04.39,0,1.08.73,1.08.97,0,.18-.2.24-.45.26l-4.32.26v3.37l5.52-.28c.32-.02.63-.08.91-.18.06-.02.12-.04.18-.04.16,0,1.1.57,1.1,1,0,.18-.2.24-.45.26l-7.25.35Zm-1.24-4.44l-3.13.18.14,3.33,2.98-.14.02-3.37Z"/>
    <path class="cls-1" d="m343.43,160.31c0-.06.03-.13.08-.19,1.56-1.86,2.29-4.43,2.29-6.69s-.73-4.83-2.29-6.69c-.05-.06-.08-.13-.08-.19,0-.14.13-.25.3-.25.49,0,3.25,3.14,3.25,7.14s-2.76,7.14-3.25,7.14c-.18,0-.3-.11-.3-.25Z"/>
  </g>
</svg>