<?xml version="1.0" encoding="UTF-8"?>
<svg id="_レイヤー_1" data-name="レイヤー 1" xmlns="http://www.w3.org/2000/svg" viewBox="0 0 271 174">
  <defs>
    <style>
      .cls-1 {
        fill: #fff;
      }

      .cls-2 {
        fill: #787100;
      }

      .cls-3 {
        opacity: .48;
      }

      .cls-4 {
        opacity: .5;
      }

      .cls-5 {
        opacity: .49;
      }
    </style>
  </defs>
  <g>
    <g>
      <g>
        <path class="cls-2" d="m168.35,112.46c-1.75-3.26-7.04-3.68-10.3-1.92s-4.47,5.81-2.72,9.07,5.81,4.47,9.07,2.72,5.7-6.61,3.95-9.87Z"/>
        <path class="cls-1" d="m168.33,112.48c-.9-1.64-2.72-2.51-4.5-2.76-1.8-.24-3.68.05-5.28.83-1.61.78-2.82,2.23-3.33,3.9-.54,1.66-.35,3.52.52,5.02.81,1.53,2.29,2.68,3.98,3.11,1.68.46,3.56.21,5.08-.74,1.51-.95,2.72-2.41,3.46-4.07.71-1.65.96-3.64.09-5.3Zm.04-.02c.9,1.66.67,3.68-.03,5.36-.71,1.69-1.88,3.22-3.42,4.24-1.54,1.03-3.51,1.36-5.31.91-1.8-.43-3.4-1.64-4.28-3.27-.91-1.62-1.09-3.62-.49-5.37.57-1.76,1.91-3.25,3.6-4.01,1.68-.76,3.59-.98,5.41-.71,1.8.27,3.64,1.18,4.53,2.84Z"/>
      </g>
      <g>
        <path class="cls-2" d="m171.11,40.84c-1.75-3.26-7.04-3.68-10.3-1.92-3.26,1.75-4.47,5.81-2.72,9.07,1.75,3.26,5.81,4.47,9.07,2.72,3.26-1.75,5.7-6.61,3.95-9.87Z"/>
        <path class="cls-1" d="m171.09,40.85c-.9-1.64-2.72-2.51-4.5-2.76-1.8-.24-3.68.05-5.28.83-1.61.78-2.82,2.23-3.33,3.9-.54,1.66-.35,3.52.52,5.02.81,1.53,2.29,2.68,3.98,3.11,1.68.46,3.56.21,5.08-.74,1.51-.95,2.72-2.41,3.46-4.07.71-1.65.96-3.64.09-5.3Zm.04-.02c.9,1.66.67,3.68-.03,5.36-.71,1.69-1.88,3.22-3.42,4.24-1.54,1.03-3.51,1.36-5.31.91-1.8-.43-3.4-1.64-4.28-3.27-.91-1.62-1.09-3.62-.49-5.37.57-1.76,1.91-3.25,3.6-4.01,1.68-.76,3.59-.98,5.41-.71,1.8.27,3.64,1.18,4.53,2.84Z"/>
      </g>
      <path class="cls-2" d="m176.5,75.78c-.1-.05-.2-.1-.3-.15.84-1.35,1.34-2.77,1.34-4.13,0-2.59-.89-5.43-2.47-7.51,2.72-1.5,4.56-4.4,4.56-7.72,0-4.87-3.95-8.82-8.82-8.82-4.52,0-9.63,2.99-10.33,7.32-.69-.18-1.42-.27-2.17-.27-4.87,0-8.82,3.95-8.82,8.82s3.15,9.46,8.01,9.46c.22,0,.45-.01.67-.03.12,1.84.68,3.68,1.59,5.24-4.3-1.74-10.42-.97-12.56,3-2.31,4.29.92,10.69,5.2,12.99,3.39,1.82,7.43,1.2,10.12-1.25.87,1.29,2.02,2.39,3.27,3.06,3.56,1.92,8,.58,9.92-2.98,1.23-2.28,1.12-4.93-.06-7.04,1.27-.43,2.38-1.32,3.06-2.59,1.43-2.66.44-5.99-2.23-7.42Zm-12.29,6c.47.15.96.24,1.47.28-.39.09-.77.21-1.13.36-.1-.22-.22-.43-.34-.64Z"/>
      <path class="cls-2" d="m136.21,75.7c.67,1.28,1.78,2.17,3.04,2.62-1.2,2.1-1.33,4.74-.13,7.04,1.88,3.58,6.31,4.96,9.89,3.08,1.26-.66,2.41-1.75,3.3-3.03,2.66,2.48,6.7,3.14,10.11,1.35,4.31-2.26,7.6-8.63,5.33-12.94-2.1-3.99-8.21-4.82-12.53-3.12.93-1.55,1.5-3.39,1.64-5.23.22.02.45.04.67.04,4.87.05,8.06-4.51,8.11-9.38s-3.86-8.86-8.73-8.9c-.75,0-1.48.08-2.17.25-.66-4.34-5.74-7.38-10.26-7.43-4.87-.05-8.86,3.86-8.9,8.73-.03,3.32,1.78,6.23,4.48,7.76-1.59,2.07-2.51,4.89-2.54,7.48-.01,1.36.48,2.79,1.3,4.14-.1.05-.21.09-.3.14-2.68,1.41-3.71,4.72-2.3,7.4Zm14.19-.64c-.36-.15-.74-.27-1.13-.37.51-.03,1-.13,1.47-.27-.12.21-.24.42-.34.64Z"/>
      <path class="cls-2" d="m161.65,107.41c.93-1.55,1.5-3.39,1.64-5.23.22.02.45.04.67.04,4.87.05,8.06-4.51,8.11-9.38.05-4.87-3.86-8.86-8.73-8.9-.75,0-1.48.08-2.17.25-.66-4.34-5.74-7.38-10.26-7.43-4.87-.05-8.86,3.86-8.9,8.73-.03,3.32,1.78,6.23,4.48,7.76-1.59,2.07-2.51,4.89-2.54,7.48-.01,1.36.48,2.79,1.3,4.14-.1.05-.21.09-.3.14-2.68,1.41-3.71,4.72-2.3,7.4.67,1.28,1.78,2.17,3.04,2.62-1.2,2.1-1.33,4.74-.13,7.04,1.88,3.58,6.31,4.96,9.89,3.08,1.26-.66,2.41-1.75,3.3-3.03m-1.91-10.34c-.36-.15-.74-.27-1.13-.37.51-.03,1-.13,1.47-.27-.12.21-.24.42-.34.64Z"/>
      <g>
        <path class="cls-2" d="m150.46,47.34c1.98-3.67,7.94-4.15,11.61-2.17,3.67,1.98,5.05,6.56,3.07,10.23s-6.56,5.05-10.23,3.07-6.43-7.46-4.46-11.13Z"/>
        <path class="cls-1" d="m150.44,47.32c.99-1.88,3.06-2.93,5.09-3.25,2.06-.35,4.23-.16,6.18.68,1.96.83,3.58,2.52,4.28,4.58.72,2.05.53,4.41-.53,6.33-1.06,1.92-2.96,3.33-5.07,3.82-2.12.5-4.41.04-6.16-1.18-1.75-1.22-3.03-2.99-3.81-4.92-.78-1.91-1.01-4.2.01-6.06Zm.04.02c-1,1.85-.74,4.12.05,6,.8,1.9,2.12,3.61,3.84,4.75,1.72,1.14,3.93,1.52,5.93,1.01,2-.49,3.78-1.84,4.77-3.66,1.01-1.8,1.22-4.03.56-5.98-.64-1.96-2.13-3.63-4.01-4.48-1.88-.86-4.02-1.11-6.06-.81-2.02.3-4.08,1.31-5.07,3.17Z"/>
      </g>
      <g>
        <path class="cls-2" d="m171.85,55.49c-1.92-3.56-7.7-4.02-11.26-2.1-3.56,1.92-4.9,6.36-2.98,9.92,1.92,3.56,6.36,4.9,9.92,2.98,3.56-1.92,6.24-7.23,4.32-10.79Z"/>
        <path class="cls-1" d="m171.65,55.6c-.91-1.73-2.84-2.7-4.76-3-1.94-.3-3.99-.07-5.79.74-1.8.8-3.23,2.38-3.85,4.25-.64,1.87-.46,4,.5,5.73.94,1.75,2.64,3.06,4.57,3.53,1.93.5,4.05.15,5.72-.95,1.67-1.1,2.96-2.75,3.74-4.59.77-1.82,1.03-4.02.07-5.83l-.2.11Zm.2-.11c.98,1.8.75,4.01-.01,5.85-.77,1.86-2.05,3.53-3.73,4.66-1.68,1.13-3.85,1.51-5.83,1.02-1.98-.47-3.75-1.8-4.73-3.59-1.01-1.78-1.23-3.99-.58-5.94.62-1.95,2.1-3.62,3.98-4.47,1.86-.86,3.97-1.12,6-.82,2,.29,4.08,1.29,5.1,3.18l-.2.11Z"/>
      </g>
      <g>
        <g>
          <path class="cls-2" d="m150.62,111.3c0-3.66,2.37-7.11,6.03-7.11,3.66,0,7.24,3.45,7.24,7.11s-2.97,6.63-6.63,6.63c-3.66,0-6.63-2.97-6.63-6.63Z"/>
          <path class="cls-1" d="m150.39,111.3c.01-1.81.58-3.63,1.71-5.06,1.12-1.44,2.94-2.33,4.77-2.22,1.82.08,3.53.94,4.81,2.19,1.28,1.25,2.19,2.93,2.29,4.74.1,1.79-.58,3.61-1.8,4.9-1.22,1.31-2.97,2.1-4.75,2.12-1.78.04-3.56-.66-4.82-1.91-1.27-1.24-2-3-1.99-4.77h-.23Zm.23,0c0,1.77.75,3.51,2.03,4.73,1.26,1.23,3.02,1.9,4.77,1.84,1.75-.04,3.46-.83,4.63-2.12,1.18-1.28,1.81-3.04,1.7-4.77-.27-3.47-3.45-6.46-6.89-6.6-1.72-.08-3.4.76-4.44,2.12-1.05,1.35-1.57,3.09-1.57,4.81h-.23Z"/>
        </g>
        <g>
          <path class="cls-2" d="m148.9,101.19c1.74,3.23,6.97,3.64,10.2,1.91,3.23-1.74,4.43-5.76,2.7-8.98s-5.76-4.43-8.98-2.7-5.65,6.55-3.91,9.78Z"/>
          <path class="cls-1" d="m149.1,101.08c.82,1.56,2.56,2.44,4.3,2.71,1.76.27,3.61.07,5.23-.66,1.63-.72,2.92-2.14,3.48-3.84.58-1.69.42-3.62-.45-5.18-.85-1.58-2.39-2.76-4.13-3.2-1.74-.45-3.67-.14-5.18.86-1.51.99-2.68,2.49-3.39,4.15-.7,1.65-.93,3.64-.06,5.28l.2-.11Zm-.2.11c-.89-1.63-.68-3.63,0-5.3.7-1.68,1.85-3.2,3.38-4.22,1.53-1.03,3.49-1.37,5.28-.93,1.8.43,3.4,1.63,4.29,3.25.92,1.61,1.11,3.62.52,5.38-.57,1.77-1.91,3.28-3.61,4.06-1.69.78-3.6,1.01-5.44.75-1.81-.26-3.7-1.17-4.64-2.89l.2-.11Z"/>
        </g>
        <g>
          <path class="cls-2" d="m144.38,89.33c1.74,3.23,6.97,3.64,10.2,1.91s4.43-5.76,2.7-8.98c-1.74-3.23-5.76-4.43-8.98-2.7-3.23,1.74-5.65,6.55-3.91,9.78Z"/>
          <path class="cls-1" d="m144.58,89.22c.82,1.56,2.56,2.44,4.3,2.71,1.76.27,3.61.07,5.23-.66,1.63-.72,2.92-2.14,3.48-3.84.58-1.69.42-3.62-.45-5.18-.85-1.58-2.39-2.77-4.13-3.2-1.74-.45-3.67-.14-5.18.86-1.51.99-2.68,2.49-3.39,4.15-.7,1.65-.93,3.64-.06,5.28l.2-.11Zm-.2.11c-.89-1.63-.68-3.63,0-5.3.7-1.68,1.85-3.2,3.38-4.22,1.53-1.03,3.49-1.37,5.28-.93,1.8.42,3.4,1.63,4.29,3.25.92,1.61,1.11,3.62.52,5.38-.57,1.77-1.91,3.28-3.61,4.06-1.69.78-3.6,1.01-5.44.75-1.81-.26-3.7-1.17-4.64-2.89l.2-.11Z"/>
        </g>
        <g>
          <path class="cls-2" d="m159.64,94.99c1.44,2.68,5.79,3.02,8.47,1.58s3.68-4.78,2.24-7.46-4.78-3.68-7.46-2.24-4.69,5.44-3.25,8.12Z"/>
          <path class="cls-1" d="m159.84,94.88c.67,1.28,2.1,2.01,3.54,2.24,1.45.23,2.99.06,4.33-.54,1.34-.6,2.41-1.77,2.88-3.17.48-1.39.35-2.99-.37-4.29-.7-1.31-1.97-2.29-3.42-2.65-1.44-.38-3.04-.12-4.29.71-1.26.82-2.22,2.06-2.81,3.44-.58,1.37-.78,3.02-.06,4.38l.2-.11Zm-.2.11c-.74-1.35-.57-3.02,0-4.4.58-1.4,1.54-2.66,2.8-3.52,1.27-.86,2.9-1.15,4.4-.78,1.5.35,2.83,1.35,3.58,2.71.77,1.34.93,3.02.44,4.49-.47,1.48-1.59,2.74-3.01,3.39-1.41.65-3,.85-4.54.63-1.51-.22-3.1-.97-3.88-2.41l.2-.11Z"/>
        </g>
        <g>
          <path class="cls-2" d="m157.13,104.79c0-3.66,2.37-7.6,6.03-7.6,3.66,0,7.24,3.93,7.24,7.6,0,3.66-2.97,6.63-6.63,6.63-3.66,0-6.63-2.97-6.63-6.63Z"/>
          <path class="cls-1" d="m156.9,104.79c.02-1.84.57-3.67,1.63-5.18,1.03-1.5,2.77-2.65,4.66-2.59,1.88.02,3.58,1.01,4.85,2.29,1.27,1.29,2.21,2.96,2.42,4.79.2,1.82-.41,3.69-1.61,5.06-1.19,1.38-2.95,2.23-4.76,2.3-1.81.09-3.63-.59-4.93-1.85-1.31-1.24-2.07-3.03-2.05-4.82h-.23Zm.23,0c0,1.8.78,3.57,2.09,4.78,1.3,1.23,3.1,1.89,4.88,1.77,1.78-.09,3.49-.95,4.63-2.3,1.16-1.34,1.72-3.17,1.51-4.92-.23-1.75-1.16-3.37-2.4-4.61-1.24-1.23-2.9-2.15-4.65-2.15-1.76-.03-3.36,1.04-4.33,2.48-.99,1.44-1.5,3.2-1.5,4.94h-.23Z"/>
        </g>
      </g>
      <g>
        <path class="cls-2" d="m150.2,52.17c-1.28-2.38-5.14-2.68-7.52-1.4s-3.27,4.24-1.99,6.62c1.28,2.38,4.24,3.27,6.62,1.99s4.16-4.83,2.89-7.2Z"/>
        <path class="cls-1" d="m150.18,52.18c-.66-1.19-1.99-1.82-3.29-1.99-1.31-.16-2.68.06-3.83.64-2.36,1.13-3.28,4.26-1.98,6.41,1.13,2.23,4.26,3.13,6.48,1.74,1.1-.67,1.99-1.73,2.54-2.93.52-1.2.71-2.65.08-3.86Zm.04-.02c.66,1.21.49,2.69-.02,3.92-.52,1.24-1.38,2.35-2.5,3.1-1.13.75-2.57,1-3.88.67-1.32-.32-2.49-1.2-3.14-2.39-.66-1.18-.8-2.65-.36-3.93.42-1.29,1.4-2.38,2.63-2.93,1.23-.56,2.62-.72,3.95-.52,1.31.2,2.66.86,3.31,2.08Z"/>
      </g>
      <g>
        <path class="cls-2" d="m159.6,62.14c0,3.61-2.33,7-5.94,7s-7.12-3.4-7.12-7,2.92-6.53,6.53-6.53,6.53,2.92,6.53,6.53Z"/>
        <path class="cls-1" d="m159.83,62.14c-.01,1.78-.57,3.57-1.69,4.98-1.1,1.41-2.9,2.29-4.7,2.18-1.79-.08-3.48-.93-4.74-2.16-1.26-1.23-2.16-2.89-2.26-4.67-.1-1.77.57-3.55,1.78-4.83,1.2-1.29,2.93-2.07,4.68-2.09,1.75-.04,3.5.65,4.74,1.88,1.25,1.22,1.97,2.95,1.95,4.69h.23Zm-.23,0c0-1.74-.74-3.46-1.99-4.65-1.24-1.21-2.98-1.87-4.7-1.81-1.72.04-3.41.82-4.56,2.09-1.16,1.26-1.79,3-1.67,4.7.27,3.42,3.4,6.35,6.78,6.49,1.69.08,3.35-.75,4.37-2.09,1.04-1.33,1.55-3.04,1.54-4.73h.23Z"/>
      </g>
      <g>
        <path class="cls-2" d="m167.84,65.53c-1.9-3.52-7.62-3.98-11.14-2.08s-4.84,6.29-2.95,9.81,6.29,4.84,9.81,2.95,6.17-7.15,4.27-10.68Z"/>
        <path class="cls-1" d="m167.64,65.64c-.9-1.71-2.81-2.67-4.71-2.97-1.92-.3-3.95-.07-5.73.73-1.78.79-3.19,2.35-3.81,4.2-.64,1.85-.46,3.96.5,5.67.93,1.73,2.61,3.02,4.52,3.5,1.9.49,4.01.15,5.66-.94,1.65-1.09,2.92-2.72,3.7-4.54.77-1.8,1.02-3.97.06-5.76l-.2.11Zm.2-.11c.97,1.78.74,3.97-.01,5.78-.76,1.84-2.02,3.49-3.69,4.61-1.67,1.12-3.81,1.5-5.76,1.01-1.96-.46-3.71-1.78-4.68-3.55-1-1.76-1.21-3.95-.57-5.87.62-1.93,2.08-3.58,3.93-4.42,1.84-.85,3.93-1.1,5.93-.81,1.98.29,4.03,1.28,5.05,3.15l-.2.11Z"/>
      </g>
      <path class="cls-2" d="m166.41,75.57c-1.9-3.52-7.62-3.98-11.14-2.08s-4.84,6.29-2.95,9.81,6.29,4.84,9.81,2.95,6.17-7.15,4.27-10.68Z"/>
      <g>
        <path class="cls-2" d="m183.45,76.55c-1.9-3.52-7.62-3.98-11.14-2.08s-4.84,6.29-2.95,9.81c1.9,3.52,6.29,4.84,9.81,2.95s6.17-7.15,4.27-10.68Z"/>
        <path class="cls-1" d="m183.25,76.66c-.9-1.71-2.81-2.67-4.71-2.97-1.92-.3-3.95-.07-5.73.73-1.78.79-3.19,2.35-3.81,4.2-.64,1.85-.46,3.96.5,5.67.93,1.73,2.61,3.02,4.52,3.5,1.9.49,4.01.15,5.66-.94,1.65-1.09,2.92-2.72,3.7-4.54.77-1.8,1.02-3.97.06-5.76l-.2.11Zm.2-.11c.97,1.78.74,3.97-.01,5.78-.76,1.84-2.02,3.49-3.69,4.61-1.67,1.12-3.81,1.5-5.76,1.01-1.96-.46-3.71-1.78-4.68-3.55-1-1.76-1.21-3.95-.57-5.87.62-1.93,2.08-3.58,3.93-4.42,1.84-.85,3.93-1.1,5.93-.81,1.98.29,4.03,1.28,5.05,3.15l-.2.11Z"/>
      </g>
      <g>
        <path class="cls-2" d="m146.72,64.61c-1.9-3.52-7.62-3.98-11.14-2.08-3.52,1.9-4.84,6.29-2.95,9.81,1.9,3.52,6.29,4.84,9.81,2.95,3.52-1.9,6.17-7.15,4.27-10.68Z"/>
        <path class="cls-1" d="m146.52,64.72c-.9-1.71-2.81-2.67-4.71-2.97-1.92-.3-3.95-.07-5.73.73-1.78.79-3.19,2.35-3.81,4.2-.64,1.85-.46,3.96.5,5.67.93,1.73,2.61,3.02,4.52,3.5,1.9.49,4.01.15,5.66-.94,1.65-1.09,2.92-2.72,3.7-4.54.77-1.8,1.02-3.97.06-5.76l-.2.11Zm.2-.11c.97,1.78.74,3.97-.01,5.78-.76,1.84-2.02,3.49-3.69,4.61-1.67,1.12-3.81,1.5-5.76,1.01-1.96-.46-3.71-1.78-4.68-3.55-1-1.76-1.21-3.95-.57-5.87.62-1.93,2.08-3.58,3.93-4.42,1.84-.85,3.93-1.1,5.93-.81,1.98.29,4.03,1.28,5.05,3.15l-.2.11Z"/>
      </g>
      <path class="cls-2" d="m158.51,57.93c-1.9-3.52-7.62-3.98-11.14-2.08-3.52,1.9-4.84,6.29-2.95,9.81s6.29,4.84,9.81,2.95c3.52-1.9,6.17-7.15,4.27-10.68Z"/>
      <path class="cls-2" d="m167.84,88.47c-1.9-3.52-7.62-3.98-11.14-2.08s-4.84,6.29-2.95,9.81,6.29,4.84,9.81,2.95c3.52-1.9,6.17-7.15,4.27-10.68Z"/>
      <path class="cls-2" d="m162.11,104.24c-1.9-3.52-7.62-3.98-11.14-2.08s-4.84,6.29-2.95,9.81,6.29,4.84,9.81,2.95,6.17-7.15,4.27-10.68Z"/>
      <path class="cls-2" d="m164.98,51.2c-1.9-3.52-7.62-3.98-11.14-2.08-3.52,1.9-4.84,6.29-2.95,9.81,1.9,3.52,6.29,4.84,9.81,2.95s6.17-7.15,4.27-10.68Z"/>
      <path class="cls-2" d="m179.31,65.53c-1.9-3.52-7.62-3.98-11.14-2.08s-4.84,6.29-2.95,9.81c1.9,3.52,6.29,4.84,9.81,2.95,3.52-1.9,6.17-7.15,4.27-10.68Z"/>
      <path class="cls-2" d="m156.37,89.91c-1.9-3.52-7.62-3.98-11.14-2.08s-4.84,6.29-2.95,9.81c1.9,3.52,6.29,4.84,9.81,2.95s6.17-7.15,4.27-10.68Z"/>
    </g>
    <g class="cls-5">
      <path class="cls-2" d="m185.62,36.4c-.38-1.94,1.4-3.77,3.33-4.19s3.92.17,5.81.76c3.21,1,6.41,2,9.62,3-1.73,1.55-3.85,2.67-6.11,3.22,3.5.9,5.67,4.42,6.78,7.87,1.1,3.44,1.55,7.16,3.38,10.28,1.67,2.85,4.38,4.97,7.35,6.43-5.16-.63-10.33-1.25-15.49-1.88-1.72-.21-3.49-.43-5.03-1.23-2.85-1.48-4.42-4.67-7.11-6.43.51,2.96,1.09,5.91,1.72,8.85-3.68-1.55-7.44-3.15-10.43-5.79s-5.16-6.56-4.68-10.53,4.28-7.55,8.22-6.88c-2.59-1.14-3.64-4.54-6.26-5.61-3.01-1.23-6.13,1.17-8.77,3.06-2.64,1.89-6.82,3.17-8.72.53,1.62-.24,3.17,1.12,4.79.89,1.45-.21,2.39-1.58,3.45-2.6,3.86-3.73,11.22-2.55,13.72,2.2.34.64.65,1.39,1.31,1.69.88.41,1.97-.22,2.4-1.1s.38-1.9.31-2.87"/>
    </g>
    <path class="cls-2" d="m178.04,63.18c.76-2.09-.36-4.35-1.46-6.28-2.79-4.93-5.57-9.87-8.36-14.8-.86-1.52-1.72-3.06-2.1-4.76-1.32-5.98,3.84-11.56,9.4-14.11,2.9-1.33,6.09-2.24,8.48-4.36s3.62-6.05,1.59-8.51c1.24,2.15,2.02,4.58,2.24,7.05,8.45-1.66,18-3.1,24.99,1.93,2.4,1.73,4.27,4.1,6.51,6.03,4.93,4.26,11.72,6.27,18.17,5.38-9.16,6.45-21.57,5.73-32.43,2.96-1.9-.49-3.82-1.04-5.44-2.15-3.65-2.49-6.47-7.85-10.73-6.7,1.27-1.19.32-3.54-1.3-4.17s-3.44-.07-5.04.59c-5.85,2.44-11.46,7.11-12.22,13.41-1.18,9.78,9.52,17.67,9.41,27.52-.01.96-.7,2.25-1.54,1.79"/>
    <path class="cls-2" d="m136.19,31.7c-1.22-1.82-.3-4.46,1.45-5.77s4.05-1.61,6.24-1.7c2.98-.13,6.27.15,8.43,2.21,3.63,3.47,1.93,9.71-1.19,13.64s-7.47,7.09-9.2,11.8c-1.81,4.91-.08,10.9,4.07,14.09-7.06-1.2-13.56-5.41-17.55-11.35-2.1,5.36-7.35,9.34-13.08,9.92-2.53.26-5.18-.09-7.57.78-5.35,1.94-6.88,8.63-7.62,14.27-4.39-2.99-5.66-8.95-5.32-14.24s1.9-10.51,1.66-15.81c-.11-2.45-.61-4.92-.2-7.34,1.25-7.36,10.07-10.8,17.53-10.64-6.31-1.61-13.04-1.48-19.28.37,4.96-1.23,9.53-4.01,12.91-7.84,1.31-1.48,2.48-3.16,4.2-4.14,1.87-1.06,4.12-1.16,6.27-1.22,2.77-.08,5.55-.17,8.32-.25,1.82-.06,3.73-.09,5.32.8s2.6,3.06,1.62,4.59c-.9,1.41-3.22,2.77-2.1,4.01.99,1.09,2.54-.49,3.71-1.39,2.47-1.9,6.13-.39,8.36,1.78s3.97,5.01,6.79,6.32c3.34,1.54,7.24.52,10.9.83s7.82,3.46,6.53,6.91c-2.27-2.88-5.81-4.71-9.46-4.9-2.47-.13-4.97.45-7.42.06-5.36-.85-8.87-5.92-11.72-10.54-.82.03-1.57.73-1.65,1.55"/>
    <g>
      <path class="cls-2" d="m182.29,8.98c.95-2.18,3.26-3.68,5.64-3.67s4.67,1.54,5.61,3.72c.47,1.1.61,2.33,1.17,3.4s1.76,1.96,2.9,1.59c-1.44,2.08-4.58,2.75-6.74,1.43,3.94,5.05,2.13,12.59-1.46,17.9-.79,1.17-1.68,2.34-1.9,3.73s.53,3.06,1.92,3.28c-3.05-.92-6.17-1.88-8.74-3.78s-4.49-4.97-4.16-8.14c.41-3.94,4.07-6.97,4.43-10.91-1.92,2.42-5.24,3.64-8.27,3.04.79-.36.98-1.45.72-2.28s-.86-1.51-1.27-2.27c-1.03-1.88-.86-4.46.69-5.95,1.55-1.48,4.44-1.39,5.64.39-.46-3.07-2.29-6.34-5.34-6.91-2-.37-3.99.5-5.99.82s-4.53-.29-5.09-2.24c-.09-.3-.11-.65.09-.89.46-.57,1.32.03,1.95.39,2.13,1.22,4.63-.74,7.06-1.08,2.47-.35,4.93,1.11,6.38,3.14s2.05,4.53,2.42,6.99c.95-.77,1.89-1.53,2.84-2.3"/>
      <path class="cls-2" d="m164.71,13.55c3.21.78,7.03,2.18,7.55,5.44.61,3.82-3.74,6.34-5.78,9.62-.55.89-.66,2.45.37,2.61-1.3,1.01-3.3.49-4.45-.68-1.15-1.18-1.65-2.82-2.12-4.39-.81,3.69-4.76,5.64-8.24,7.1-3.48,1.47-7.41,3.52-8.07,7.24-5.53-8.35-3.54-20.8,4.32-27.02-2.49.05-4.94,1.31-6.41,3.32-.47.64-.86,1.37-1.49,1.86-1.47,1.15-3.59.61-5.36.02,1.49-.23,2.57-1.63,2.96-3.08s.27-2.99.29-4.5c.05-3.75,1.54-8.06,5.13-9.16,2.57-.79,5.3.37,7.65,1.67,2.65,1.47,5.49,3.75,5.27,6.77,1.84-.51,3.58-1.69,4.38-3.43s.45-4.04-1.06-5.21c.1-.67,1.04-.94,1.63-.6s.88,1.03,1.03,1.7c.84,3.71-1.72,7.85-5.41,8.75,2.77.04,5.53.75,7.98,2.05"/>
    </g>
    <g>
      <path class="cls-2" d="m255.34,15.52c.95-2.18,3.26-3.68,5.64-3.67s4.67,1.54,5.61,3.72c.47,1.1.61,2.33,1.17,3.4.56,1.06,1.76,1.96,2.9,1.59-1.44,2.08-4.58,2.75-6.74,1.43,3.94,5.05,2.13,12.59-1.46,17.9-.79,1.17-1.68,2.34-1.9,3.73s.53,3.06,1.92,3.28c-3.05-.92-6.17-1.88-8.74-3.78s-4.49-4.97-4.16-8.14c.41-3.94,4.07-6.97,4.43-10.91-1.92,2.42-5.24,3.64-8.27,3.04.79-.36.98-1.45.72-2.28s-.86-1.51-1.27-2.27c-1.03-1.88-.86-4.46.69-5.95s4.44-1.39,5.64.39c-.46-3.07-2.29-6.34-5.34-6.91-2-.37-3.99.5-5.99.82-2.01.31-4.53-.29-5.09-2.24-.09-.3-.11-.65.09-.89.46-.57,1.32.03,1.95.39,2.13,1.22,4.63-.74,7.06-1.08,2.47-.35,4.93,1.11,6.38,3.14,1.45,2.03,2.05,4.53,2.42,6.99.95-.77,1.89-1.53,2.84-2.3"/>
      <path class="cls-2" d="m237.76,20.09c3.21.78,7.03,2.18,7.55,5.44.61,3.82-3.74,6.34-5.78,9.62-.55.89-.66,2.45.37,2.61-1.3,1.01-3.3.49-4.45-.68s-1.65-2.82-2.12-4.39c-.81,3.69-4.76,5.64-8.24,7.1s-7.41,3.52-8.07,7.24c-5.53-8.35-3.54-20.8,4.32-27.02-2.49.05-4.94,1.31-6.41,3.32-.47.64-.86,1.37-1.49,1.86-1.47,1.15-3.59.61-5.36.02,1.49-.23,2.57-1.63,2.96-3.08s.27-2.99.29-4.5c.05-3.75,1.54-8.06,5.13-9.16,2.57-.79,5.3.37,7.65,1.67,2.65,1.47,5.49,3.75,5.27,6.77,1.84-.51,3.58-1.69,4.38-3.43s.45-4.04-1.06-5.21c.1-.67,1.04-.94,1.63-.6s.88,1.03,1.03,1.7c.84,3.71-1.72,7.85-5.41,8.75,2.77.04,5.53.75,7.98,2.05"/>
    </g>
    <g class="cls-3">
      <path class="cls-2" d="m81.44,14.15c1.15-2.64,3.96-4.46,6.83-4.45s5.67,1.86,6.8,4.51c.57,1.34.74,2.83,1.42,4.12.67,1.29,2.13,2.38,3.51,1.92-1.75,2.52-5.55,3.33-8.17,1.74,4.77,6.13,2.58,15.26-1.77,21.7-.96,1.41-2.03,2.84-2.3,4.52-.27,1.69.64,3.71,2.33,3.97-3.7-1.12-7.48-2.27-10.59-4.58s-5.45-6.02-5.04-9.87c.5-4.77,4.94-8.44,5.37-13.22-2.32,2.93-6.35,4.41-10.02,3.68.96-.44,1.19-1.75.87-2.76s-1.04-1.83-1.54-2.75c-1.25-2.28-1.04-5.41.84-7.21s5.38-1.68,6.84.48c-.56-3.73-2.77-7.69-6.48-8.37-2.42-.45-4.83.61-7.26.99-2.43.38-5.49-.35-6.17-2.71-.1-.36-.13-.79.11-1.08.55-.69,1.59.03,2.36.47,2.58,1.48,5.62-.89,8.56-1.31,2.99-.42,5.97,1.35,7.73,3.8s2.49,5.49,2.94,8.48c1.15-.93,2.29-1.85,3.44-2.78"/>
      <path class="cls-2" d="m60.13,19.69c3.89.94,8.52,2.65,9.15,6.6.74,4.63-4.53,7.68-7,11.66-.67,1.08-.81,2.97.45,3.17-1.57,1.22-4,.6-5.39-.83-1.39-1.43-2-3.42-2.56-5.33-.98,4.47-5.77,6.83-9.99,8.61-4.22,1.78-8.98,4.27-9.79,8.78-6.7-10.12-4.29-25.22,5.23-32.75-3.02.06-5.98,1.59-7.77,4.03-.57.78-1.04,1.65-1.8,2.25-1.78,1.39-4.35.74-6.49.03,1.81-.28,3.11-1.97,3.59-3.74s.33-3.63.35-5.45c.06-4.54,1.87-9.77,6.22-11.1,3.11-.95,6.43.44,9.28,2.02,3.21,1.78,6.66,4.55,6.39,8.21,2.24-.62,4.34-2.05,5.3-4.16s.55-4.9-1.29-6.31c.12-.82,1.26-1.14,1.97-.73s1.07,1.25,1.25,2.05c1.02,4.49-2.08,9.51-6.56,10.61,3.36.04,6.71.9,9.67,2.48"/>
    </g>
  </g>
  <g>
    <g>
      <g>
        <path class="cls-2" d="m74.35,160.46c-1.75-3.26-7.04-3.68-10.3-1.92s-4.47,5.81-2.72,9.07,5.81,4.47,9.07,2.72,5.7-6.61,3.95-9.87Z"/>
        <path class="cls-1" d="m74.33,160.48c-.9-1.64-2.72-2.51-4.5-2.76-1.8-.24-3.68.05-5.28.83-1.61.78-2.82,2.23-3.33,3.9-.54,1.66-.35,3.52.52,5.02.81,1.53,2.29,2.68,3.98,3.11,1.68.46,3.56.21,5.08-.74,1.51-.95,2.72-2.41,3.46-4.07.71-1.65.96-3.64.09-5.3Zm.04-.02c.9,1.66.67,3.68-.03,5.36-.71,1.69-1.88,3.22-3.42,4.24-1.54,1.03-3.51,1.36-5.31.91-1.8-.43-3.4-1.64-4.28-3.27-.91-1.62-1.09-3.62-.49-5.37.57-1.76,1.91-3.25,3.6-4.01,1.68-.76,3.59-.98,5.41-.71,1.8.27,3.64,1.18,4.53,2.84Z"/>
      </g>
      <g>
        <path class="cls-2" d="m77.11,88.84c-1.75-3.26-7.04-3.68-10.3-1.92-3.26,1.75-4.47,5.81-2.72,9.07,1.75,3.26,5.81,4.47,9.07,2.72,3.26-1.75,5.7-6.61,3.95-9.87Z"/>
        <path class="cls-1" d="m77.09,88.85c-.9-1.64-2.72-2.51-4.5-2.76-1.8-.24-3.68.05-5.28.83-1.61.78-2.82,2.23-3.33,3.9-.54,1.66-.35,3.52.52,5.02.81,1.53,2.29,2.68,3.98,3.11,1.68.46,3.56.21,5.08-.74,1.51-.95,2.72-2.41,3.46-4.07.71-1.65.96-3.64.09-5.3Zm.04-.02c.9,1.66.67,3.68-.03,5.36-.71,1.69-1.88,3.22-3.42,4.24-1.54,1.03-3.51,1.36-5.31.91-1.8-.43-3.4-1.64-4.28-3.27-.91-1.62-1.09-3.62-.49-5.37.57-1.76,1.91-3.25,3.6-4.01,1.68-.76,3.59-.98,5.41-.71,1.8.27,3.64,1.18,4.53,2.84Z"/>
      </g>
      <path class="cls-2" d="m82.5,123.78c-.1-.05-.2-.1-.3-.15.84-1.35,1.34-2.77,1.34-4.13,0-2.59-.89-5.43-2.47-7.51,2.72-1.5,4.56-4.4,4.56-7.72,0-4.87-3.95-8.82-8.82-8.82-4.52,0-9.63,2.99-10.33,7.32-.69-.18-1.42-.27-2.17-.27-4.87,0-8.82,3.95-8.82,8.82s3.15,9.46,8.01,9.46c.22,0,.45-.01.67-.03.12,1.84.68,3.68,1.59,5.24-4.3-1.74-10.42-.97-12.56,3-2.31,4.29.92,10.69,5.2,12.99,3.39,1.82,7.43,1.2,10.12-1.25.87,1.29,2.02,2.39,3.27,3.06,3.56,1.92,8,.58,9.92-2.98,1.23-2.28,1.12-4.93-.06-7.04,1.27-.43,2.38-1.32,3.06-2.59,1.43-2.66.44-5.99-2.23-7.42Zm-12.29,6c.47.15.96.24,1.47.28-.39.09-.77.21-1.13.36-.1-.22-.22-.43-.34-.64Z"/>
      <path class="cls-2" d="m42.21,123.7c.67,1.28,1.78,2.17,3.04,2.62-1.2,2.1-1.33,4.74-.13,7.04,1.88,3.58,6.31,4.96,9.89,3.08,1.26-.66,2.41-1.75,3.3-3.03,2.66,2.48,6.7,3.14,10.11,1.35,4.31-2.26,7.6-8.63,5.33-12.94-2.1-3.99-8.21-4.82-12.53-3.12.93-1.55,1.5-3.39,1.64-5.23.22.02.45.04.67.04,4.87.05,8.06-4.51,8.11-9.38s-3.86-8.86-8.73-8.9c-.75,0-1.48.08-2.17.25-.66-4.34-5.74-7.38-10.26-7.43-4.87-.05-8.86,3.86-8.9,8.73-.03,3.32,1.78,6.23,4.48,7.76-1.59,2.07-2.51,4.89-2.54,7.48-.01,1.36.48,2.79,1.3,4.14-.1.05-.21.09-.3.14-2.68,1.41-3.71,4.72-2.3,7.4Zm14.19-.64c-.36-.15-.74-.27-1.13-.37.51-.03,1-.13,1.47-.27-.12.21-.24.42-.34.64Z"/>
      <path class="cls-2" d="m67.65,155.41c.93-1.55,1.5-3.39,1.64-5.23.22.02.45.04.67.04,4.87.05,8.06-4.51,8.11-9.38.05-4.87-3.86-8.86-8.73-8.9-.75,0-1.48.08-2.17.25-.66-4.34-5.74-7.38-10.26-7.43-4.87-.05-8.86,3.86-8.9,8.73-.03,3.32,1.78,6.23,4.48,7.76-1.59,2.07-2.51,4.89-2.54,7.48-.01,1.36.48,2.79,1.3,4.14-.1.05-.21.09-.3.14-2.68,1.41-3.71,4.72-2.3,7.4.67,1.28,1.78,2.17,3.04,2.62-1.2,2.1-1.33,4.74-.13,7.04,1.88,3.58,6.31,4.96,9.89,3.08,1.26-.66,2.41-1.75,3.3-3.03m-1.91-10.34c-.36-.15-.74-.27-1.13-.37.51-.03,1-.13,1.47-.27-.12.21-.24.42-.34.64Z"/>
      <g>
        <path class="cls-2" d="m56.46,95.34c1.98-3.67,7.94-4.15,11.61-2.17,3.67,1.98,5.05,6.56,3.07,10.23s-6.56,5.05-10.23,3.07-6.43-7.46-4.46-11.13Z"/>
        <path class="cls-1" d="m56.44,95.32c.99-1.88,3.06-2.93,5.09-3.25,2.06-.35,4.23-.16,6.18.68,1.96.83,3.58,2.52,4.28,4.58.72,2.05.53,4.41-.53,6.33-1.06,1.92-2.96,3.33-5.07,3.82-2.12.5-4.41.04-6.16-1.18-1.75-1.22-3.03-2.99-3.81-4.92-.78-1.91-1.01-4.2.01-6.06Zm.04.02c-1,1.85-.74,4.12.05,6,.8,1.9,2.12,3.61,3.84,4.75,1.72,1.14,3.93,1.52,5.93,1.01,2-.49,3.78-1.84,4.77-3.66,1.01-1.8,1.22-4.03.56-5.98-.64-1.96-2.13-3.63-4.01-4.48-1.88-.86-4.02-1.11-6.06-.81-2.02.3-4.08,1.31-5.07,3.17Z"/>
      </g>
      <g>
        <path class="cls-2" d="m77.85,103.49c-1.92-3.56-7.7-4.02-11.26-2.1-3.56,1.92-4.9,6.36-2.98,9.92,1.92,3.56,6.36,4.9,9.92,2.98,3.56-1.92,6.24-7.23,4.32-10.79Z"/>
        <path class="cls-1" d="m77.65,103.6c-.91-1.73-2.84-2.7-4.76-3-1.94-.3-3.99-.07-5.79.74-1.8.8-3.23,2.38-3.85,4.25-.64,1.87-.46,4,.5,5.73.94,1.75,2.64,3.06,4.57,3.53,1.93.5,4.05.15,5.72-.95,1.67-1.1,2.96-2.75,3.74-4.59.77-1.82,1.03-4.02.07-5.83l-.2.11Zm.2-.11c.98,1.8.75,4.01-.01,5.85-.77,1.86-2.05,3.53-3.73,4.66-1.68,1.13-3.85,1.51-5.83,1.02-1.98-.47-3.75-1.8-4.73-3.59-1.01-1.78-1.23-3.99-.58-5.94.62-1.95,2.1-3.62,3.98-4.47,1.86-.86,3.97-1.12,6-.82,2,.29,4.08,1.29,5.1,3.18l-.2.11Z"/>
      </g>
      <g>
        <g>
          <path class="cls-2" d="m56.62,159.3c0-3.66,2.37-7.11,6.03-7.11,3.66,0,7.24,3.45,7.24,7.11s-2.97,6.63-6.63,6.63c-3.66,0-6.63-2.97-6.63-6.63Z"/>
          <path class="cls-1" d="m56.39,159.3c.01-1.81.58-3.63,1.71-5.06,1.12-1.44,2.94-2.33,4.77-2.22,1.82.08,3.53.94,4.81,2.19,1.28,1.25,2.19,2.93,2.29,4.74.1,1.79-.58,3.61-1.8,4.9-1.22,1.31-2.97,2.1-4.75,2.12-1.78.04-3.56-.66-4.82-1.91-1.27-1.24-2-3-1.99-4.77h-.23Zm.23,0c0,1.77.75,3.51,2.03,4.73,1.26,1.23,3.02,1.9,4.77,1.84,1.75-.04,3.46-.83,4.63-2.12,1.18-1.28,1.81-3.04,1.7-4.77-.27-3.47-3.45-6.46-6.89-6.6-1.72-.08-3.4.76-4.44,2.12-1.05,1.35-1.57,3.09-1.57,4.81h-.23Z"/>
        </g>
        <g>
          <path class="cls-2" d="m54.9,149.19c1.74,3.23,6.97,3.64,10.2,1.91,3.23-1.74,4.43-5.76,2.7-8.98s-5.76-4.43-8.98-2.7-5.65,6.55-3.91,9.78Z"/>
          <path class="cls-1" d="m55.1,149.08c.82,1.56,2.56,2.44,4.3,2.71,1.76.27,3.61.07,5.23-.66,1.63-.72,2.92-2.14,3.48-3.84.58-1.69.42-3.62-.45-5.18-.85-1.58-2.39-2.76-4.13-3.2-1.74-.45-3.67-.14-5.18.86-1.51.99-2.68,2.49-3.39,4.15-.7,1.65-.93,3.64-.06,5.28l.2-.11Zm-.2.11c-.89-1.63-.68-3.63,0-5.3.7-1.68,1.85-3.2,3.38-4.22,1.53-1.03,3.49-1.37,5.28-.93,1.8.43,3.4,1.63,4.29,3.25.92,1.61,1.11,3.62.52,5.38-.57,1.77-1.91,3.28-3.61,4.06-1.69.78-3.6,1.01-5.44.75-1.81-.26-3.7-1.17-4.64-2.89l.2-.11Z"/>
        </g>
        <g>
          <path class="cls-2" d="m50.38,137.33c1.74,3.23,6.97,3.64,10.2,1.91s4.43-5.76,2.7-8.98c-1.74-3.23-5.76-4.43-8.98-2.7-3.23,1.74-5.65,6.55-3.91,9.78Z"/>
          <path class="cls-1" d="m50.58,137.22c.82,1.56,2.56,2.44,4.3,2.71,1.76.27,3.61.07,5.23-.66,1.63-.72,2.92-2.14,3.48-3.84.58-1.69.42-3.62-.45-5.18-.85-1.58-2.39-2.77-4.13-3.2-1.74-.45-3.67-.14-5.18.86-1.51.99-2.68,2.49-3.39,4.15-.7,1.65-.93,3.64-.06,5.28l.2-.11Zm-.2.11c-.89-1.63-.68-3.63,0-5.3.7-1.68,1.85-3.2,3.38-4.22,1.53-1.03,3.49-1.37,5.28-.93,1.8.42,3.4,1.63,4.29,3.25.92,1.61,1.11,3.62.52,5.38-.57,1.77-1.91,3.28-3.61,4.06-1.69.78-3.6,1.01-5.44.75-1.81-.26-3.7-1.17-4.64-2.89l.2-.11Z"/>
        </g>
        <g>
          <path class="cls-2" d="m65.64,142.99c1.44,2.68,5.79,3.02,8.47,1.58s3.68-4.78,2.24-7.46-4.78-3.68-7.46-2.24-4.69,5.44-3.25,8.12Z"/>
          <path class="cls-1" d="m65.84,142.88c.67,1.28,2.1,2.01,3.54,2.24,1.45.23,2.99.06,4.33-.54,1.34-.6,2.41-1.77,2.88-3.17.48-1.39.35-2.99-.37-4.29-.7-1.31-1.97-2.29-3.42-2.65-1.44-.38-3.04-.12-4.29.71-1.26.82-2.22,2.06-2.81,3.44-.58,1.37-.78,3.02-.06,4.38l.2-.11Zm-.2.11c-.74-1.35-.57-3.02,0-4.4.58-1.4,1.54-2.66,2.8-3.52,1.27-.86,2.9-1.15,4.4-.78,1.5.35,2.83,1.35,3.58,2.71.77,1.34.93,3.02.44,4.49-.47,1.48-1.59,2.74-3.01,3.39-1.41.65-3,.85-4.54.63-1.51-.22-3.1-.97-3.88-2.41l.2-.11Z"/>
        </g>
        <g>
          <path class="cls-2" d="m63.13,152.79c0-3.66,2.37-7.6,6.03-7.6,3.66,0,7.24,3.93,7.24,7.6,0,3.66-2.97,6.63-6.63,6.63-3.66,0-6.63-2.97-6.63-6.63Z"/>
          <path class="cls-1" d="m62.9,152.79c.02-1.84.57-3.67,1.63-5.18,1.03-1.5,2.77-2.65,4.66-2.59,1.88.02,3.58,1.01,4.85,2.29,1.27,1.29,2.21,2.96,2.42,4.79.2,1.82-.41,3.69-1.61,5.06-1.19,1.38-2.95,2.23-4.76,2.3-1.81.09-3.63-.59-4.93-1.85-1.31-1.24-2.07-3.03-2.05-4.82h-.23Zm.23,0c0,1.8.78,3.57,2.09,4.78,1.3,1.23,3.1,1.89,4.88,1.77,1.78-.09,3.49-.95,4.63-2.3,1.16-1.34,1.72-3.17,1.51-4.92-.23-1.75-1.16-3.37-2.4-4.61-1.24-1.23-2.9-2.15-4.65-2.15-1.76-.03-3.36,1.04-4.33,2.48-.99,1.44-1.5,3.2-1.5,4.94h-.23Z"/>
        </g>
      </g>
      <g>
        <path class="cls-2" d="m56.2,100.17c-1.28-2.38-5.14-2.68-7.52-1.4s-3.27,4.24-1.99,6.62c1.28,2.38,4.24,3.27,6.62,1.99s4.16-4.83,2.89-7.2Z"/>
        <path class="cls-1" d="m56.18,100.18c-.66-1.19-1.99-1.82-3.29-1.99-1.31-.16-2.68.06-3.83.64-2.36,1.13-3.28,4.26-1.98,6.41,1.13,2.23,4.26,3.13,6.48,1.74,1.1-.67,1.99-1.73,2.54-2.93.52-1.2.71-2.65.08-3.86Zm.04-.02c.66,1.21.49,2.69-.02,3.92-.52,1.24-1.38,2.35-2.5,3.1-1.13.75-2.57,1-3.88.67-1.32-.32-2.49-1.2-3.14-2.39-.66-1.18-.8-2.65-.36-3.93.42-1.29,1.4-2.38,2.63-2.93,1.23-.56,2.62-.72,3.95-.52,1.31.2,2.66.86,3.31,2.08Z"/>
      </g>
      <g>
        <path class="cls-2" d="m65.6,110.14c0,3.61-2.33,7-5.94,7s-7.12-3.4-7.12-7,2.92-6.53,6.53-6.53,6.53,2.92,6.53,6.53Z"/>
        <path class="cls-1" d="m65.83,110.14c-.01,1.78-.57,3.57-1.69,4.98-1.1,1.41-2.9,2.29-4.7,2.18-1.79-.08-3.48-.93-4.74-2.16-1.26-1.23-2.16-2.89-2.26-4.67-.1-1.77.57-3.55,1.78-4.83,1.2-1.29,2.93-2.07,4.68-2.09,1.75-.04,3.5.65,4.74,1.88,1.25,1.22,1.97,2.95,1.95,4.69h.23Zm-.23,0c0-1.74-.74-3.46-1.99-4.65-1.24-1.21-2.98-1.87-4.7-1.81-1.72.04-3.41.82-4.56,2.09-1.16,1.26-1.79,3-1.67,4.7.27,3.42,3.4,6.35,6.78,6.49,1.69.08,3.35-.75,4.37-2.09,1.04-1.33,1.55-3.04,1.54-4.73h.23Z"/>
      </g>
      <g>
        <path class="cls-2" d="m73.84,113.53c-1.9-3.52-7.62-3.98-11.14-2.08s-4.84,6.29-2.95,9.81,6.29,4.84,9.81,2.95,6.17-7.15,4.27-10.68Z"/>
        <path class="cls-1" d="m73.64,113.64c-.9-1.71-2.81-2.67-4.71-2.97-1.92-.3-3.95-.07-5.73.73-1.78.79-3.19,2.35-3.81,4.2-.64,1.85-.46,3.96.5,5.67.93,1.73,2.61,3.02,4.52,3.5,1.9.49,4.01.15,5.66-.94,1.65-1.09,2.92-2.72,3.7-4.54.77-1.8,1.02-3.97.06-5.76l-.2.11Zm.2-.11c.97,1.78.74,3.97-.01,5.78-.76,1.84-2.02,3.49-3.69,4.61-1.67,1.12-3.81,1.5-5.76,1.01-1.96-.46-3.71-1.78-4.68-3.55-1-1.76-1.21-3.95-.57-5.87.62-1.93,2.08-3.58,3.93-4.42,1.84-.85,3.93-1.1,5.93-.81,1.98.29,4.03,1.28,5.05,3.15l-.2.11Z"/>
      </g>
      <path class="cls-2" d="m72.41,123.57c-1.9-3.52-7.62-3.98-11.14-2.08s-4.84,6.29-2.95,9.81,6.29,4.84,9.81,2.95,6.17-7.15,4.27-10.68Z"/>
      <g>
        <path class="cls-2" d="m89.45,124.55c-1.9-3.52-7.62-3.98-11.14-2.08s-4.84,6.29-2.95,9.81c1.9,3.52,6.29,4.84,9.81,2.95s6.17-7.15,4.27-10.68Z"/>
        <path class="cls-1" d="m89.25,124.66c-.9-1.71-2.81-2.67-4.71-2.97-1.92-.3-3.95-.07-5.73.73-1.78.79-3.19,2.35-3.81,4.2-.64,1.85-.46,3.96.5,5.67.93,1.73,2.61,3.02,4.52,3.5,1.9.49,4.01.15,5.66-.94,1.65-1.09,2.92-2.72,3.7-4.54.77-1.8,1.02-3.97.06-5.76l-.2.11Zm.2-.11c.97,1.78.74,3.97-.01,5.78-.76,1.84-2.02,3.49-3.69,4.61-1.67,1.12-3.81,1.5-5.76,1.01-1.96-.46-3.71-1.78-4.68-3.55-1-1.76-1.21-3.95-.57-5.87.62-1.93,2.08-3.58,3.93-4.42,1.84-.85,3.93-1.1,5.93-.81,1.98.29,4.03,1.28,5.05,3.15l-.2.11Z"/>
      </g>
      <g>
        <path class="cls-2" d="m52.72,112.61c-1.9-3.52-7.62-3.98-11.14-2.08-3.52,1.9-4.84,6.29-2.95,9.81,1.9,3.52,6.29,4.84,9.81,2.95,3.52-1.9,6.17-7.15,4.27-10.68Z"/>
        <path class="cls-1" d="m52.52,112.72c-.9-1.71-2.81-2.67-4.71-2.97-1.92-.3-3.95-.07-5.73.73-1.78.79-3.19,2.35-3.81,4.2-.64,1.85-.46,3.96.5,5.67.93,1.73,2.61,3.02,4.52,3.5,1.9.49,4.01.15,5.66-.94,1.65-1.09,2.92-2.72,3.7-4.54.77-1.8,1.02-3.97.06-5.76l-.2.11Zm.2-.11c.97,1.78.74,3.97-.01,5.78-.76,1.84-2.02,3.49-3.69,4.61-1.67,1.12-3.81,1.5-5.76,1.01-1.96-.46-3.71-1.78-4.68-3.55-1-1.76-1.21-3.95-.57-5.87.62-1.93,2.08-3.58,3.93-4.42,1.84-.85,3.93-1.1,5.93-.81,1.98.29,4.03,1.28,5.05,3.15l-.2.11Z"/>
      </g>
      <path class="cls-2" d="m59.51,104.93c-1.9-3.52-7.62-3.98-11.14-2.08-3.52,1.9-4.84,6.29-2.95,9.81s6.29,4.84,9.81,2.95c3.52-1.9,6.17-7.15,4.27-10.68Z"/>
      <path class="cls-2" d="m73.84,136.47c-1.9-3.52-7.62-3.98-11.14-2.08s-4.84,6.29-2.95,9.81,6.29,4.84,9.81,2.95c3.52-1.9,6.17-7.15,4.27-10.68Z"/>
      <path class="cls-2" d="m68.11,152.24c-1.9-3.52-7.62-3.98-11.14-2.08s-4.84,6.29-2.95,9.81,6.29,4.84,9.81,2.95,6.17-7.15,4.27-10.68Z"/>
      <path class="cls-2" d="m70.98,99.2c-1.9-3.52-7.62-3.98-11.14-2.08-3.52,1.9-4.84,6.29-2.95,9.81,1.9,3.52,6.29,4.84,9.81,2.95s6.17-7.15,4.27-10.68Z"/>
      <path class="cls-2" d="m85.31,113.53c-1.9-3.52-7.62-3.98-11.14-2.08s-4.84,6.29-2.95,9.81c1.9,3.52,6.29,4.84,9.81,2.95,3.52-1.9,6.17-7.15,4.27-10.68Z"/>
      <path class="cls-2" d="m62.37,137.91c-1.9-3.52-7.62-3.98-11.14-2.08s-4.84,6.29-2.95,9.81c1.9,3.52,6.29,4.84,9.81,2.95s6.17-7.15,4.27-10.68Z"/>
    </g>
    <g class="cls-5">
      <path class="cls-2" d="m92,83.98c1.22-1.55,3.77-1.4,5.35-.21s2.43,3.08,3.21,4.9c1.34,3.08,2.67,6.16,4.01,9.24-2.31-.3-4.54-1.17-6.43-2.53,1.61,3.24.35,7.19-1.54,10.27-1.89,3.09-4.41,5.85-5.58,9.27-1.07,3.12-.9,6.57-.07,9.76-2.9-4.32-5.79-8.64-8.69-12.96-.97-1.44-1.95-2.93-2.35-4.62-.73-3.13.65-6.4.22-9.58-1.91,2.32-3.77,4.68-5.58,7.08-1.23-3.8-2.47-7.69-2.42-11.68s1.6-8.19,4.92-10.42c3.32-2.22,8.51-1.68,10.58,1.74-.83-2.71,1.07-5.72.16-8.41-1.03-3.08-4.89-3.88-8.04-4.65-3.15-.77-6.85-3.1-6.09-6.26,1.24,1.07,1.22,3.13,2.46,4.21,1.11.96,2.76.78,4.23.91,5.35.49,9.25,6.84,7.28,11.83-.27.68-.63,1.39-.43,2.1.26.94,1.45,1.35,2.4,1.1s1.68-.96,2.38-1.64"/>
    </g>
    <path class="cls-2" d="m84.04,111.18c.76-2.09-.36-4.35-1.46-6.28-2.79-4.93-5.57-9.87-8.36-14.8-.86-1.52-1.72-3.06-2.1-4.76-1.32-5.98,3.84-11.56,9.4-14.11,2.9-1.33,6.09-2.24,8.48-4.36s3.62-6.05,1.59-8.51c1.24,2.15,2.02,4.58,2.24,7.05,8.45-1.66,18-3.1,24.99,1.93,2.4,1.73,4.27,4.1,6.51,6.03,4.93,4.26,11.72,6.27,18.17,5.38-9.16,6.45-21.57,5.73-32.43,2.96-1.9-.49-3.82-1.04-5.44-2.15-3.65-2.49-6.47-7.85-10.73-6.7,1.27-1.19.32-3.54-1.3-4.17s-3.44-.07-5.04.59c-5.85,2.44-11.46,7.11-12.22,13.41-1.18,9.78,9.52,17.67,9.41,27.52-.01.96-.7,2.25-1.54,1.79"/>
    <path class="cls-2" d="m42.19,79.7c-1.22-1.82-.3-4.46,1.45-5.77s4.05-1.61,6.24-1.7c2.98-.13,6.27.15,8.43,2.21,3.63,3.47,1.93,9.71-1.19,13.64s-7.47,7.09-9.2,11.8c-1.81,4.91-.08,10.9,4.07,14.09-7.06-1.2-13.56-5.41-17.55-11.35-2.1,5.36-7.35,9.34-13.08,9.92-2.53.26-5.18-.09-7.57.78-5.35,1.94-6.88,8.63-7.62,14.27-4.39-2.99-5.66-8.95-5.32-14.24s1.9-10.51,1.66-15.81c-.11-2.45-.61-4.92-.2-7.34,1.25-7.36,10.07-10.8,17.53-10.64-6.31-1.61-13.04-1.48-19.28.37,4.96-1.23,9.53-4.01,12.91-7.84,1.31-1.48,2.48-3.16,4.2-4.14,1.87-1.06,4.12-1.16,6.27-1.22,2.77-.08,5.55-.17,8.32-.25,1.82-.06,3.73-.09,5.32.8s2.6,3.06,1.62,4.59c-.9,1.41-3.22,2.77-2.1,4.01.99,1.09,2.54-.49,3.71-1.39,2.47-1.9,6.13-.39,8.36,1.78s3.97,5.01,6.79,6.32c3.34,1.54,7.24.52,10.9.83s7.82,3.46,6.53,6.91c-2.27-2.88-5.81-4.71-9.46-4.9-2.47-.13-4.97.45-7.42.06-5.36-.85-8.87-5.92-11.72-10.54-.82.03-1.57.73-1.65,1.55"/>
    <g>
      <path class="cls-2" d="m88.29,56.98c.95-2.18,3.26-3.68,5.64-3.67s4.67,1.54,5.61,3.72c.47,1.1.61,2.33,1.17,3.4s1.76,1.96,2.9,1.59c-1.44,2.08-4.58,2.75-6.74,1.43,3.94,5.05,2.13,12.59-1.46,17.9-.79,1.17-1.68,2.34-1.9,3.73s.53,3.06,1.92,3.28c-3.05-.92-6.17-1.88-8.74-3.78s-4.49-4.97-4.16-8.14c.41-3.94,4.07-6.97,4.43-10.91-1.92,2.42-5.24,3.64-8.27,3.04.79-.36.98-1.45.72-2.28s-.86-1.51-1.27-2.27c-1.03-1.88-.86-4.46.69-5.95,1.55-1.48,4.44-1.39,5.64.39-.46-3.07-2.29-6.34-5.34-6.91-2-.37-3.99.5-5.99.82s-4.53-.29-5.09-2.24c-.09-.3-.11-.65.09-.89.46-.57,1.32.03,1.95.39,2.13,1.22,4.63-.74,7.06-1.08,2.47-.35,4.93,1.11,6.38,3.14s2.05,4.53,2.42,6.99c.95-.77,1.89-1.53,2.84-2.3"/>
      <path class="cls-2" d="m70.71,61.55c3.21.78,7.03,2.18,7.55,5.44.61,3.82-3.74,6.34-5.78,9.62-.55.89-.66,2.45.37,2.61-1.3,1.01-3.3.49-4.45-.68-1.15-1.18-1.65-2.82-2.12-4.39-.81,3.69-4.76,5.64-8.24,7.1-3.48,1.47-7.41,3.52-8.07,7.24-5.53-8.35-3.54-20.8,4.32-27.02-2.49.05-4.94,1.31-6.41,3.32-.47.64-.86,1.37-1.49,1.86-1.47,1.15-3.59.61-5.36.02,1.49-.23,2.57-1.63,2.96-3.08s.27-2.99.29-4.5c.05-3.75,1.54-8.06,5.13-9.16,2.57-.79,5.3.37,7.65,1.67,2.65,1.47,5.49,3.75,5.27,6.77,1.84-.51,3.58-1.69,4.38-3.43s.45-4.04-1.06-5.21c.1-.67,1.04-.94,1.63-.6s.88,1.03,1.03,1.7c.84,3.71-1.72,7.85-5.41,8.75,2.77.04,5.53.75,7.98,2.05"/>
    </g>
    <g>
      <path class="cls-2" d="m161.34,63.52c.95-2.18,3.26-3.68,5.64-3.67s4.67,1.54,5.61,3.72c.47,1.1.61,2.33,1.17,3.4.56,1.06,1.76,1.96,2.9,1.59-1.44,2.08-4.58,2.75-6.74,1.43,3.94,5.05,2.13,12.59-1.46,17.9-.79,1.17-1.68,2.34-1.9,3.73s.53,3.06,1.92,3.28c-3.05-.92-6.17-1.88-8.74-3.78s-4.49-4.97-4.16-8.14c.41-3.94,4.07-6.97,4.43-10.91-1.92,2.42-5.24,3.64-8.27,3.04.79-.36.98-1.45.72-2.28s-.86-1.51-1.27-2.27c-1.03-1.88-.86-4.46.69-5.95s4.44-1.39,5.64.39c-.46-3.07-2.29-6.34-5.34-6.91-2-.37-3.99.5-5.99.82-2.01.31-4.53-.29-5.09-2.24-.09-.3-.11-.65.09-.89.46-.57,1.32.03,1.95.39,2.13,1.22,4.63-.74,7.06-1.08,2.47-.35,4.93,1.11,6.38,3.14,1.45,2.03,2.05,4.53,2.42,6.99.95-.77,1.89-1.53,2.84-2.3"/>
      <g class="cls-4">
        <path class="cls-2" d="m143.76,68.09c3.21.78,7.03,2.18,7.55,5.44.61,3.82-3.74,6.34-5.78,9.62-.55.89-.66,2.45.37,2.61-1.3,1.01-3.3.49-4.45-.68s-1.65-2.82-2.12-4.39c-.81,3.69-4.76,5.64-8.24,7.1s-7.41,3.52-8.07,7.24c-5.53-8.35-3.54-20.8,4.32-27.02-2.49.05-4.94,1.31-6.41,3.32-.47.64-.86,1.37-1.49,1.86-1.47,1.15-3.59.61-5.36.02,1.49-.23,2.57-1.63,2.96-3.08s.27-2.99.29-4.5c.05-3.75,1.54-8.06,5.13-9.16,2.57-.79,5.3.37,7.65,1.67,2.65,1.47,5.49,3.75,5.27,6.77,1.84-.51,3.58-1.69,4.38-3.43s.45-4.04-1.06-5.21c.1-.67,1.04-.94,1.63-.6s.88,1.03,1.03,1.7c.84,3.71-1.72,7.85-5.41,8.75,2.77.04,5.53.75,7.98,2.05"/>
      </g>
    </g>
  </g>
</svg>