<?xml version="1.0" encoding="UTF-8"?>
<svg id="_レイヤー_1" data-name="レイヤー 1" xmlns="http://www.w3.org/2000/svg" viewBox="0 0 1170 91">
  <defs>
    <style>
      .cls-1 {
        stroke-dasharray: 0 0 .87 5.44;
      }

      .cls-1, .cls-2 {
        fill: none;
        stroke: #787100;
        stroke-miterlimit: 10;
        stroke-width: .87px;
      }
    </style>
  </defs>
  <g>
    <line class="cls-2" y1="35.25" x2=".43" y2="35.25"/>
    <path class="cls-1" d="m5.87,35.25h414.19s76,0,187.92,25.63c0,0,88.43,30.03,240.43,29.3,139.83-.67,293.7-.11,317.43-.01"/>
    <path class="cls-2" d="m1168.57,90.18c.28,0,.43,0,.43,0"/>
  </g>
  <g>
    <line class="cls-2" y1="26.64" x2=".43" y2="26.64"/>
    <path class="cls-1" d="m5.87,26.64h414.19s76,0,187.92,25.63c0,0,88.43,30.03,240.43,29.3,139.83-.67,293.7-.11,317.43-.01"/>
    <path class="cls-2" d="m1168.57,81.57c.28,0,.43,0,.43,0"/>
  </g>
  <g>
    <line class="cls-2" y1="18.04" x2=".43" y2="18.04"/>
    <path class="cls-1" d="m5.87,18.04h414.19s76,0,187.92,25.63c0,0,88.43,30.03,240.43,29.3,139.83-.67,293.7-.11,317.43-.01"/>
    <path class="cls-2" d="m1168.57,72.97c.28,0,.43,0,.43,0"/>
  </g>
  <g>
    <line class="cls-2" y1="9.43" x2=".43" y2="9.43"/>
    <path class="cls-1" d="m5.87,9.43h414.19s76,0,187.92,25.63c0,0,88.43,30.03,240.43,29.3,139.83-.67,293.7-.11,317.43-.01"/>
    <path class="cls-2" d="m1168.57,64.36c.28,0,.43,0,.43,0"/>
  </g>
  <g>
    <line class="cls-2" y1=".83" x2=".43" y2=".83"/>
    <path class="cls-1" d="m5.87.83h414.19s76,0,187.92,25.63c0,0,88.43,30.03,240.43,29.3,139.83-.67,293.7-.11,317.43-.01"/>
    <path class="cls-2" d="m1168.57,55.75c.28,0,.43,0,.43,0"/>
  </g>
</svg>