<?xml version="1.0" encoding="UTF-8"?>
<svg id="_レイヤー_1" data-name="レイヤー 1" xmlns="http://www.w3.org/2000/svg" viewBox="0 0 227 116">
  <defs>
    <style>
      .cls-1 {
        fill: #fff;
      }

      .cls-2 {
        fill: #787100;
      }

      .cls-3 {
        opacity: .48;
      }

      .cls-4 {
        opacity: .49;
      }
    </style>
  </defs>
  <g>
    <g>
      <path class="cls-2" d="m132.41,103.19c-1.61-2.99-6.46-3.37-9.44-1.76-2.99,1.61-4.1,5.33-2.5,8.32s5.33,4.1,8.32,2.5,5.23-6.06,3.62-9.05Z"/>
      <path class="cls-1" d="m132.4,103.2c-.82-1.5-2.5-2.3-4.13-2.53-1.65-.22-3.37.04-4.85.76-1.48.71-2.59,2.05-3.05,3.58-.5,1.52-.32,3.23.47,4.61.74,1.4,2.1,2.46,3.65,2.85,1.54.43,3.27.2,4.65-.68,1.39-.87,2.5-2.21,3.17-3.74.65-1.51.88-3.34.08-4.86Zm.04-.02c.82,1.52.62,3.38-.03,4.91-.65,1.55-1.73,2.95-3.14,3.89-1.41.94-3.22,1.25-4.87.84-1.65-.4-3.11-1.51-3.93-3-.83-1.48-1-3.32-.45-4.92.53-1.61,1.75-2.98,3.3-3.67,1.54-.7,3.29-.9,4.96-.65,1.65.25,3.34,1.08,4.15,2.61Z"/>
    </g>
    <g>
      <path class="cls-2" d="m134.94,37.5c-1.61-2.99-6.46-3.37-9.44-1.76s-4.1,5.33-2.5,8.32c1.61,2.99,5.33,4.1,8.32,2.5s5.23-6.06,3.62-9.05Z"/>
      <path class="cls-1" d="m134.92,37.51c-.82-1.5-2.5-2.3-4.13-2.53-1.65-.22-3.37.04-4.85.76-1.48.71-2.59,2.05-3.05,3.58-.5,1.52-.32,3.23.47,4.61.74,1.4,2.1,2.46,3.65,2.85,1.54.43,3.27.2,4.65-.68,1.39-.87,2.5-2.21,3.17-3.74.65-1.51.88-3.34.08-4.86Zm.04-.02c.82,1.52.62,3.38-.03,4.91-.65,1.55-1.73,2.95-3.14,3.89-1.41.94-3.22,1.25-4.87.84-1.65-.4-3.11-1.51-3.93-3-.83-1.48-1-3.32-.45-4.92.53-1.61,1.75-2.98,3.3-3.67,1.54-.7,3.29-.9,4.96-.65,1.65.25,3.34,1.08,4.15,2.61Z"/>
    </g>
    <path class="cls-2" d="m139.89,69.55c-.09-.05-.18-.09-.28-.13.77-1.24,1.23-2.54,1.23-3.79,0-2.38-.82-4.98-2.26-6.89,2.49-1.38,4.18-4.03,4.18-7.08,0-4.47-3.62-8.09-8.09-8.09-4.15,0-8.84,2.75-9.48,6.72-.64-.16-1.3-.25-1.99-.25-4.47,0-8.09,3.62-8.09,8.09s2.89,8.67,7.35,8.67c.2,0,.41-.01.61-.03.11,1.69.62,3.38,1.46,4.81-3.94-1.59-9.56-.89-11.52,2.75-2.12,3.93.84,9.8,4.77,11.92,3.11,1.67,6.82,1.1,9.28-1.15.8,1.19,1.85,2.19,3,2.81,3.27,1.76,7.34.54,9.1-2.73,1.13-2.1,1.03-4.52-.05-6.46,1.16-.39,2.18-1.21,2.81-2.37,1.31-2.44.4-5.49-2.04-6.81Zm-11.27,5.51c.43.13.88.22,1.34.26-.36.09-.7.2-1.04.33-.1-.2-.2-.4-.31-.59Z"/>
    <path class="cls-2" d="m102.94,69.47c.61,1.17,1.63,1.99,2.78,2.4-1.1,1.92-1.22,4.35-.12,6.46,1.73,3.28,5.79,4.55,9.07,2.82,1.16-.61,2.21-1.6,3.03-2.78,2.44,2.27,6.15,2.88,9.27,1.24,3.95-2.08,6.97-7.92,4.89-11.87-1.92-3.66-7.53-4.42-11.49-2.87.85-1.42,1.38-3.11,1.51-4.79.2.02.41.03.61.04,4.47.04,7.39-4.13,7.44-8.6s-3.54-8.12-8-8.17c-.69,0-1.35.07-1.99.23-.6-3.98-5.26-6.77-9.41-6.81-4.47-.04-8.12,3.54-8.17,8-.03,3.05,1.63,5.72,4.11,7.12-1.46,1.89-2.31,4.48-2.33,6.86-.01,1.25.44,2.56,1.19,3.8-.09.04-.19.08-.28.13-2.46,1.29-3.4,4.33-2.11,6.79Zm13.02-.58c-.33-.14-.68-.25-1.03-.34.47-.03.92-.11,1.35-.25-.11.19-.22.39-.32.58Z"/>
    <path class="cls-2" d="m126.27,98.56c.85-1.42,1.38-3.11,1.51-4.79.2.02.41.03.61.04,4.47.04,7.39-4.13,7.44-8.6.04-4.47-3.54-8.12-8-8.17-.69,0-1.35.07-1.99.23-.6-3.98-5.26-6.77-9.41-6.81-4.47-.04-8.12,3.54-8.17,8-.03,3.05,1.63,5.72,4.11,7.12-1.46,1.89-2.31,4.48-2.33,6.86-.01,1.25.44,2.56,1.19,3.8-.09.04-.19.08-.28.13-2.46,1.29-3.4,4.33-2.11,6.79.61,1.17,1.63,1.99,2.78,2.4-1.1,1.92-1.22,4.35-.12,6.46,1.73,3.28,5.79,4.55,9.07,2.82,1.16-.61,2.21-1.6,3.03-2.78m-1.75-9.48c-.33-.14-.68-.25-1.03-.34.47-.03.92-.11,1.35-.25-.11.19-.22.39-.32.58Z"/>
    <g>
      <path class="cls-2" d="m116,43.46c1.81-3.37,7.28-3.8,10.65-1.99,3.37,1.81,4.63,6.01,2.82,9.38s-6.01,4.63-9.38,2.82-5.9-6.84-4.09-10.21Z"/>
      <path class="cls-1" d="m115.98,43.45c.89-1.73,2.79-2.71,4.67-3.02,1.9-.31,3.89-.12,5.68.66,1.79.78,3.25,2.34,3.89,4.22.67,1.87.51,4.03-.46,5.79-.99,1.75-2.73,3.03-4.66,3.47-1.93.46-4.03.06-5.64-1.04-1.61-1.11-2.81-2.72-3.53-4.5-.71-1.76-.91-3.87.05-5.57Zm.04.02c-.91,1.7-.68,3.78.04,5.5.74,1.74,1.94,3.31,3.53,4.36,1.58,1.05,3.6,1.39,5.44.92,1.84-.45,3.47-1.69,4.37-3.35.93-1.65,1.12-3.69.51-5.49-.58-1.8-1.95-3.33-3.68-4.11-1.72-.79-3.69-1.02-5.56-.74-1.85.27-3.74,1.2-4.65,2.91Z"/>
    </g>
    <g>
      <path class="cls-2" d="m135.63,50.93c-1.76-3.27-7.06-3.69-10.33-1.93s-4.49,5.83-2.73,9.1c1.76,3.27,5.83,4.49,9.1,2.73s5.72-6.63,3.96-9.9Z"/>
      <path class="cls-1" d="m135.44,51.03c-.84-1.58-2.6-2.48-4.37-2.75-1.78-.28-3.66-.07-5.31.68-1.65.73-2.96,2.18-3.53,3.9-.59,1.71-.42,3.67.46,5.26.86,1.6,2.42,2.8,4.19,3.24,1.77.46,3.72.14,5.25-.87,1.53-1.01,2.71-2.52,3.43-4.21.71-1.67.94-3.68.06-5.34l-.19.1Zm.19-.1c.9,1.65.69,3.68-.01,5.36-.71,1.7-1.88,3.24-3.42,4.27-1.54,1.04-3.53,1.39-5.34.94-1.82-.43-3.44-1.65-4.34-3.29-.93-1.63-1.12-3.66-.53-5.44.57-1.79,1.93-3.32,3.65-4.1,1.71-.79,3.64-1.02,5.5-.75,1.83.27,3.74,1.18,4.68,2.92l-.19.1Z"/>
    </g>
    <g>
      <g>
        <path class="cls-2" d="m116.15,102.13c0-3.36,2.17-6.53,5.53-6.53,3.36,0,6.64,3.17,6.64,6.53s-2.72,6.08-6.08,6.08c-3.36,0-6.08-2.72-6.08-6.08Z"/>
        <path class="cls-1" d="m115.94,102.13c.01-1.66.53-3.33,1.57-4.64,1.02-1.32,2.7-2.14,4.37-2.03,1.67.07,3.24.87,4.42,2.01,1.17,1.14,2.01,2.69,2.1,4.35.09,1.65-.53,3.31-1.65,4.5-1.11,1.2-2.73,1.92-4.36,1.94-1.63.04-3.26-.61-4.42-1.76-1.17-1.13-1.84-2.75-1.82-4.37h-.21Zm.21,0c0,1.62.69,3.22,1.86,4.33,1.16,1.12,2.77,1.75,4.38,1.69,1.61-.04,3.17-.76,4.25-1.95,1.08-1.17,1.66-2.79,1.56-4.38-.25-3.18-3.17-5.92-6.32-6.05-1.58-.07-3.12.7-4.07,1.95-.97,1.24-1.44,2.84-1.44,4.41h-.21Z"/>
      </g>
      <g>
        <path class="cls-2" d="m114.57,92.85c1.59,2.96,6.4,3.34,9.36,1.75s4.07-5.28,2.47-8.24-5.28-4.07-8.24-2.47-5.18,6.01-3.59,8.97Z"/>
        <path class="cls-1" d="m114.76,92.75c.75,1.43,2.35,2.24,3.94,2.48,1.61.25,3.31.06,4.8-.61,1.49-.66,2.68-1.97,3.19-3.52.53-1.55.38-3.32-.42-4.75-.78-1.45-2.19-2.54-3.79-2.93-1.6-.41-3.36-.13-4.75.79-1.39.91-2.45,2.28-3.11,3.81-.64,1.51-.86,3.33-.06,4.84l.19-.1Zm-.19.1c-.82-1.5-.62-3.33,0-4.86.64-1.54,1.7-2.93,3.1-3.87,1.4-.94,3.2-1.26,4.84-.85,1.65.39,3.12,1.49,3.94,2.98.84,1.48,1.02,3.32.48,4.94-.52,1.63-1.75,3.01-3.31,3.72-1.55.72-3.3.93-4.99.69-1.66-.24-3.4-1.07-4.25-2.65l.19-.1Z"/>
      </g>
      <g>
        <path class="cls-2" d="m110.42,81.97c1.59,2.96,6.4,3.34,9.36,1.75s4.07-5.28,2.47-8.24-5.28-4.07-8.24-2.47c-2.96,1.59-5.18,6.01-3.59,8.97Z"/>
        <path class="cls-1" d="m110.61,81.87c.75,1.43,2.35,2.24,3.94,2.48,1.61.25,3.31.06,4.8-.61,1.49-.66,2.68-1.97,3.19-3.52.53-1.55.38-3.32-.42-4.75-.78-1.45-2.19-2.54-3.79-2.93-1.6-.41-3.36-.13-4.75.79-1.39.91-2.45,2.28-3.11,3.81-.64,1.51-.86,3.33-.06,4.84l.19-.1Zm-.19.1c-.82-1.5-.62-3.33,0-4.86.64-1.54,1.7-2.93,3.1-3.87,1.4-.94,3.2-1.26,4.84-.85,1.65.39,3.12,1.49,3.94,2.98.84,1.48,1.02,3.32.48,4.94-.52,1.63-1.75,3.01-3.31,3.72-1.55.72-3.3.93-4.99.69-1.66-.24-3.4-1.07-4.25-2.65l.19-.1Z"/>
      </g>
      <g>
        <path class="cls-2" d="m124.42,87.17c1.32,2.46,5.31,2.77,7.77,1.45s3.38-4.39,2.05-6.84-4.39-3.38-6.84-2.05-4.3,4.99-2.98,7.45Z"/>
        <path class="cls-1" d="m124.6,87.07c.62,1.17,1.93,1.85,3.25,2.05,1.33.21,2.74.05,3.97-.5,1.23-.55,2.21-1.62,2.64-2.91.44-1.28.32-2.74-.34-3.93-.64-1.2-1.81-2.1-3.14-2.43-1.32-.34-2.79-.11-3.94.65-1.15.75-2.04,1.89-2.58,3.16-.54,1.25-.71,2.77-.05,4.02l.19-.1Zm-.19.1c-.68-1.24-.52-2.77,0-4.04.53-1.28,1.41-2.44,2.57-3.22,1.16-.79,2.66-1.05,4.03-.71,1.37.32,2.6,1.24,3.28,2.48.7,1.23.85,2.77.41,4.12-.43,1.36-1.46,2.52-2.76,3.11-1.29.6-2.76.78-4.16.58-1.39-.2-2.84-.89-3.56-2.21l.19-.1Z"/>
      </g>
      <g>
        <path class="cls-2" d="m122.12,96.15c0-3.36,2.17-6.97,5.53-6.97,3.36,0,6.64,3.61,6.64,6.97,0,3.36-2.72,6.08-6.08,6.08-3.36,0-6.08-2.72-6.08-6.08Z"/>
        <path class="cls-1" d="m121.91,96.15c.02-1.69.53-3.36,1.5-4.75.94-1.38,2.54-2.43,4.28-2.38,1.72.02,3.29.93,4.45,2.1,1.16,1.19,2.02,2.72,2.22,4.39.18,1.67-.37,3.39-1.48,4.64-1.09,1.26-2.7,2.05-4.36,2.11-1.66.09-3.33-.54-4.52-1.69-1.2-1.14-1.9-2.78-1.88-4.42h-.21Zm.21,0c0,1.65.71,3.27,1.91,4.39,1.19,1.13,2.85,1.73,4.48,1.63,1.63-.08,3.2-.87,4.25-2.11,1.06-1.23,1.58-2.91,1.39-4.51-.21-1.61-1.06-3.09-2.2-4.23-1.14-1.13-2.66-1.97-4.27-1.97-1.62-.03-3.09.95-3.97,2.27-.91,1.32-1.38,2.94-1.38,4.53h-.21Z"/>
      </g>
    </g>
    <g>
      <path class="cls-2" d="m115.76,47.89c-1.17-2.18-4.72-2.46-6.9-1.29s-3,3.89-1.82,6.07c1.17,2.18,3.89,3,6.07,1.82s3.82-4.43,2.65-6.61Z"/>
      <path class="cls-1" d="m115.74,47.9c-.6-1.09-1.82-1.67-3.01-1.83-1.21-.15-2.45.06-3.51.59-2.16,1.04-3.01,3.91-1.82,5.88,1.03,2.05,3.91,2.87,5.94,1.59,1.01-.62,1.83-1.59,2.33-2.69.48-1.1.65-2.43.07-3.54Zm.04-.02c.6,1.11.45,2.47-.02,3.59-.48,1.14-1.26,2.16-2.29,2.85-1.03.69-2.36.92-3.56.61-1.21-.29-2.28-1.1-2.88-2.2-.61-1.09-.73-2.43-.33-3.6.39-1.18,1.28-2.18,2.42-2.69,1.13-.51,2.41-.66,3.63-.47,1.21.18,2.44.79,3.03,1.91Z"/>
    </g>
    <g>
      <path class="cls-2" d="m124.39,57.04c0,3.31-2.14,6.42-5.44,6.42s-6.53-3.12-6.53-6.42,2.68-5.99,5.99-5.99,5.99,2.68,5.99,5.99Z"/>
      <path class="cls-1" d="m124.6,57.04c-.01,1.63-.52,3.28-1.55,4.57-1.01,1.3-2.66,2.1-4.31,2-1.65-.07-3.19-.85-4.35-1.98-1.15-1.13-1.98-2.65-2.07-4.28-.09-1.62.52-3.26,1.63-4.43,1.1-1.18,2.68-1.89,4.29-1.92,1.61-.04,3.21.6,4.35,1.73,1.15,1.12,1.81,2.71,1.79,4.31h.21Zm-.21,0c0-1.6-.68-3.17-1.83-4.27-1.14-1.11-2.73-1.72-4.31-1.66-1.58.04-3.12.75-4.18,1.92-1.07,1.15-1.64,2.75-1.53,4.31.25,3.13,3.12,5.83,6.22,5.96,1.55.07,3.07-.69,4.01-1.92.95-1.22,1.42-2.79,1.42-4.34h.21Z"/>
    </g>
    <g>
      <path class="cls-2" d="m131.95,60.15c-1.74-3.23-6.99-3.65-10.22-1.91-3.23,1.74-4.44,5.77-2.7,9,1.74,3.23,5.77,4.44,9,2.7s5.66-6.56,3.92-9.79Z"/>
      <path class="cls-1" d="m131.76,60.25c-.83-1.57-2.57-2.45-4.32-2.72-1.76-.27-3.62-.07-5.25.67-1.63.73-2.93,2.15-3.49,3.85-.58,1.69-.42,3.63.46,5.2.85,1.58,2.4,2.77,4.15,3.21,1.75.45,3.68.14,5.19-.86,1.52-1,2.68-2.49,3.39-4.16.7-1.65.93-3.64.06-5.29l-.19.1Zm.19-.1c.89,1.63.68,3.64-.01,5.31-.7,1.68-1.86,3.2-3.38,4.23-1.53,1.03-3.49,1.37-5.29.93-1.8-.43-3.4-1.63-4.29-3.26-.92-1.61-1.11-3.62-.52-5.39.57-1.77,1.91-3.28,3.61-4.06,1.69-.78,3.6-1.01,5.44-.74,1.81.26,3.7,1.17,4.63,2.89l-.19.1Z"/>
    </g>
    <path class="cls-2" d="m130.63,69.35c-1.74-3.23-6.99-3.65-10.22-1.91-3.23,1.74-4.44,5.77-2.7,9s5.77,4.44,9,2.7,5.66-6.56,3.92-9.79Z"/>
    <g>
      <path class="cls-2" d="m146.26,70.25c-1.74-3.23-6.99-3.65-10.22-1.91s-4.44,5.77-2.7,9c1.74,3.23,5.77,4.44,9,2.7s5.66-6.56,3.92-9.79Z"/>
      <path class="cls-1" d="m146.08,70.35c-.83-1.57-2.57-2.45-4.32-2.72-1.76-.27-3.62-.07-5.25.67-1.63.73-2.93,2.15-3.49,3.85-.58,1.69-.42,3.63.46,5.2.85,1.58,2.4,2.77,4.15,3.21,1.75.45,3.68.14,5.19-.86,1.52-1,2.68-2.49,3.39-4.16.7-1.65.93-3.64.06-5.29l-.19.1Zm.19-.1c.89,1.63.68,3.64-.01,5.31-.7,1.68-1.86,3.2-3.38,4.23-1.53,1.03-3.49,1.37-5.29.93-1.8-.43-3.4-1.63-4.29-3.26-.92-1.61-1.11-3.62-.52-5.39.57-1.77,1.91-3.28,3.61-4.06,1.69-.78,3.6-1.01,5.44-.74,1.81.26,3.7,1.17,4.63,2.89l-.19.1Z"/>
    </g>
    <g>
      <path class="cls-2" d="m112.58,59.31c-1.74-3.23-6.99-3.65-10.22-1.91s-4.44,5.77-2.7,9c1.74,3.23,5.77,4.44,9,2.7,3.23-1.74,5.66-6.56,3.92-9.79Z"/>
      <path class="cls-1" d="m112.39,59.41c-.83-1.57-2.57-2.45-4.32-2.72-1.76-.27-3.62-.07-5.25.67-1.63.73-2.93,2.15-3.49,3.85-.58,1.69-.42,3.63.46,5.2.85,1.58,2.4,2.77,4.15,3.21,1.75.45,3.68.14,5.19-.86,1.52-1,2.68-2.49,3.39-4.16.7-1.65.93-3.64.06-5.29l-.19.1Zm.19-.1c.89,1.63.68,3.64-.01,5.31-.7,1.68-1.86,3.2-3.38,4.23-1.53,1.03-3.49,1.37-5.29.93-1.8-.43-3.4-1.63-4.29-3.26-.92-1.61-1.11-3.62-.52-5.39.57-1.77,1.91-3.28,3.61-4.06,1.69-.78,3.6-1.01,5.44-.74,1.81.26,3.7,1.17,4.63,2.89l-.19.1Z"/>
    </g>
    <path class="cls-2" d="m118.8,52.26c-1.74-3.23-6.99-3.65-10.22-1.91s-4.44,5.77-2.7,9,5.77,4.44,9,2.7c3.23-1.74,5.66-6.56,3.92-9.79Z"/>
    <path class="cls-2" d="m131.95,81.19c-1.74-3.23-6.99-3.65-10.22-1.91-3.23,1.74-4.44,5.77-2.7,9s5.77,4.44,9,2.7c3.23-1.74,5.66-6.56,3.92-9.79Z"/>
    <path class="cls-2" d="m126.69,95.65c-1.74-3.23-6.99-3.65-10.22-1.91s-4.44,5.77-2.7,9c1.74,3.23,5.77,4.44,9,2.7,3.23-1.74,5.66-6.56,3.92-9.79Z"/>
    <path class="cls-2" d="m129.32,47c-1.74-3.23-6.99-3.65-10.22-1.91s-4.44,5.77-2.7,9c1.74,3.23,5.77,4.44,9,2.7s5.66-6.56,3.92-9.79Z"/>
    <path class="cls-2" d="m142.47,60.15c-1.74-3.23-6.99-3.65-10.22-1.91-3.23,1.74-4.44,5.77-2.7,9,1.74,3.23,5.77,4.44,9,2.7s5.66-6.56,3.92-9.79Z"/>
    <path class="cls-2" d="m121.43,82.5c-1.74-3.23-6.99-3.65-10.22-1.91s-4.44,5.77-2.7,9,5.77,4.44,9,2.7c3.23-1.74,5.66-6.56,3.92-9.79Z"/>
  </g>
  <g class="cls-4">
    <path class="cls-2" d="m148.25,33.43c-.35-1.78,1.28-3.46,3.05-3.84s3.6.16,5.33.7c2.94.92,5.88,1.83,8.82,2.75-1.59,1.42-3.53,2.45-5.61,2.96,3.21.82,5.2,4.06,6.22,7.22,1.01,3.16,1.42,6.56,3.1,9.43,1.53,2.61,4.02,4.56,6.74,5.9-4.74-.57-9.47-1.15-14.21-1.72-1.58-.19-3.2-.4-4.61-1.13-2.61-1.36-4.06-4.29-6.52-5.89.47,2.72,1,5.42,1.58,8.12-3.38-1.42-6.82-2.89-9.57-5.31s-4.73-6.02-4.29-9.66,3.93-6.92,7.54-6.31c-2.38-1.05-3.34-4.17-5.74-5.15-2.76-1.12-5.62,1.07-8.05,2.81s-6.26,2.91-8,.49c1.49-.22,2.9,1.03,4.4.81,1.33-.19,2.2-1.45,3.17-2.39,3.54-3.42,10.29-2.34,12.58,2.02.31.59.59,1.27,1.2,1.55.81.38,1.81-.2,2.2-1s.34-1.74.29-2.63"/>
  </g>
  <path class="cls-2" d="m141.3,57.99c.7-1.92-.33-3.99-1.34-5.76-2.56-4.52-5.11-9.05-7.67-13.57-.79-1.39-1.58-2.81-1.92-4.37-1.21-5.48,3.52-10.6,8.62-12.95,2.66-1.22,5.59-2.06,7.77-4s3.32-5.55,1.46-7.81c1.14,1.97,1.85,4.2,2.06,6.47,7.75-1.52,16.51-2.85,22.92,1.77,2.2,1.59,3.91,3.76,5.97,5.53,4.52,3.91,10.75,5.75,16.67,4.94-8.4,5.92-19.78,5.26-29.74,2.71-1.74-.45-3.51-.96-4.99-1.97-3.34-2.29-5.93-7.2-9.84-6.15,1.16-1.09.29-3.24-1.19-3.82s-3.15-.07-4.62.55c-5.37,2.24-10.51,6.52-11.21,12.3-1.08,8.97,8.74,16.21,8.63,25.24,0,.88-.65,2.07-1.41,1.65"/>
  <path class="cls-2" d="m102.91,29.12c-1.12-1.67-.27-4.09,1.33-5.3s3.72-1.48,5.72-1.56c2.74-.12,5.75.14,7.73,2.03,3.33,3.18,1.77,8.91-1.09,12.51-2.86,3.6-6.85,6.5-8.44,10.82-1.66,4.5-.07,10,3.74,12.92-6.48-1.1-12.43-4.96-16.1-10.41-1.93,4.92-6.74,8.57-12,9.1-2.32.24-4.75-.08-6.95.71-4.91,1.78-6.31,7.92-6.99,13.09-4.03-2.74-5.19-8.21-4.88-13.07.31-4.86,1.74-9.64,1.52-14.51-.1-2.25-.56-4.51-.19-6.73,1.15-6.75,9.24-9.9,16.08-9.76-5.78-1.47-11.96-1.35-17.69.34,4.55-1.13,8.74-3.68,11.84-7.19,1.2-1.36,2.28-2.9,3.85-3.79,1.71-.98,3.78-1.06,5.75-1.12,2.54-.08,5.09-.15,7.63-.23,1.67-.05,3.43-.08,4.88.74s2.38,2.8,1.49,4.21c-.82,1.29-2.96,2.54-1.93,3.67.91,1,2.33-.45,3.4-1.28,2.26-1.74,5.62-.36,7.67,1.63s3.64,4.6,6.23,5.8c3.06,1.41,6.64.48,10,.76,3.36.29,7.17,3.18,5.99,6.33-2.08-2.64-5.32-4.32-8.68-4.5-2.27-.12-4.56.41-6.8.06-4.92-.78-8.13-5.43-10.75-9.67-.75.03-1.44.67-1.51,1.42"/>
  <g>
    <path class="cls-2" d="m145.2,8.28c.87-2,2.99-3.38,5.17-3.37s4.29,1.41,5.14,3.41c.43,1.01.56,2.14,1.07,3.12s1.61,1.8,2.66,1.45c-1.32,1.91-4.2,2.52-6.19,1.31,3.61,4.64,1.96,11.55-1.34,16.42-.72,1.07-1.54,2.15-1.74,3.42s.49,2.81,1.76,3.01c-2.8-.84-5.66-1.72-8.01-3.46-2.35-1.74-4.12-4.56-3.82-7.47.38-3.61,3.74-6.39,4.07-10-1.76,2.22-4.8,3.34-7.58,2.78.73-.33.9-1.33.66-2.09s-.79-1.38-1.17-2.08c-.94-1.73-.79-4.09.64-5.46s4.07-1.27,5.17.36c-.43-2.82-2.1-5.82-4.9-6.33-1.83-.34-3.66.46-5.5.75s-4.16-.26-4.67-2.05c-.08-.27-.1-.6.08-.82.42-.52,1.21.02,1.79.36,1.95,1.12,4.25-.68,6.48-.99,2.26-.32,4.52,1.02,5.85,2.88s1.88,4.16,2.22,6.42c.87-.7,1.74-1.4,2.61-2.11"/>
    <path class="cls-2" d="m129.07,12.47c2.94.71,6.45,2,6.93,4.99.56,3.5-3.43,5.81-5.3,8.82-.51.81-.61,2.25.34,2.4-1.19.93-3.03.45-4.08-.63s-1.51-2.59-1.94-4.03c-.74,3.39-4.37,5.17-7.56,6.52s-6.8,3.23-7.41,6.64c-5.07-7.66-3.25-19.08,3.96-24.78-2.29.04-4.53,1.21-5.88,3.05-.43.59-.79,1.25-1.36,1.7-1.35,1.05-3.29.56-4.91.02,1.37-.21,2.35-1.49,2.72-2.83s.25-2.74.27-4.13c.04-3.44,1.42-7.39,4.7-8.4,2.36-.72,4.87.34,7.02,1.53,2.43,1.35,5.04,3.44,4.83,6.21,1.69-.47,3.28-1.55,4.01-3.15s.42-3.71-.98-4.78c.09-.62.95-.86,1.49-.55s.81.95.94,1.55c.77,3.4-1.58,7.2-4.96,8.03,2.54.03,5.07.68,7.32,1.88"/>
  </g>
  <g>
    <path class="cls-2" d="m212.2,14.28c.87-2,2.99-3.38,5.17-3.37s4.29,1.41,5.14,3.41c.43,1.01.56,2.14,1.07,3.12s1.61,1.8,2.66,1.45c-1.32,1.91-4.2,2.52-6.19,1.31,3.61,4.64,1.96,11.55-1.34,16.42-.72,1.07-1.54,2.15-1.74,3.42s.49,2.81,1.76,3.01c-2.8-.84-5.66-1.72-8.01-3.46-2.35-1.74-4.12-4.56-3.82-7.47.38-3.61,3.74-6.39,4.07-10-1.76,2.22-4.8,3.34-7.58,2.78.73-.33.9-1.33.66-2.09s-.79-1.38-1.17-2.08c-.94-1.73-.79-4.09.64-5.46s4.07-1.27,5.17.36c-.43-2.82-2.1-5.82-4.9-6.33-1.83-.34-3.66.46-5.5.75s-4.16-.26-4.67-2.05c-.08-.27-.1-.6.08-.82.42-.52,1.21.02,1.79.36,1.95,1.12,4.25-.68,6.48-.99,2.26-.32,4.52,1.02,5.85,2.88s1.88,4.16,2.22,6.42c.87-.7,1.74-1.4,2.61-2.11"/>
    <path class="cls-2" d="m196.07,18.47c2.94.71,6.45,2,6.93,4.99.56,3.5-3.43,5.81-5.3,8.82-.51.81-.61,2.25.34,2.4-1.19.93-3.03.45-4.08-.63s-1.51-2.59-1.94-4.03c-.74,3.39-4.37,5.17-7.56,6.52s-6.8,3.23-7.41,6.64c-5.07-7.66-3.25-19.08,3.96-24.78-2.29.04-4.53,1.21-5.88,3.05-.43.59-.79,1.25-1.36,1.7-1.35,1.05-3.29.56-4.91.02,1.37-.21,2.35-1.49,2.72-2.83s.25-2.74.27-4.13c.04-3.44,1.42-7.39,4.7-8.4,2.36-.72,4.87.34,7.02,1.53,2.43,1.35,5.04,3.44,4.83,6.21,1.69-.47,3.28-1.55,4.01-3.15s.42-3.71-.98-4.78c.09-.62.95-.86,1.49-.55s.81.95.94,1.55c.77,3.4-1.58,7.2-4.96,8.03,2.54.03,5.07.68,7.32,1.88"/>
  </g>
  <g class="cls-3">
    <path class="cls-2" d="m52.7,13.02c1.06-2.42,3.63-4.09,6.27-4.08s5.2,1.71,6.23,4.14c.52,1.23.68,2.59,1.3,3.78.62,1.18,1.96,2.18,3.22,1.76-1.6,2.31-5.09,3.05-7.5,1.59,4.38,5.62,2.37,14-1.62,19.9-.88,1.3-1.87,2.6-2.11,4.15s.59,3.4,2.14,3.65c-3.39-1.02-6.86-2.08-9.71-4.2-2.85-2.11-5-5.52-4.63-9.05.46-4.38,4.53-7.74,4.93-12.12-2.13,2.69-5.82,4.05-9.19,3.38.88-.4,1.09-1.61.8-2.53s-.95-1.68-1.42-2.53c-1.14-2.09-.95-4.96.77-6.61s4.94-1.54,6.27.44c-.52-3.42-2.54-7.05-5.94-7.68-2.22-.41-4.43.56-6.66.91-2.23.35-5.04-.32-5.66-2.49-.1-.33-.12-.72.1-.99.51-.63,1.46.03,2.17.43,2.37,1.36,5.15-.82,7.85-1.2,2.74-.39,5.48,1.24,7.09,3.49s2.28,5.04,2.7,7.78c1.05-.85,2.1-1.7,3.16-2.55"/>
    <path class="cls-2" d="m33.15,18.1c3.57.86,7.81,2.43,8.4,6.05.68,4.24-4.15,7.04-6.42,10.69-.61.99-.74,2.72.41,2.9-1.44,1.12-3.67.55-4.94-.76s-1.83-3.13-2.35-4.88c-.9,4.1-5.29,6.27-9.16,7.9s-8.24,3.91-8.98,8.05c-6.15-9.28-3.94-23.13,4.8-30.03-2.77.05-5.49,1.46-7.13,3.7-.52.71-.96,1.52-1.65,2.06-1.63,1.28-3.99.68-5.95.02,1.66-.26,2.85-1.81,3.29-3.43s.3-3.33.33-5c.05-4.17,1.72-8.96,5.7-10.18,2.85-.88,5.9.41,8.51,1.85,2.95,1.63,6.11,4.17,5.86,7.53,2.05-.57,3.98-1.88,4.86-3.81s.5-4.49-1.18-5.79c.11-.75,1.15-1.04,1.81-.67s.98,1.15,1.14,1.88c.94,4.12-1.91,8.72-6.02,9.73,3.08.04,6.15.83,8.87,2.28"/>
  </g>
</svg>