<svg id="レイヤー_1" data-name="レイヤー 1" xmlns="http://www.w3.org/2000/svg" viewBox="0 0 139 117"><defs><style>.cls-1{fill:#fff;}</style></defs><title>toyosawa-church</title><path class="cls-1" d="M73.41,100.19c-1.6-3-6.45-3.37-9.44-1.76a6.14,6.14,0,1,0,5.82,10.81C72.78,107.64,75,103.18,73.41,100.19Z"/><path class="cls-1" d="M75.94,34.5c-1.61-3-6.46-3.37-9.44-1.76a6.14,6.14,0,1,0,5.82,10.81C75.3,42,77.55,37.49,75.94,34.5Z"/><path class="cls-1" d="M80.89,66.55l-.28-.14a7.38,7.38,0,0,0,1.23-3.78,11.85,11.85,0,0,0-2.26-6.89,8.09,8.09,0,0,0-3.91-15.17c-4.15,0-8.84,2.75-9.48,6.72a8.08,8.08,0,0,0-10.07,7.84c0,4.46,2.88,8.67,7.35,8.67.2,0,.41,0,.61,0a11,11,0,0,0,1.46,4.81C61.6,67,56,67.69,54,71.33c-2.11,3.93.84,9.8,4.77,11.92a8.1,8.1,0,0,0,9.29-1.15,8.69,8.69,0,0,0,3,2.81,6.72,6.72,0,0,0,9.05-9.19,5,5,0,0,0,.77-9.17Zm-11.28,5.5a5.47,5.47,0,0,0,1.35.26,8.42,8.42,0,0,0-1,.33A6.63,6.63,0,0,0,69.61,72.05Z"/><path class="cls-1" d="M43.94,66.47a5,5,0,0,0,2.78,2.4,6.71,6.71,0,0,0,9,9.28,8.7,8.7,0,0,0,3-2.78A8.09,8.09,0,0,0,68,76.61c4-2.08,7-7.92,4.89-11.87-1.92-3.66-7.53-4.42-11.49-2.87a11.14,11.14,0,0,0,1.51-4.79c.2,0,.41,0,.61,0,4.47,0,7.4-4.13,7.44-8.6a8.11,8.11,0,0,0-10-7.94c-.61-4-5.27-6.76-9.42-6.81a8.09,8.09,0,0,0-4.06,15.13,11.86,11.86,0,0,0-2.33,6.86,7.31,7.31,0,0,0,1.2,3.8l-.28.13A5,5,0,0,0,43.94,66.47Zm13-.58a7.31,7.31,0,0,0-1-.34,6,6,0,0,0,1.35-.25C57.15,65.49,57.05,65.69,57,65.89Z"/><path class="cls-1" d="M67.27,95.56a11,11,0,0,0,1.5-4.79c.21,0,.41,0,.62,0,4.46,0,7.39-4.13,7.44-8.6a8.09,8.09,0,0,0-8-8.16,8.21,8.21,0,0,0-2,.22c-.6-4-5.26-6.77-9.41-6.81a8.09,8.09,0,0,0-4.06,15.13A11.79,11.79,0,0,0,51,89.44a7.38,7.38,0,0,0,1.19,3.8l-.28.13a5,5,0,0,0,.68,9.19,6.72,6.72,0,0,0,9,9.28,8.79,8.79,0,0,0,3-2.78m-1.75-9.48a7,7,0,0,0-1-.34A6,6,0,0,0,63.16,99,6.63,6.63,0,0,0,62.85,99.58Z"/><path class="cls-1" d="M57,40.46c1.81-3.37,7.28-3.8,10.65-2a6.93,6.93,0,1,1-6.56,12.2C57.72,48.85,55.19,43.83,57,40.46Z"/><path class="cls-1" d="M76.63,47.93c-1.76-3.26-7.07-3.68-10.34-1.92a6.72,6.72,0,0,0,6.37,11.83C75.93,56.08,78.38,51.2,76.63,47.93Z"/><path class="cls-1" d="M57.15,99.13c0-3.36,2.17-6.53,5.53-6.53a7,7,0,0,1,6.63,6.53,6.08,6.08,0,0,1-12.16,0Z"/><path class="cls-1" d="M55.57,89.85c1.6,3,6.4,3.34,9.36,1.75a6.09,6.09,0,0,0-5.77-10.72C56.21,82.48,54,86.89,55.57,89.85Z"/><path class="cls-1" d="M51.42,79c1.59,3,6.4,3.34,9.36,1.75A6.08,6.08,0,1,0,55,70C52.05,71.6,49.83,76,51.42,79Z"/><path class="cls-1" d="M65.42,84.17c1.32,2.46,5.31,2.77,7.77,1.45a5.05,5.05,0,1,0-4.79-8.9C65.94,78,64.1,81.71,65.42,84.17Z"/><path class="cls-1" d="M63.12,93.15c0-3.35,2.17-7,5.53-7s6.64,3.61,6.64,7a6.09,6.09,0,1,1-12.17,0Z"/><path class="cls-1" d="M56.76,44.89c-1.17-2.18-4.72-2.46-6.9-1.29a4.49,4.49,0,0,0,4.25,7.9C56.29,50.33,57.93,47.07,56.76,44.89Z"/><path class="cls-1" d="M65.39,54c0,3.3-2.14,6.42-5.45,6.42A6.86,6.86,0,0,1,53.41,54a6,6,0,0,1,12,0Z"/><path class="cls-1" d="M73,57.15c-1.74-3.23-7-3.65-10.22-1.91A6.64,6.64,0,0,0,69,66.94C72.26,65.2,74.69,60.38,73,57.15Z"/><path class="cls-1" d="M71.63,66.35c-1.74-3.23-7-3.64-10.22-1.9a6.64,6.64,0,0,0,6.3,11.7C70.94,74.41,73.37,69.58,71.63,66.35Z"/><path class="cls-1" d="M87.26,67.25c-1.73-3.23-7-3.64-10.21-1.9a6.64,6.64,0,0,0,6.29,11.7C86.57,75.31,89,70.49,87.26,67.25Z"/><path class="cls-1" d="M53.58,56.31c-1.74-3.23-7-3.65-10.22-1.91a6.64,6.64,0,0,0,6.3,11.7C52.89,64.36,55.32,59.54,53.58,56.31Z"/><path class="cls-1" d="M59.8,49.26c-1.74-3.23-7-3.65-10.22-1.91a6.64,6.64,0,0,0,6.3,11.7C59.11,57.31,61.54,52.49,59.8,49.26Z"/><path class="cls-1" d="M73,78.19c-1.74-3.23-7-3.65-10.22-1.91A6.64,6.64,0,0,0,69,88C72.26,86.24,74.69,81.42,73,78.19Z"/><path class="cls-1" d="M67.69,92.65c-1.74-3.23-7-3.64-10.22-1.9a6.64,6.64,0,0,0,6.3,11.7C67,100.71,69.43,95.88,67.69,92.65Z"/><path class="cls-1" d="M70.32,44c-1.74-3.23-7-3.65-10.22-1.91a6.64,6.64,0,1,0,6.3,11.7C69.63,52.05,72.06,47.23,70.32,44Z"/><path class="cls-1" d="M83.47,57.15c-1.74-3.23-7-3.65-10.22-1.91a6.64,6.64,0,0,0,6.3,11.7C82.78,65.2,85.21,60.38,83.47,57.15Z"/><path class="cls-1" d="M62.43,79.5c-1.74-3.23-7-3.64-10.22-1.9a6.64,6.64,0,0,0,6.3,11.7C61.74,87.56,64.17,82.73,62.43,79.5Z"/><path class="cls-1" d="M89.25,30.43c-.35-1.78,1.28-3.46,3-3.84a10.55,10.55,0,0,1,5.33.7L106.45,30a13,13,0,0,1-5.6,3c3.21.82,5.2,4.06,6.22,7.22s1.42,6.56,3.09,9.43a15.73,15.73,0,0,0,6.74,5.89l-14.21-1.72a13.4,13.4,0,0,1-4.61-1.13c-2.61-1.36-4.06-4.29-6.53-5.9q.7,4.08,1.58,8.12c-3.37-1.42-6.82-2.89-9.57-5.31s-4.73-6-4.28-9.66S83.2,33,86.82,33.62c-2.38-1-3.34-4.16-5.75-5.14-2.75-1.13-5.62,1.07-8,2.8s-6.26,2.91-8,.49c1.49-.22,2.91,1,4.4.81,1.33-.19,2.19-1.45,3.16-2.39,3.54-3.42,10.29-2.34,12.58,2a3.2,3.2,0,0,0,1.2,1.56,1.79,1.79,0,0,0,2.2-1,5.19,5.19,0,0,0,.29-2.63"/><path class="cls-1" d="M82.3,55C83,53.07,82,51,81,49.22L73.29,35.65a16.2,16.2,0,0,1-1.92-4.37C70.16,25.8,74.89,20.68,80,18.34c2.66-1.23,5.58-2.06,7.77-4s3.33-5.55,1.46-7.8A15.91,15.91,0,0,1,91.28,13c7.74-1.53,16.51-2.85,22.92,1.76,2.2,1.59,3.91,3.76,6,5.54a21.41,21.41,0,0,0,16.66,4.94c-8.4,5.92-19.78,5.25-29.74,2.71a15.77,15.77,0,0,1-5-2c-3.34-2.29-5.93-7.2-9.84-6.15,1.16-1.09.29-3.24-1.2-3.82s-3.15-.07-4.62.55c-5.37,2.24-10.51,6.52-11.21,12.29-1.09,9,8.73,16.21,8.63,25.25,0,.87-.64,2.06-1.41,1.64"/><path class="cls-1" d="M41.91,20.12c-1.12-1.67-.27-4.09,1.34-5.3A10.16,10.16,0,0,1,49,13.26c2.74-.12,5.75.14,7.73,2C60,18.47,58.48,24.2,55.61,27.8s-6.85,6.5-8.44,10.82a11.67,11.67,0,0,0,3.74,12.93,24.62,24.62,0,0,1-16.1-10.42,14.8,14.8,0,0,1-12,9.11c-2.32.23-4.75-.09-6.94.71C11,52.73,9.55,58.86,8.88,64,4.85,61.3,3.69,55.83,4,51s1.74-9.64,1.52-14.5C5.41,34.22,5,32,5.33,29.74,6.48,23,14.57,19.83,21.41,20a33.51,33.51,0,0,0-17.69.33,23.4,23.4,0,0,0,11.84-7.19c1.2-1.36,2.28-2.9,3.86-3.8A12.27,12.27,0,0,1,25.16,8.2L32.79,8a9.26,9.26,0,0,1,4.88.74c1.45.82,2.39,2.8,1.49,4.21s-3,2.54-1.93,3.67,2.33-.45,3.4-1.28C42.89,13.57,46.25,15,48.3,17s3.64,4.6,6.23,5.79c3.06,1.42,6.64.48,10,.77s7.17,3.18,6,6.33a12,12,0,0,0-8.68-4.49c-2.27-.12-4.56.41-6.8.06-4.92-.78-8.14-5.43-10.76-9.67a1.64,1.64,0,0,0-1.51,1.42"/></svg>