<?xml version="1.0" encoding="UTF-8"?>
<svg id="_レイヤー_1" data-name="レイヤー 1" xmlns="http://www.w3.org/2000/svg" viewBox="0 0 139 117">
  <defs>
    <style>
      .cls-1 {
        fill: #fff;
      }
    </style>
  </defs>
  <path class="cls-1" d="m73.41,100.19c-1.61-2.99-6.46-3.37-9.44-1.76s-4.1,5.33-2.5,8.32,5.33,4.1,8.32,2.5c2.99-1.61,5.23-6.06,3.62-9.05Z"/>
  <path class="cls-1" d="m75.94,34.5c-1.61-2.99-6.46-3.37-9.44-1.76s-4.1,5.33-2.5,8.32c1.61,2.99,5.33,4.1,8.32,2.5,2.99-1.61,5.23-6.06,3.62-9.05Z"/>
  <path class="cls-1" d="m80.89,66.55c-.09-.05-.18-.09-.28-.13.77-1.24,1.23-2.54,1.23-3.79,0-2.38-.82-4.98-2.26-6.89,2.49-1.38,4.18-4.03,4.18-7.08,0-4.47-3.62-8.09-8.09-8.09-4.15,0-8.84,2.75-9.48,6.72-.64-.16-1.3-.25-1.99-.25-4.47,0-8.09,3.62-8.09,8.09s2.89,8.67,7.35,8.67c.2,0,.41-.01.61-.03.11,1.69.62,3.38,1.46,4.81-3.94-1.59-9.56-.89-11.52,2.75-2.12,3.93.84,9.8,4.77,11.92,3.11,1.67,6.82,1.1,9.28-1.15.8,1.19,1.85,2.19,3,2.81,3.27,1.76,7.34.54,9.1-2.73,1.13-2.1,1.03-4.52-.05-6.46,1.16-.39,2.18-1.21,2.81-2.37,1.31-2.44.4-5.49-2.04-6.81Zm-11.27,5.51c.43.13.88.22,1.34.26-.36.09-.7.2-1.04.33-.1-.2-.2-.4-.31-.59Z"/>
  <path class="cls-1" d="m43.94,66.47c.61,1.17,1.63,1.99,2.78,2.4-1.1,1.92-1.22,4.35-.12,6.46,1.73,3.28,5.79,4.55,9.07,2.82,1.16-.61,2.21-1.6,3.03-2.78,2.44,2.27,6.15,2.88,9.27,1.24,3.95-2.08,6.97-7.92,4.89-11.87-1.92-3.66-7.53-4.42-11.49-2.87.85-1.42,1.38-3.11,1.51-4.79.2.02.41.03.61.04,4.47.04,7.39-4.13,7.44-8.6s-3.54-8.12-8-8.17c-.69,0-1.35.07-1.99.23-.6-3.98-5.26-6.77-9.41-6.81-4.47-.04-8.12,3.54-8.17,8-.03,3.05,1.63,5.72,4.11,7.12-1.46,1.89-2.31,4.48-2.33,6.86-.01,1.25.44,2.56,1.19,3.8-.09.04-.19.08-.28.13-2.46,1.29-3.4,4.33-2.11,6.79Zm13.02-.58c-.33-.14-.68-.25-1.03-.34.47-.03.92-.11,1.35-.25-.11.19-.22.39-.32.58Z"/>
  <path class="cls-1" d="m67.27,95.56c.85-1.42,1.38-3.11,1.51-4.79.2.02.41.03.61.04,4.47.04,7.39-4.13,7.44-8.6.04-4.47-3.54-8.12-8-8.17-.69,0-1.35.07-1.99.23-.6-3.98-5.26-6.77-9.41-6.81-4.47-.04-8.12,3.54-8.17,8-.03,3.05,1.63,5.72,4.11,7.12-1.46,1.89-2.31,4.48-2.33,6.86-.01,1.25.44,2.56,1.19,3.8-.09.04-.19.08-.28.13-2.46,1.29-3.4,4.33-2.11,6.79.61,1.17,1.63,1.99,2.78,2.4-1.1,1.92-1.22,4.35-.12,6.46,1.73,3.28,5.79,4.55,9.07,2.82,1.16-.61,2.21-1.6,3.03-2.78m-1.75-9.48c-.33-.14-.68-.25-1.03-.34.47-.03.92-.11,1.35-.25-.11.19-.22.39-.32.58Z"/>
  <path class="cls-1" d="m57,40.46c1.81-3.37,7.28-3.8,10.65-1.99,3.37,1.81,4.63,6.01,2.82,9.38s-6.01,4.63-9.38,2.82c-3.37-1.81-5.9-6.84-4.09-10.21Z"/>
  <path class="cls-1" d="m76.63,47.93c-1.76-3.27-7.06-3.69-10.33-1.93-3.27,1.76-4.49,5.83-2.73,9.1,1.76,3.27,5.83,4.49,9.1,2.73,3.27-1.76,5.72-6.63,3.96-9.9Z"/>
  <g>
    <path class="cls-1" d="m57.15,99.13c0-3.36,2.17-6.53,5.53-6.53,3.36,0,6.64,3.17,6.64,6.53s-2.72,6.08-6.08,6.08-6.08-2.72-6.08-6.08Z"/>
    <path class="cls-1" d="m55.57,89.85c1.59,2.96,6.4,3.34,9.36,1.75s4.07-5.28,2.47-8.24c-1.59-2.96-5.28-4.07-8.24-2.47s-5.18,6.01-3.59,8.97Z"/>
    <path class="cls-1" d="m51.42,78.97c1.59,2.96,6.4,3.34,9.36,1.75s4.07-5.28,2.47-8.24-5.28-4.07-8.24-2.47-5.18,6.01-3.59,8.97Z"/>
    <path class="cls-1" d="m65.42,84.17c1.32,2.46,5.31,2.77,7.77,1.45,2.46-1.32,3.38-4.39,2.05-6.84s-4.39-3.38-6.84-2.05c-2.46,1.32-4.3,4.99-2.98,7.45Z"/>
    <path class="cls-1" d="m63.12,93.15c0-3.36,2.17-6.97,5.53-6.97s6.64,3.61,6.64,6.97c0,3.36-2.72,6.08-6.08,6.08s-6.08-2.72-6.08-6.08Z"/>
  </g>
  <path class="cls-1" d="m56.76,44.89c-1.17-2.18-4.72-2.46-6.9-1.29-2.18,1.17-3,3.89-1.82,6.07s3.89,3,6.07,1.82,3.82-4.43,2.65-6.61Z"/>
  <path class="cls-1" d="m65.39,54.04c0,3.31-2.14,6.42-5.44,6.42s-6.53-3.12-6.53-6.42,2.68-5.99,5.99-5.99,5.99,2.68,5.99,5.99Z"/>
  <path class="cls-1" d="m72.95,57.15c-1.74-3.23-6.99-3.65-10.22-1.91s-4.44,5.77-2.7,9c1.74,3.23,5.77,4.44,9,2.7,3.23-1.74,5.66-6.56,3.92-9.79Z"/>
  <path class="cls-1" d="m71.63,66.35c-1.74-3.23-6.99-3.65-10.22-1.91s-4.44,5.77-2.7,9c1.74,3.23,5.77,4.44,9,2.7s5.66-6.56,3.92-9.79Z"/>
  <path class="cls-1" d="m87.26,67.25c-1.74-3.23-6.99-3.65-10.22-1.91s-4.44,5.77-2.7,9c1.74,3.23,5.77,4.44,9,2.7s5.66-6.56,3.92-9.79Z"/>
  <path class="cls-1" d="m53.58,56.31c-1.74-3.23-6.99-3.65-10.22-1.91-3.23,1.74-4.44,5.77-2.7,9s5.77,4.44,9,2.7c3.23-1.74,5.66-6.56,3.92-9.79Z"/>
  <path class="cls-1" d="m59.8,49.26c-1.74-3.23-6.99-3.65-10.22-1.91s-4.44,5.77-2.7,9,5.77,4.44,9,2.7,5.66-6.56,3.92-9.79Z"/>
  <path class="cls-1" d="m72.95,78.19c-1.74-3.23-6.99-3.65-10.22-1.91-3.23,1.74-4.44,5.77-2.7,9,1.74,3.23,5.77,4.44,9,2.7s5.66-6.56,3.92-9.79Z"/>
  <path class="cls-1" d="m67.69,92.65c-1.74-3.23-6.99-3.65-10.22-1.91s-4.44,5.77-2.7,9,5.77,4.44,9,2.7c3.23-1.74,5.66-6.56,3.92-9.79Z"/>
  <path class="cls-1" d="m70.32,44c-1.74-3.23-6.99-3.65-10.22-1.91s-4.44,5.77-2.7,9c1.74,3.23,5.77,4.44,9,2.7s5.66-6.56,3.92-9.79Z"/>
  <path class="cls-1" d="m83.47,57.15c-1.74-3.23-6.99-3.65-10.22-1.91s-4.44,5.77-2.7,9c1.74,3.23,5.77,4.44,9,2.7,3.23-1.74,5.66-6.56,3.92-9.79Z"/>
  <path class="cls-1" d="m62.43,79.5c-1.74-3.23-6.99-3.65-10.22-1.91-3.23,1.74-4.44,5.77-2.7,9s5.77,4.44,9,2.7,5.66-6.56,3.92-9.79Z"/>
  <path class="cls-1" d="m89.25,30.43c-.35-1.78,1.28-3.46,3.05-3.84s3.6.16,5.33.7c2.94.92,5.88,1.83,8.82,2.75-1.59,1.42-3.53,2.45-5.61,2.96,3.21.82,5.2,4.06,6.22,7.22,1.01,3.16,1.42,6.56,3.1,9.43,1.53,2.61,4.02,4.56,6.74,5.9-4.74-.57-9.47-1.15-14.21-1.72-1.58-.19-3.2-.4-4.61-1.13-2.61-1.36-4.06-4.29-6.52-5.89.47,2.72,1,5.42,1.58,8.12-3.38-1.42-6.82-2.89-9.57-5.31-2.75-2.42-4.73-6.02-4.29-9.66s3.93-6.92,7.54-6.31c-2.38-1.05-3.34-4.17-5.74-5.15-2.76-1.12-5.62,1.07-8.05,2.81-2.42,1.73-6.26,2.91-8,.49,1.49-.22,2.9,1.03,4.4.81,1.33-.19,2.2-1.45,3.17-2.39,3.54-3.42,10.29-2.34,12.58,2.02.31.59.59,1.27,1.2,1.55.81.38,1.81-.2,2.2-1s.34-1.74.29-2.63"/>
  <path class="cls-1" d="m82.3,54.99c.7-1.92-.33-3.99-1.34-5.76-2.56-4.52-5.11-9.05-7.67-13.57-.79-1.39-1.58-2.81-1.92-4.37-1.21-5.48,3.52-10.6,8.62-12.95,2.66-1.22,5.59-2.06,7.77-4,2.19-1.95,3.32-5.55,1.46-7.81,1.14,1.97,1.85,4.2,2.06,6.47,7.75-1.52,16.51-2.85,22.92,1.77,2.2,1.59,3.91,3.76,5.97,5.53,4.52,3.91,10.75,5.75,16.67,4.94-8.4,5.92-19.78,5.26-29.74,2.71-1.74-.45-3.51-.96-4.99-1.97-3.34-2.29-5.93-7.2-9.84-6.15,1.16-1.09.29-3.24-1.19-3.82-1.48-.58-3.15-.07-4.62.55-5.37,2.24-10.51,6.52-11.21,12.3-1.08,8.97,8.74,16.21,8.63,25.24,0,.88-.65,2.07-1.41,1.65"/>
  <path class="cls-1" d="m41.91,20.12c-1.12-1.67-.27-4.09,1.33-5.3,1.61-1.21,3.72-1.48,5.72-1.56,2.74-.12,5.75.14,7.73,2.03,3.33,3.18,1.77,8.91-1.09,12.51-2.86,3.6-6.85,6.5-8.44,10.82-1.66,4.5-.07,10,3.74,12.92-6.48-1.1-12.43-4.96-16.1-10.41-1.93,4.92-6.74,8.57-12,9.1-2.32.24-4.75-.08-6.95.71-4.91,1.78-6.31,7.92-6.99,13.09-4.03-2.74-5.19-8.21-4.88-13.07.31-4.86,1.74-9.64,1.52-14.51-.1-2.25-.56-4.51-.19-6.73,1.15-6.75,9.24-9.9,16.08-9.76-5.78-1.47-11.96-1.35-17.69.34,4.55-1.13,8.74-3.68,11.84-7.19,1.2-1.36,2.28-2.9,3.85-3.79,1.71-.98,3.78-1.06,5.75-1.12,2.54-.08,5.09-.15,7.63-.23,1.67-.05,3.43-.08,4.88.74s2.38,2.8,1.49,4.21c-.82,1.29-2.96,2.54-1.93,3.67.91,1,2.33-.45,3.4-1.28,2.26-1.74,5.62-.36,7.67,1.63s3.64,4.6,6.23,5.8c3.06,1.41,6.64.48,10,.76,3.36.29,7.17,3.18,5.99,6.33-2.08-2.64-5.32-4.32-8.68-4.5-2.27-.12-4.56.41-6.8.06-4.92-.78-8.13-5.43-10.75-9.67-.75.03-1.44.67-1.51,1.42"/>
</svg>