<?xml version="1.0" encoding="UTF-8"?>
<svg id="_レイヤー_1" data-name="レイヤー 1" xmlns="http://www.w3.org/2000/svg" viewBox="0 0 365 93">
  <defs>
    <style>
      .cls-1 {
        fill: #fff;
      }
    </style>
  </defs>
  <g>
    <path class="cls-1" d="m14.85,84.6h-2.53v7.77h-.93v-7.77h-2.52v-.79h5.97v.79Z"/>
    <path class="cls-1" d="m40.15,88.01c0,3.01-1.68,4.5-3.71,4.5-2.12,0-3.63-1.68-3.63-4.35s1.58-4.49,3.73-4.49,3.6,1.75,3.6,4.34Zm-6.36.12c0,1.82.94,3.6,2.68,3.6s2.7-1.72,2.7-3.68c0-1.72-.84-3.61-2.67-3.61s-2.71,1.87-2.71,3.69Z"/>
    <path class="cls-1" d="m64.62,83.8l-2.75,4.89v3.68h-.93v-3.65l-2.61-4.92h1.07l1.19,2.4c.33.64.6,1.19.85,1.81h.03c.24-.57.53-1.16.86-1.82l1.24-2.38h1.04Z"/>
    <path class="cls-1" d="m89.97,88.01c0,3.01-1.68,4.5-3.71,4.5-2.12,0-3.63-1.68-3.63-4.35s1.58-4.49,3.73-4.49,3.6,1.75,3.6,4.34Zm-6.36.12c0,1.82.94,3.6,2.68,3.6s2.7-1.72,2.7-3.68c0-1.72-.84-3.61-2.67-3.61s-2.71,1.87-2.71,3.69Z"/>
    <path class="cls-1" d="m112.74,84.86c-.25-.16-.79-.39-1.5-.39-1.19,0-1.64.73-1.64,1.35,0,.84.52,1.27,1.66,1.75,1.38.58,2.09,1.29,2.09,2.52,0,1.36-.99,2.41-2.83,2.41-.77,0-1.62-.24-2.04-.54l.26-.78c.46.3,1.15.53,1.84.53,1.15,0,1.82-.62,1.82-1.54,0-.84-.46-1.36-1.57-1.81-1.29-.48-2.17-1.24-2.17-2.42,0-1.3,1.06-2.26,2.62-2.26.81,0,1.43.2,1.75.41l-.28.78Z"/>
    <path class="cls-1" d="m138.5,92.37h-.99l-.92-2.78h-2.98l-.9,2.78h-.95l2.83-8.57h1.08l2.83,8.57Zm-2.1-3.52l-.84-2.54c-.18-.58-.33-1.12-.44-1.63h-.03c-.11.52-.27,1.06-.43,1.6l-.85,2.58h2.59Z"/>
    <path class="cls-1" d="m166.52,83.81l-2.36,8.56h-.95l-1.11-4.58c-.28-1.12-.46-1.98-.57-2.83h-.02c-.13.85-.36,1.7-.67,2.82l-1.24,4.59h-.95l-2.12-8.56h.99l1.04,4.45c.25,1.08.48,2.11.63,2.97h.03c.12-.87.4-1.88.69-2.98l1.18-4.44h.94l1.08,4.43c.24,1.02.48,2.05.61,2.98h.03c.17-.98.4-1.92.67-2.98l1.16-4.43h.95Z"/>
    <path class="cls-1" d="m191.26,92.37h-.99l-.92-2.78h-2.98l-.9,2.78h-.95l2.83-8.57h1.08l2.83,8.57Zm-2.1-3.52l-.84-2.54c-.18-.58-.33-1.12-.44-1.63h-.03c-.11.52-.27,1.06-.43,1.6l-.85,2.58h2.59Z"/>
    <path class="cls-1" d="m235.81,92.11c-.39.19-1.16.38-2.13.38-2.2,0-3.98-1.43-3.98-4.33s1.72-4.49,4.22-4.49c1.02,0,1.62.21,1.89.35l-.25.79c-.39-.19-.94-.35-1.62-.35-1.94,0-3.27,1.3-3.27,3.67s1.21,3.58,3.21,3.58c.65,0,1.29-.15,1.72-.35l.2.75Z"/>
    <path class="cls-1" d="m260.65,92.37h-.93v-4.09h-4.09v4.09h-.93v-8.56h.93v3.66h4.09v-3.66h.93v8.56Z"/>
    <path class="cls-1" d="m286,88.93c0,2.58-1.33,3.58-3.03,3.58-1.59,0-2.86-.93-2.86-3.52v-5.17h.93v5.19c0,1.95.85,2.73,1.98,2.73,1.24,0,2.06-.83,2.06-2.73v-5.19h.93v5.12Z"/>
    <path class="cls-1" d="m308.78,88.27c.66.21,1.06.85,1.26,1.79.27,1.24.46,1.99.63,2.32h-.97c-.13-.25-.33-1-.55-2.07-.25-1.19-.72-1.72-1.73-1.72h-1.04v3.79h-.93v-8.45c.53-.11,1.27-.18,1.94-.18,1.11,0,1.84.22,2.35.7.4.37.64.96.64,1.6,0,1.14-.69,1.87-1.59,2.19v.03Zm-1.3-.41c1.19,0,1.95-.67,1.95-1.71,0-1.27-.95-1.66-2-1.66-.51,0-.86.04-1.06.09v3.28h1.1Z"/>
    <path class="cls-1" d="m335.06,92.11c-.39.19-1.16.38-2.13.38-2.2,0-3.98-1.43-3.98-4.33s1.72-4.49,4.22-4.49c1.02,0,1.62.21,1.89.35l-.25.79c-.39-.19-.94-.35-1.62-.35-1.94,0-3.27,1.3-3.27,3.67s1.21,3.58,3.21,3.58c.65,0,1.29-.15,1.72-.35l.2.75Z"/>
    <path class="cls-1" d="m359.91,92.37h-.93v-4.09h-4.09v4.09h-.93v-8.56h.93v3.66h4.09v-3.66h.93v8.56Z"/>
  </g>
  <g>
    <path class="cls-1" d="m57.35,65.83l3.94-4.91h1.04l5.43,5.65v1.78H6.95l-5.2.45-.89-3.42,6.09.45h32.18c1.11-2.53,1.93-4.53,2.45-6.32.3-1.04.52-2.15.67-3.64l.52-.3c5.87,2.16,6.76,2.67,6.76,3.64,0,.89-.97,1.19-3.27,1.34-1.11,1.56-2.53,3.42-4.39,5.28h15.46Zm.97-31.59l3.27-4.16h1.04l4.76,4.91v1.78H8.29l-5.2.45-.89-3.42,6.09.45h50.02Zm-43.56-2.97l-.74.74-3.94.15.37-10.55v-8.25c0-3.34-.3-5.2-1.12-7.43l.45-.45c2.3,1.04,4.16,2.08,6.24,3.27h8.92v-1.56c0-2.53-.22-3.87-.82-5.43l.37-.45c6.24.89,7.51,1.41,7.51,2.3,0,.74-.74,1.19-3.05,1.78v3.34h10.41v-1.56c0-2.53-.22-3.87-.82-5.43l.37-.45c6.24.89,7.51,1.41,7.51,2.3,0,.74-.74,1.19-3.05,1.78v3.34h9.66l2.38-2.9h1.04c3.79,3.05,4.61,3.79,4.61,4.68,0,.74-.67,1.26-2.68,2.01v8.7l.37,9.66-.74.74-4.01.15v-2.38H14.76v1.86Zm35.38,10.18l2.23-2.75h1.04c3.87,2.97,4.68,3.64,4.68,4.53,0,.67-.67,1.19-2.68,1.86v4.98l.37,6.69-.74.74-4.16.15v-3.05H17.88v2.6l-.74.74-4.09.15.37-7.66v-3.86c0-3.64-.3-5.5-1.11-7.73l.45-.45c2.23,1.04,4.01,1.93,5.87,3.05h31.51Zm-25.2-24.01v-6.17h-10.18v6.17h10.18Zm-10.18,9.44h10.18v-6.91h-10.18v6.91Zm3.12,25.2h33v-8.1H17.88v8.1Zm3.64,3.57c5.28,2.23,7.43,4.83,7.43,6.99,0,1.93-.97,2.9-2.45,2.9-1.34,0-1.93-.74-2.53-2.38-.82-2.38-1.56-3.87-3.79-6.32l1.34-1.19ZM39.36,11.28h-10.41v6.17h10.41v-6.17Zm0,8.7h-10.41v6.91h10.41v-6.91Zm14.64-8.7h-10.63v6.17h10.63v-6.17Zm0,8.7h-10.63v6.91h10.63v-6.91Z"/>
    <path class="cls-1" d="m98.9,24.13c7.8,2.01,10.93,4.83,10.93,7.73,0,1.71-.82,2.9-2.45,2.9-1.11,0-1.93-.59-3.2-2.82-1.41-2.38-2.97-4.09-6.17-6.24l.89-1.56Zm24.68-7.8c-4.53,13.23-9.66,25.49-12.78,34.56-.45,1.41-.89,3.27-.89,4.16,0,1.71.45,3.12,1.04,4.46.67,1.78,1.41,3.42,1.41,5.43,0,2.6-1.49,3.57-3.27,3.57-1.93,0-3.27-1.49-3.27-4.38,0-2.23.07-3.57.07-5.13,0-2.97-.82-4.38-6.39-7.28l.59-1.64c2.75.82,3.86,1.04,4.76,1.04.97,0,1.56-.45,2.53-2.38,3.94-8.77,9.37-21.11,14.49-32.93l1.71.52Zm-18.43-12.64c7.8,2.3,11.45,5.65,11.45,8.55,0,1.71-.82,3.12-2.53,3.12-1.34,0-2.08-.74-3.05-2.68-1.56-3.05-3.57-5.28-6.76-7.43l.89-1.56Zm38.57,26.76c3.49,16.57,10.78,25.2,24.3,32.63l-.37,1.56c-2.53.22-4.01,1.78-4.76,3.94-12.04-8.77-19.1-20.51-21.78-38.13h-8.4c-.82,18.28-5.57,29.43-18.36,39.32l-1.26-1.26c10.7-10.7,14.94-22.89,14.94-45.04v-11.22c0-3.34-.22-5.13-1.11-7.88l.45-.45c2.23,1.04,4.16,2.01,6.24,3.2h22.52l2.38-2.9h1.04c4.01,3.05,5.05,3.79,5.05,4.68,0,.74-.67,1.26-2.68,2.01v9.96l.37,13.3-.74.74-4.46.15v-4.61h-13.38Zm13.38-2.53V9.64h-24.23v14.12c0,1.41,0,2.82-.07,4.16h24.3Z"/>
    <path class="cls-1" d="m259.45,21.53c-.67,4.76-1.49,9.51-2.9,14.12-1.49,4.9-3.57,9.59-6.24,13.97,3.72,5.87,8.84,11,16.13,15.09l-.67,1.41c-2.6-.37-4.16.45-5.95,2.53-5.05-4.38-9.14-9.44-12.26-15.16-5.8,7.43-13.45,12.71-22.97,16.35l-1.04-1.49c9.22-4.61,16.57-10.85,21.85-19.18-3.27-7.43-5.28-15.31-6.24-23.41-1.86,3.42-4.09,6.61-6.76,9.59l-.45-.37c0,.82-.45,1.12-3.05,1.78-2.53,1.93-5.05,3.87-7.8,5.65.82.3,1.04.59,1.04.97,0,.59-.74,1.04-3.05,1.63v3.2c4.61-1.26,9.29-2.75,13.97-4.53l.52,1.78c-4.76,2.3-9.59,4.16-14.49,5.95v2.9l.15,9.22c0,4.24-2.38,6.32-8.7,6.54-.22-2.53-1.04-3.49-5.28-4.91l.37-1.71c4.31.52,5.95.67,7.21.67,1.34,0,1.93-.6,1.93-1.93v-9.29c-3.72,1.19-7.43,2.3-11.3,3.49-.15,2.3-.59,3.12-1.49,3.12-.82,0-1.34-.59-4.39-6.61l.3-.52c1.93.07,3.57-.22,5.95-.67,3.42-.67,7.14-1.41,10.93-2.38v-2.38c0-2.68-.22-4.01-.82-5.72l.37-.45c1.93.37,3.42.67,4.53.97,2.01-2.01,3.79-4.16,5.43-6.39h-10.63c-5.28,4.46-11,7.73-17.47,10.11l-.89-1.56c4.91-2.3,9.44-5.13,13.53-8.55h-3.42l-5.2.45-.89-3.42,6.09.45h6.32c2.6-2.38,4.98-5.13,7.21-7.88h-16.05l-5.28.45-.82-3.42,6.09.45h9.36v-7.51h-6.02l-5.28.45-.82-3.42,6.09.45h6.02v-4.31c0-2.75-.22-4.09-.82-5.87l.37-.45c6.69,1.11,7.95,1.49,7.95,2.45s-.59,1.26-3.05,1.93v6.24h2.68l2.53-3.42h1.04l3.72,4.01c.22-.37.37-.74.59-1.12,1.56-2.97,2.3-4.91,2.9-6.69l.52-.07c4.39,2.68,5.8,3.64,5.8,4.61,0,.59-.22.96-1.34.96-.45,0-1.19-.07-2.08-.22-2.53,4.46-5.05,8.4-7.66,11.97h2.75l2.38-3.12h1.04l3.72,3.86v1.78h-11.74c-2.23,2.75-4.61,5.43-7.14,7.88h7.66l2.23-2.53h1.04c2.23,1.86,3.42,2.75,4.01,3.42,5.28-7.95,7.8-17.09,9.07-25.12.37-2.45.67-4.53.67-6.91l.52-.22c6.54,2.08,7.88,2.68,7.88,3.79,0,.89-.67,1.19-3.64,1.64-.89,4.31-2.01,8.33-3.49,12.12h14.42l3.27-4.16h1.04l4.76,4.91v1.78h-6.39Zm-42.74.89h4.09c1.78-2.38,3.34-4.91,4.76-7.51h-8.84v7.51Zm24.6-.89c-.15.37-.3.67-.45,1.04,1.26,7.8,3.27,15.53,6.91,22.6,3.79-7.43,5.8-15.39,6.84-23.64h-13.3Z"/>
    <path class="cls-1" d="m325.46.72c6.69,2.53,8.47,3.49,8.47,4.68,0,.89-.52,1.34-3.2,1.04,8.18,10.41,19.03,17.02,33.37,21.04l-.3,1.63c-2.68.22-4.31,1.56-5.28,4.16-12.19-5.95-21.85-13.82-29.73-25.72-10.03,14.34-21.48,22.15-34.86,27.13l-.82-1.56c12.56-6.32,22.6-15.24,29.28-25.87,1.49-2.38,2.16-4.16,2.53-6.24l.52-.3Zm-3.42,43.93c4.24,1.64,5.28,2.53,5.28,3.27,0,.89-.97,1.19-3.64.97-3.12,4.91-6.47,9.14-10.63,13.08,10.41,0,20.81-.82,31.14-1.56-2.38-2.75-5.43-5.43-8.77-7.73l.97-1.49c10.85,4.01,17.84,11.15,17.84,14.72,0,2.23-1.04,3.42-2.68,3.42-1.34,0-2.08-.59-3.27-2.97-.67-1.34-1.49-2.68-2.45-3.94-14.27,2.16-23.71,3.34-39.24,4.76-.15,1.86-.74,2.97-1.64,2.97-1.11,0-2.3-1.93-5.13-7.88l.3-.52c2.3.37,4.98.3,8.55.3h1.34c3.2-4.38,5.8-9.44,7.51-13.45.67-1.56,1.04-2.68,1.26-3.94h-15.53l-5.2.45-.89-3.42,6.09.45h46.97l3.79-4.76h1.04l5.28,5.5v1.78h-38.28Zm-4.76-13.01l-5.2.45-.89-3.42,6.09.45h18.58l3.42-4.09h1.04l4.83,4.83v1.78h-27.87Z"/>
  </g>
</svg>