<?xml version="1.0" encoding="UTF-8"?>
<svg id="_レイヤー_1" data-name="レイヤー 1" xmlns="http://www.w3.org/2000/svg" viewBox="0 0 439 99">
  <defs>
    <style>
      .cls-1 {
        fill: #343434;
      }
    </style>
  </defs>
  <g>
    <path class="cls-1" d="m11.82,5.71c0-.62-.06-1.01-.13-1.24-.04-.09-.06-.17-.06-.23,0-.11.08-.15.17-.15.15,0,.68.23,1.03.56.09.09.15.21.15.3,0,.04-.02.09-.04.13-.08.13-.15.41-.17.68-.02.21-.04.41-.06.66.66-.06,1.33-.09,1.99-.13.04-.34.06-.64.08-.9.02-.17.02-.34.02-.49,0-.3-.02-.51-.09-.68-.04-.09-.06-.15-.06-.21,0-.09.06-.17.15-.17.11,0,.62.15,1.07.49.24.19.28.26.28.38s-.04.21-.11.3c-.06.11-.09.36-.17.68-.04.17-.08.38-.11.56.41,0,1.07-.08,1.37-.19.15-.04.26-.08.43-.08.24,0,.83.15,1.28.53.23.19.34.28.34.53,0,.19-.19.26-.41.26-.07,0-.17,0-.26-.02-.84-.09-1.8-.13-2.91-.13-.02.19-.06.38-.09.56-.15.81-.3,1.61-.49,2.42.23,0,.51-.02.69-.08.23-.09.49-.15.66-.15.21,0,.69.21.96.39.11.08.23.28.23.45,0,.13-.17.26-.34.26h-1.31c-3.85,0-6.79.26-9.55.64-.41.06-1.01.22-1.26.22-.11,0-.19-.02-.34-.13-.3-.23-.58-.54-.58-.66,0-.08.08-.11.23-.13.3-.02.88-.07,1.13-.11.41-.06.81-.11,1.22-.15-.09-.94-.17-1.88-.32-2.8-.43.06-.83.11-1.18.17-.38.08-.98.21-1.33.28-.06.02-.19.04-.26.04-.09,0-.23-.04-.41-.19-.36-.28-.64-.54-.64-.64,0-.06.06-.11.13-.11.83-.09,1.43-.15,2.48-.26.3-.04.66-.09,1.07-.13l-.04-.24c-.08-.53-.21-1.05-.36-1.37-.04-.09-.08-.19-.08-.26,0-.06.04-.11.09-.11.13,0,.84.36,1.18.68.17.17.24.38.24.69,0,.17.02.34.04.49.54-.07,1.28-.15,1.65-.19-.04-.43-.06-.83-.09-1.18-.04-.39-.13-.77-.21-.96-.04-.09-.06-.17-.06-.22,0-.08.04-.13.15-.13.13,0,.69.19,1.07.49.13.09.17.19.17.3,0,.15-.08.34-.08.64v.98c.75-.08,1.31-.11,1.86-.17v-.77Zm-7.02,10.04c-.24.43-.53.62-.79.62-.3,0-.68-.32-.68-.71,0-.32.08-.51.28-.71.23-.23.45-.47.68-.83.17-.28.47-.84.54-1.14.04-.15.09-.23.21-.23.09,0,.21.24.21.98,0,.81-.11,1.43-.45,2.03ZM6.96,3.82c-.39.39-1.39,1.24-2.18,1.76-.08.04-.13.06-.19.06-.13,0-.21-.08-.21-.17,0-.06.02-.09.08-.15.58-.53,1.18-1.2,1.58-1.73.3-.41.62-.94.81-1.31.09-.19.23-.54.23-.66,0-.3-.19-.69-.19-.77,0-.17.07-.24.21-.24s.75.3,1,.47c.24.17.47.36.47.62,0,.23-.23.39-.43.71-.11.17-.24.34-.38.49.49-.04.92-.08,1.46-.13.79-.08,2.83-.26,4.04-.43.47-.06.68-.09.9-.23.15-.08.36-.11.53-.11.23,0,.66.08.94.24.24.15.39.36.39.56,0,.28-.41.3-.79.32-.51.02-1.07.04-1.78.09-1.22.09-2.4.19-3.72.36-1.05.13-1.54.21-1.65.21-.15,0-.24-.02-.75-.38-.11.15-.23.28-.36.41Zm2.1,3.72c-.45.06-1.11.15-1.65.23.06.81.09,1.8.13,2.85.49-.06,1.11-.11,1.67-.17-.04-.98-.09-2.01-.15-2.91Zm.73,7.7c0,.43-.24.64-.51.64-.13,0-.28-.08-.41-.21-.17-.19-.36-.54-.51-.99-.15-.49-.39-1.48-.39-1.67,0-.09.06-.15.13-.15.13,0,.92.62,1.33,1.37.24.41.36.73.36,1.01Zm2.01-7.94c-.62.04-1.22.09-1.84.15,0,.98.02,1.97.06,2.95.56-.06,1.24-.09,1.73-.11,0-.66.04-1.86.06-2.98Zm1.03,8.16c-.17-.17-.39-.41-.66-1.03-.21-.51-.51-1.45-.51-1.56s.04-.17.13-.17c.04,0,.11.02.19.06.56.3,1.07.83,1.46,1.41.19.3.3.54.3.81,0,.36-.21.66-.54.66-.11,0-.24-.04-.38-.17Zm1.78-8.28c-.75.02-1.31.04-1.97.08-.06.98-.11,1.99-.15,2.98.56-.04,1.15-.06,1.71-.08.17-1,.3-1.99.41-2.98Zm3.77,8.07c0,.38-.21.69-.51.69-.17,0-.36-.09-.56-.32-.19-.19-.41-.54-.64-.9-.28-.43-.53-.92-.94-1.61-.04-.07-.06-.13-.06-.19,0-.08.06-.13.11-.13s.09.02.15.04c1.24.51,1.91,1.18,2.23,1.71.15.24.21.49.21.71Z"/>
    <path class="cls-1" d="m26.23,6.63c-.66.09-1.2.21-1.73.32-.09.02-.23.04-.3.04s-.17-.02-.24-.09c-.32-.28-.51-.6-.51-.71,0-.06.04-.09.19-.11.86-.09,1.71-.21,2.57-.34-.02-.86-.04-1.75-.08-2.4-.06-.67-.15-1.13-.32-1.44-.04-.06-.06-.11-.06-.17,0-.13.13-.21.24-.21.23,0,.68.13,1.03.32.38.19.56.34.56.54,0,.15-.04.26-.11.41-.08.15-.13.38-.17,1.18-.02.3-.04.83-.06,1.61.23-.04.53-.11.64-.17.15-.08.28-.11.39-.11.09,0,.26.04.53.15.23.09.45.26.45.45,0,.24-.21.34-.45.38-.47.04-1.01.11-1.58.19-.04,1.18-.06,2.36-.06,3.55.56-.32,1.11-.68,1.71-1.09.06-.04.09-.06.17-.06.11,0,.19.08.19.17,0,.06-.02.11-.06.15-1.33,1.31-2.55,2.16-3.75,2.98-.23.13-.56.39-.81.64-.09.09-.17.13-.26.13-.11,0-.23-.07-.36-.19-.41-.34-.79-.98-.79-1.11,0-.09.08-.17.19-.17h.15c.54,0,.86-.09,1.43-.34.39-.17.83-.38,1.29-.62l-.06-3.88Zm12.05.39c-.23,0-.51,0-.83.02-1.99.13-4.35.39-6.38.64-.07,1.07-.23,2.31-.79,3.74-.54,1.35-1.5,2.74-2.82,3.68-.04.02-.09.04-.13.04-.08,0-.15-.06-.15-.13,0-.04.02-.07.06-.11.96-1.07,1.67-2.36,2.14-3.73.39-1.2.56-2.53.62-3.79.04-.56.04-1.05.04-1.46s0-.71-.02-.88c-.02-.32-.17-.77-.26-1.01-.02-.06-.04-.13-.04-.17,0-.13.08-.21.21-.21.19,0,.71.26,1.05.58,1.71-.64,3.51-1.45,4.65-2.42.23-.19.36-.39.38-.66.02-.17.11-.28.24-.28.15,0,.73.43.98.73.17.21.32.38.32.53,0,.17-.09.3-.47.47-.53.26-1.33.6-2.23.96-1.29.51-2.5.84-3.66,1.11.02.11.02.26.02.45,0,.39-.02.94-.07,1.75,2.23-.28,3.72-.43,5.25-.6.32-.04.77-.15.96-.24.21-.09.38-.13.54-.13.32,0,.77.15,1.09.34.3.21.39.34.39.51,0,.22-.17.32-.53.32h-.56Zm-5.12,8.86c0,.39-.08.62-.43.62-.34,0-.58-.41-.62-1.11-.04-.62-.13-1.8-.23-2.93-.04-.6-.09-1.13-.24-1.73-.07-.28-.15-.43-.24-.6-.04-.06-.06-.11-.06-.19,0-.13.08-.21.23-.21s.6.23,1.09.54c1.56-.19,2.93-.34,4-.45.3-.02.51-.24.71-.24s.6.13,1.05.51c.38.28.62.53.62.75,0,.13-.09.28-.28.49-.21.22-.28.62-.34.9-.13.58-.28,1.35-.47,2.2.24.19.45.45.45.68,0,.26-.19.32-.71.32-.39,0-1.09.02-1.91.06-1.09.06-1.91.11-2.61.19v.21Zm3.87-1.35c.17-1.35.28-2.8.34-3.85-1.54.06-3.12.23-4.47.45.06,1.24.11,2.5.21,3.74,1.3-.15,2.61-.26,3.92-.34Z"/>
    <path class="cls-1" d="m55.06,15.64c-1.46,0-2.59-.47-3.62-1.13-1.41-.88-2.1-2.23-2.1-3.77,0-1.41.69-2.98,1.63-4.13.92-1.11,1.9-1.99,2.89-2.68-2.68.43-5.5,1.09-7.39,1.6-.28.08-.47.11-.64.11-.24,0-.49-.17-.81-.51-.28-.28-.54-.73-.54-.83s.09-.13.21-.13.41.11.88.11c.38,0,.81-.06,1.31-.13,2.87-.41,5.82-.84,8.33-1.26.39-.06.81-.21,1.13-.3.08-.02.17-.04.28-.04.15,0,.39.08.81.45.28.24.38.39.38.54,0,.17-.09.32-.3.34-.62.08-1.31.21-1.78.36-1.26.39-2.51,1.24-3.77,2.67-1.07,1.18-1.78,2.52-1.78,3.79s.54,2.21,1.88,2.82c1.03.49,1.67.69,2.61.69.84,0,1.33.56,1.33,1.01,0,.28-.21.41-.77.41h-.15Zm4.88-12.59c0,.23-.23.45-.43.45-.15,0-.34-.09-.73-.58-.41-.53-.9-1.09-1.18-1.35-.04-.04-.04-.06-.04-.09,0-.06.04-.11.11-.11.17,0,.98.19,1.58.64.45.34.69.73.69,1.05Zm1.5-1.26c0,.34-.15.56-.43.56-.21,0-.34-.17-.71-.56-.43-.45-.88-.94-1.24-1.24-.06-.06-.07-.08-.07-.11,0-.06.06-.09.13-.09.21,0,.96.15,1.56.53.47.3.77.71.77.92Z"/>
    <path class="cls-1" d="m68.02,4.58c.45-.02,1.6-.13,2.67-.26.08-.56.13-1.05.19-1.6.02-.17.02-.21.02-.26,0-.24-.06-.49-.15-.77-.02-.06-.04-.09-.04-.13,0-.09.06-.17.17-.17.32.02.77.19,1.09.39.24.17.41.36.41.51,0,.11-.04.24-.09.32-.11.17-.19.36-.3.69-.08.23-.17.56-.24.86,1-.17,2.33-.43,3.06-.68.26-.09.39-.17.49-.22.17-.11.43-.23.62-.23.84,0,1.18.21,1.18.53,0,.3-.08.41-.77.6-.92.26-3.13.68-4.77.88-.13.94-.21,1.8-.23,2.36.73-.28,1.9-.51,3.08-.56.08-.34.13-.73.13-.98,0-.15-.04-.22-.04-.28s.06-.09.11-.09c.04,0,.08,0,.13.04.41.24.77.73.77,1.18,0,.06,0,.09-.02.15,2.91.41,4.2,2.27,4.2,4.17,0,2.76-2.05,4.47-6.38,4.67-.11,0-.23-.09-.23-.23,0-.11.06-.21.21-.24,3.49-.75,5.16-2.12,5.16-4.5,0-1.88-1.45-3.12-3.21-3.23-.88,2.06-2.23,3.66-3.36,4.77.09.24.23.47.32.69.08.19.15.39.15.54,0,.26-.19.41-.45.41-.21,0-.41-.15-.53-.36-.09-.17-.17-.36-.28-.66-1.58,1.45-2.82,1.97-3.3,1.97-.23,0-.51-.15-.83-.51-.45-.51-.73-1.26-.73-1.99,0-1.8,1.78-3.57,4.19-4.6,0-.34.06-1.75.15-2.61-.98.13-1.97.24-2.65.3h-.17c-.24,0-.32-.04-.39-.09-.3-.24-.6-.56-.6-.69,0-.07.04-.13.11-.13s.19.02.71.02h.43Zm2.4,3.96c-1.07.58-2.14,1.5-2.65,2.21-.53.73-.79,1.41-.79,1.67,0,.34.11.6.36.92.23.3.53.56.66.56.11,0,.28-.06.49-.15.71-.36,1.58-.98,2.33-1.69-.21-.96-.39-2.21-.39-3.36v-.17Zm1.2,2.89c1.33-1.5,2.21-2.97,2.59-3.98-1.07,0-2.23.34-2.93.66,0,1.22.15,2.57.34,3.32Z"/>
    <path class="cls-1" d="m95.7,7.42c2.91,0,4.37,1.65,4.37,3.66,0,2.25-2.08,4.33-6.87,4.6-1.05.06-2.18.06-2.33.06-.17,0-.43-.11-.43-.26,0-.13.11-.24.39-.26,4.56-.23,7.86-1.78,7.86-4.26,0-1.24-.73-2.87-3.1-2.87-1.97,0-4.26.9-6.14,2.21-.68.47-.92.79-1.24,1.07-.13.11-.24.17-.36.17-.07,0-.15-.04-.24-.13-.28-.26-.49-.69-.49-.81,0-.17.15-.3.43-.47.26-.15.56-.28,1.16-.81,1.65-1.43,4.71-4.5,6.33-6.47-1.45.21-3.23.54-4.54.86-.28.08-.54.15-.73.15-.15,0-.26-.06-.39-.17-.3-.23-.62-.71-.62-.81,0-.08.06-.13.15-.13.15,0,.32.02.45.02.51,0,1.05-.06,1.45-.11,1.15-.13,2.8-.43,4.13-.68.3-.06.64-.19.81-.3.13-.09.24-.13.36-.13.17,0,.36.09.68.41.36.38.41.54.41.62,0,.13-.08.26-.23.32-.38.15-.69.43-1,.69-1.67,1.39-3.55,3.34-5.42,5.16,1.6-.79,3.42-1.33,5.14-1.33Z"/>
    <path class="cls-1" d="m108.56,6.99c.13,0,.47.08.68.08.15,0,.41,0,1.2-.24,2.03-.62,3.73-.99,4.82-.99,2.21,0,3.7,1.35,3.7,3.9s-1.2,4.17-2.89,5.03c-1.18.62-3.04.99-4.34,1.01-.23,0-.34-.07-.34-.17,0-.11.08-.22.21-.24,3.6-.64,6.01-2.27,6.01-5.67,0-2.48-1.11-3.06-2.12-3.06-1.09,0-2.35.32-4.15,1.11-.73.32-1.16.56-1.39.56-.43-.02-1.11-.51-1.48-1.01-.06-.08-.08-.13-.08-.17,0-.08.04-.13.17-.13Zm6.96-4.82c1.39.41,1.8.88,1.8,1.41,0,.26-.17.49-.47.49-.32,0-.66-.15-1.28-.53-1.01-.62-2.33-1.18-3.53-1.6-.09-.04-.15-.13-.15-.19,0-.13.08-.21.19-.21,1.01.06,2.16.22,3.43.62Z"/>
    <path class="cls-1" d="m131.76,3.33c-.09-.43-.23-.75-.54-1.16-.04-.06-.06-.11-.06-.15,0-.11.11-.21.3-.21.49.02,1.05.22,1.31.36.26.13.34.34.34.53,0,.13-.07.34-.07.58,0,.22.04.47.07.75.23,1.41.49,2.5.94,3.42,1.09-.62,2.42-1.24,3.47-1.86.6-.36.84-.62.86-1,.02-.17.06-.24.17-.24.15,0,.62.26,1.01.75.26.34.32.49.32.62,0,.19-.15.34-.54.49-2.12.84-4.41,1.86-6.76,3.25-1.58.94-2.29,1.99-2.29,2.91,0,.86.43,1.37,1.41,1.69.53.17,1.28.26,2.7.26,1.54,0,3.44-.24,4.02-.41.36-.09.6-.11.77-.11.39,0,.79.17.99.53.06.09.09.21.09.32,0,.23-.15.45-.62.53-.88.17-2.55.26-4.77.26-1.6,0-2.89-.15-3.75-.49-.88-.34-1.69-1.18-1.69-2.53,0-1.45.75-2.55,3.7-4.41-.6-1.2-1.01-2.87-1.39-4.66Z"/>
    <path class="cls-1" d="m150,5.13c-1.22.34-1.48.41-1.78.51-.13.04-.23.08-.32.08s-.19-.04-.3-.13c-.36-.3-.73-.84-.73-.96,0-.08.06-.11.13-.11.09,0,.3.06.73.06.66,0,1.84-.26,2.74-.45.3-.71.62-1.58.84-2.37.04-.17.06-.28.06-.49,0-.26-.04-.49-.04-.6,0-.17.06-.24.19-.24.23,0,.79.36,1.01.58.15.15.23.28.23.39,0,.08-.02.15-.09.24-.23.32-.34.56-.53.94-.17.34-.47.94-.66,1.29.66-.15,1.3-.32,1.93-.51-.04-.13-.09-.32-.09-.39,0-.09.06-.15.15-.15s.36.11.64.36c.69-.23.99-.32,1.09-.32.13,0,.23.08.23.19,0,.08-.06.15-.15.19-.26.11-.51.21-.79.32.09.19.09.21.09.34s-.04.28-.08.45c-.11.43-.32.98-.62,1.45-.3.47-.54.81-.79,1.09.21.11.34.21.53.36.28.23.47.53.47.81,0,.23-.15.49-.39.49-.17,0-.43-.09-.71-.34-.24-.21-.47-.41-.69-.58-.98.71-2.06,1.28-3.23,1.61-.06.02-.17.04-.23.04-.09,0-.17-.08-.17-.15s.06-.17.15-.21c.9-.38,1.93-.9,2.87-1.75-.32-.21-.66-.38-1.03-.49-.19-.06-.34-.08-.49-.08-.24,0-.36.06-.43.06s-.15-.04-.21-.11c-.09-.15-.21-.49-.21-.58,0-.11.08-.17.23-.21.15-.04.23-.19.32-.36l.13-.26Zm8.63,5.31c-1.22.13-2.23.24-3.3.41-.47.86-1.13,1.88-1.91,2.67-1.41,1.41-2.89,2.23-4.47,2.8-.06.02-.17.04-.23.04-.09,0-.15-.06-.15-.13,0-.06.04-.15.17-.21,1.39-.71,2.72-1.75,3.68-2.8.66-.73,1.13-1.45,1.5-2.16-.79.13-1.73.28-2.16.36-.19.04-.26.06-.36.06-.08,0-.13-.02-.21-.08-.39-.32-.56-.58-.56-.64,0-.09.11-.11.28-.13.99-.08,1.93-.21,3.42-.38.08-.15.15-.28.21-.41.13-.26.19-.51.19-.73,0-.36-.17-.62-.17-.71,0-.11.08-.22.26-.22.17,0,.64.15,1.13.39.24.13.36.28.36.41s-.09.26-.21.41-.15.23-.36.68c1.05-.13,1.99-.24,2.74-.32.36-.04.38-.19.68-.19.26,0,.56.24.9.6.24.26.39.49.39.66,0,.15-.07.26-.23.38-.13.09-.24.28-.34.56-.51,1.46-1.22,3.43-2.31,4.75-.19.23-.36.32-.51.32-.11,0-.23-.04-.32-.11-.51-.36-1.13-.92-1.63-1.59-.04-.06-.06-.09-.06-.13,0-.06.04-.09.11-.09.04,0,.11.02.17.04.45.15,1.18.34,1.41.34s.41-.09.53-.28c.51-.79,1.3-2.67,1.63-4.2.02-.08.02-.13.02-.17,0-.13-.06-.17-.19-.17h-.11Zm-7.62-5.63c-.21.41-.41.79-.6,1.14.45.08,1.09.26,1.93.54.64-.69,1.15-1.71,1.15-2.55-.81.3-1.65.6-2.48.86Zm4.92,3.06s-.11.04-.17.04c-.08,0-.13-.08-.13-.17,0-.06.02-.09.09-.15.9-.58,1.8-1.31,2.53-2.1-.62-.64-1.14-1.16-1.61-1.56-.21-.17-.32-.22-.54-.36-.06-.04-.09-.09-.09-.15s.06-.13.21-.17c.11-.02.21-.02.28-.02.3,0,.49.08.6.17.83.75,1.13,1.07,1.67,1.52.75-.94,1.43-2.12,1.71-3.02-1.07.13-2.5.41-3.34.6-.21.04-.32.08-.41.08-.07,0-.13-.02-.21-.09-.23-.23-.45-.53-.45-.64,0-.06.04-.08.13-.09.62-.06,2.12-.24,2.95-.38.79-.13.88-.13,1.18-.26.11-.06.3-.13.43-.13.15,0,.39.08.71.32.41.3.53.49.53.62s-.07.21-.17.32c-.13.17-.24.36-.54.83-.51.79-1.15,1.67-1.84,2.38,1.22.88,2.23,1.39,2.83,1.61s1.29.45,1.88.68c.13.06.19.13.19.19,0,.08-.08.13-.23.17-.73.19-1.82.28-2.1.28-.34,0-.56-.06-.92-.36-.88-.71-1.58-1.31-2.25-1.97-.83.75-1.75,1.35-2.91,1.82Z"/>
    <path class="cls-1" d="m176.58,5.2c.32-.81.47-1.61.53-1.99.02-.19.04-.39.04-.58,0-.43-.08-.53-.08-.6,0-.09.08-.17.15-.17.11,0,.62.24.98.56.19.15.34.36.34.47,0,.23-.09.34-.21.62-.11.3-.34.9-.6,1.63,3.6.22,5.18,2.57,5.18,5.1,0,2.29-1.35,3.58-2.76,4.35-1.29.71-2.72.94-4.24.98-.15,0-.26-.11-.26-.28,0-.11.06-.21.19-.23,1.61-.28,2.82-.66,3.89-1.39,1.2-.83,1.9-1.95,1.9-3.68,0-2.48-1.41-4.13-4.13-4.17-.77,1.84-1.61,3.32-2.59,4.82.24.3.43.51.6.68.21.21.34.45.34.66,0,.3-.15.49-.38.49-.32,0-.71-.3-1.18-.94-1.6,2.16-2.65,2.82-3.23,2.82-.62,0-.83-.73-1.07-1.18-.28-.54-.66-1.09-.66-1.75,0-1.48.81-2.91,2.46-4.24-.3-.71-.62-1.59-.92-2.57-.15-.51-.34-.9-.51-1.18-.04-.06-.08-.11-.08-.17s.04-.11.13-.11c.08,0,.62.13,1.2.56.24.19.3.36.36.77.06.36.28,1.18.66,2.1,1.26-.77,2.72-1.28,3.96-1.39Zm-6.38,6.38c0,.39.19,1.05.45,1.41.11.17.24.26.38.26.58,0,1.37-.64,2.68-2.42-.53-.75-1.07-1.67-1.6-2.83-1.13,1.01-1.91,2.57-1.91,3.58Zm4.13-1.71c.88-1.35,1.56-2.72,1.99-3.94-1.07.15-2.33.64-3.42,1.41.34.84.9,1.88,1.43,2.53Z"/>
    <path class="cls-1" d="m191.99,17.07c-.24,0-.51-.11-.75-.54-.83-1.45-1.67-2.44-2.76-3.28-.04-.04-.06-.08-.06-.11,0-.08.08-.19.17-.19.04,0,.11.02.17.04.98.3,1.95.79,2.74,1.41.81.62,1.2,1.33,1.2,1.73,0,.54-.19.96-.71.96Z"/>
    <path class="cls-1" d="m207.8,5.2c-1.61.13-3.02.28-3.94.39-.24.02-.62.08-.86.11-.11.02-.19.04-.3.04-.17,0-.26-.06-.34-.11-.32-.24-.56-.58-.56-.68,0-.07.08-.11.21-.11.36-.02.69-.06,1.73-.13.92-.08,2.78-.26,4.11-.38v-.45c0-.6-.02-.96-.04-1.39-.02-.51-.11-.81-.23-1.05-.02-.04-.04-.09-.04-.13,0-.11.07-.17.21-.17s.73.15,1.13.36c.38.21.47.38.47.51s-.04.23-.17.41c-.15.21-.23.6-.26,1.82,1.48-.13,2.59-.19,2.91-.26.24-.08.53-.11.69-.11.69,0,1.24.41,1.24.71,0,.34-.15.43-.49.43-.38,0-.9-.04-1.43-.04-.58,0-1.78.08-2.98.15-.04.77-.06,1.8-.06,2.78,1.2-.15,2.01-.34,2.23-.45.26-.11.54-.26.73-.26.68,0,1.15.21,1.15.54s-.26.41-.88.54c-.99.21-2.25.41-3.21.51,0,1.24.09,2.46.17,3.19,1.09.28,2.78.81,3.77,1.24.88.39,1.2.69,1.2,1.16,0,.26-.09.51-.41.51-.21,0-.58-.21-1.5-.66-1.09-.53-2.23-1.01-3.08-1.24,0,.11.02.23.02.34,0,1.48-.83,2.4-3.02,2.4-2.52,0-3.64-.92-3.64-2.1s1.33-2.06,3.27-2.06c.83,0,1.69.06,2.33.19-.02-.88-.06-2.01-.07-2.83-.92.07-1.8.11-2.82.11-.56,0-.83-.04-1.01-.13-.23-.11-.53-.32-.75-.64-.04-.06-.06-.09-.06-.15,0-.08.07-.15.17-.15t.09.02c.41.11.84.19,1.37.19.98,0,2.01-.04,2.97-.15v-2.82Zm.11,7.51c-.64-.21-1.6-.39-2.61-.39-1.41,0-2.23.51-2.23,1.28s.86,1.2,2.5,1.2c1.75,0,2.35-.56,2.35-1.95v-.13Z"/>
    <path class="cls-1" d="m226.45,15.55c-.21,0-.34-.15-.34-.28s.07-.24.23-.26c1.16-.11,2.27-.26,3.55-.73,1.97-.75,2.93-1.95,2.93-3.75,0-1.01-.39-1.84-1.05-2.27-.43-.24-.96-.39-1.54-.39-1.71,0-4.09.81-5.86,1.67-.39.19-.58.3-.71.3s-.32-.08-.51-.21c-.3-.21-.71-.64-.71-.79,0-.07.06-.13.19-.13.43,0,.98-.08,1.9-.38,2.48-.77,4.41-1.18,5.54-1.18,2.93,0,3.96,1.95,3.96,3.53,0,2.27-1.31,3.68-3.81,4.35-1.26.36-2.53.53-3.58.53h-.17Z"/>
    <path class="cls-1" d="m253.14,4.96c-.6.02-1.24.06-2.01.11-.02,1.01-.08,2.35-.11,3.92.15.58.19,1.15.19,1.88-.04,2.89-2.27,4.49-5.52,4.86-.17.02-.19.02-.26.02-.17,0-.3-.09-.3-.19,0-.11.07-.24.3-.28,2.48-.56,4.32-2.12,4.56-3.53-.26.26-.77.39-1.35.39-1.61,0-2.78-1.18-2.78-2.5,0-1.69,1.35-2.82,2.61-2.82.6,0,1.37.26,1.67.77,0-.32.02-.64.02-.99,0-.49-.02-1-.04-1.48-2.25.19-4.65.47-7.11.86-.11.02-.19.04-.26.04-.11,0-.17-.02-.36-.17-.26-.21-.47-.56-.47-.64s.07-.11.21-.13c2.63-.3,5.67-.62,8-.83-.02-.17-.02-.41-.02-.66-.02-.73-.13-1.39-.43-1.88-.04-.06-.06-.11-.06-.17,0-.08.08-.15.21-.15.15,0,.66.08,1.11.28.43.19.53.32.53.54,0,.11-.04.24-.09.39-.08.19-.15.6-.17.92,0,.17-.02.38-.02.62,1.18-.09,2.25-.17,2.89-.24.3-.04.39-.09.66-.09.49,0,.94.11,1.22.28.28.17.43.38.43.6,0,.24-.23.3-.83.3-.34,0-1.03-.06-1.88-.06h-.53Zm-4.69,2.46c-.98,0-1.8,1.07-1.8,2.06,0,1.13.98,1.73,1.88,1.73s1.58-.36,1.58-1.52c-.11-1.6-.81-2.27-1.65-2.27Z"/>
    <path class="cls-1" d="m273.06,3.05c0,.32-.28.53-.62.79-.62.45-1.52,1.07-2.82,1.95-1.16.81-2.55,1.67-4.32,2.7-.26.15-.36.21-.36.24s.09.09.41.26c2.2,1.22,4.58,2.74,6.59,4.34,1.31,1.03,1.5,1.41,1.5,1.86,0,.41-.36.68-.68.68-.24,0-.45-.11-1.13-.77-2.1-2.06-3.72-3.43-6.76-5.39-.19-.13-.38-.28-.6-.38-.13-.06-.19-.09-.24-.24-.04-.11-.04-.21-.04-.3,0-.11.02-.28.04-.38.04-.15.17-.24.41-.32.32-.11.66-.36.81-.45,2.14-1.39,4.3-3.1,5.5-4.22.36-.36.58-.6.69-.79.09-.17.15-.38.15-.56,0-.13-.04-.23-.04-.3s.04-.09.11-.09c.13,0,.28.06.53.23.47.32.84.79.84,1.14Zm3.25,2.68c0,.23-.23.45-.43.45-.15,0-.34-.09-.73-.58-.41-.53-.9-1.09-1.18-1.35-.04-.04-.04-.06-.04-.09,0-.06.04-.11.11-.11.11,0,.9.15,1.58.64.45.34.69.73.69,1.05Zm1.5-1.26c0,.34-.15.56-.43.56-.21,0-.34-.17-.71-.56-.43-.45-.88-.94-1.24-1.24-.06-.06-.07-.08-.07-.11,0-.06.06-.09.13-.09.19,0,.98.15,1.56.53.47.3.77.71.77.92Z"/>
    <path class="cls-1" d="m286.67,3.52c0,.15-.06.32-.19.53-.21.36-.32.62-.47,1.14-.54,1.82-.86,3.79-.86,5.72,0,.54.02,1.35.09,1.93.02.17.04.19.08.19s.07-.02.11-.08c.32-.53.73-1.2,1.05-1.73.06-.09.11-.11.17-.11s.09.04.09.11c0,.04-.02.11-.04.17-.41,1.2-.58,2.01-.62,2.57-.02.21-.02.56-.04,1.03-.02.38-.17.56-.47.56-.24,0-.56-.23-.69-.51-.24-.47-.45-1.09-.54-1.82-.08-.73-.09-1.56-.09-2.12,0-2.16.34-4.94.71-6.44.17-.69.26-1.22.26-1.61,0-.45-.11-.56-.11-.68,0-.13.06-.17.17-.17s.66.24,1.07.69c.19.21.32.39.32.6Zm2.82,7.38c.08,0,.15.04.17.17.07.62.3,1.16.79,1.54.66.53,1.76.83,3.12.83,1.18,0,1.9-.09,2.35-.23.19-.06.34-.09.56-.09.81,0,1.22.39,1.22.79,0,.21-.17.38-.49.47-.43.13-1.41.24-2.72.24-2.1,0-3.13-.34-4.09-.98-.73-.51-1.09-1.44-1.09-2.27,0-.11,0-.21.02-.3.02-.11.09-.17.17-.17Zm4.99-5.93c-.99,0-2.16.09-3.15.26-.54.09-.94.15-1.33.21-.13.02-.15.02-.19.02-.13,0-.19-.06-.19-.13,0-.06.02-.11.09-.17.58-.41,1.43-.69,2.29-.88,1.16-.24,2.37-.34,3.36-.34.84,0,1.43.24,1.61.53.06.09.09.19.09.28,0,.15-.09.3-.3.38-.24.09-.62.17-.9.28-.53.23-1.35.66-2.14,1.07-.04.02-.09.04-.13.04-.09,0-.15-.08-.15-.15,0-.06.04-.11.08-.15.53-.45,1.01-.88,1.39-1.24h-.43Z"/>
    <path class="cls-1" d="m307.32,10.89c-.3,0-.49-.23-.62-.88-.02-.09-.04-.24-.04-.34,0-.3.08-.53.08-.81.02-1.03.04-2.23.04-3.34,0-.92-.02-1.78-.04-2.46-.02-.6-.09-1.01-.23-1.37-.02-.06-.04-.11-.04-.15,0-.09.04-.17.17-.17.19,0,.64.24.88.39,2.29-.21,3.73-.32,5.35-.38.32-.02.43-.08.58-.13.06-.02.11-.04.19-.04s.19.02.32.08c.24.11.77.43.99.68.11.11.15.22.15.32,0,.11-.04.21-.13.32-.17.23-.21.36-.23.86-.02.47-.02.92-.02,1.46,0,1.45.04,3.87.04,4.75,0,.94-.36,1.13-.64,1.13-.34,0-.45-.3-.54-.73-.56,0-1.11.02-1.67.02.69.3.75.45.75.68,0,.28-.19.39-.26,1.16-.06.64-.08,1.59-.08,2.14,0,.39.09.79.36.96.34.23.96.26,1.58.26,1.09,0,2.21-.11,2.82-.32.3-.09.56-.26.71-.6.11-.28.24-.71.28-1.26.02-.09.04-.13.08-.13s.06.02.09.06c.24.28.51.75.71,1.18.17.36.26.67.26.94,0,.32-.24.54-.69.68-1.07.3-2.53.45-4,.45-.56,0-1.03-.02-1.52-.11-1.22-.22-1.69-.88-1.69-2.08,0-.64.04-1.8.04-2.83,0-.47-.02-.83-.17-1.14-.41.02-1.46.06-1.88.07.54.38.64.54.64.77,0,.3-.28.54-.64,1.15-1,1.67-2.98,3.43-5.57,4.19-.08.02-.09.02-.15.02s-.13-.08-.13-.17c0-.08.06-.15.15-.21,2.06-1.07,3.94-2.61,4.88-4.69.11-.24.13-.43.13-.56,0-.19-.02-.34-.04-.45-.26.02-.54.04-.81.06-.08.53-.28.6-.45.6Zm6.33-8.71c-1.95,0-3.9.15-5.82.36,0,.08-.02.15-.02.21v1.59c1.63-.13,2.87-.19,4.37-.28.28-.02.53-.13.69-.13.19,0,.51.09.77.26v-2.01Zm-5.84,4.64c1.63-.13,2.87-.19,4.37-.28.28-.02.53-.13.69-.13.19,0,.51.09.77.26v-1.84c-.39-.02-.73-.04-1.07-.04-1.03,0-3.19.11-4.77.28v1.75Zm0,2.7c2.03-.13,4.94-.26,5.82-.26.02-.66.02-1.3.02-1.95-.39-.02-.73-.04-1.07-.04-1.03,0-3.19.11-4.77.28v1.97Z"/>
    <path class="cls-1" d="m331.02,3.57c0-.62-.02-1.18-.24-1.73-.04-.08-.06-.15-.06-.21,0-.09.06-.17.21-.17.51,0,1.18.38,1.37.53.13.11.23.26.23.43,0,.06-.02.15-.08.28-.11.24-.23.54-.24.79-.06.56-.11,1.67-.11,2.18,1.2-.17,2.08-.36,2.61-.49.34-.08.49-.15.73-.3.11-.08.24-.13.43-.13.15,0,.51.06.66.11.34.11.54.3.54.58,0,.24-.15.28-.47.34-1.13.21-3.02.58-4.5.81.02,1.61.13,3.19.28,4.84,2.14.58,3.77,1.18,5.33,2.25.19.13.3.38.3.6,0,.32-.24.58-.58.58-.15,0-.3-.06-.49-.17-1.03-.68-2.78-1.65-4.47-2.1.02.15.02.3.02.45,0,1.88-1.52,2.68-3.55,2.68-1.82,0-3.27-.98-3.27-2.25,0-1.09.98-2.27,3.77-2.27.92,0,1.37.06,1.84.11-.17-1.97-.26-4-.26-6.4v-1.35Zm-2.2,8.43c-.99,0-2.33.41-2.33,1.48,0,.83,1.24,1.31,2.27,1.31,1.63,0,2.59-.56,2.59-2.05,0-.13,0-.28-.02-.43-.96-.28-1.65-.32-2.52-.32Z"/>
    <path class="cls-1" d="m346.94,6.99c.13,0,.47.08.68.08.15,0,.41,0,1.2-.24,2.03-.62,3.73-.99,4.82-.99,2.21,0,3.7,1.35,3.7,3.9s-1.2,4.17-2.89,5.03c-1.18.62-3.04.99-4.34,1.01-.23,0-.34-.07-.34-.17,0-.11.08-.22.21-.24,3.6-.64,6.01-2.27,6.01-5.67,0-2.48-1.11-3.06-2.12-3.06-1.09,0-2.35.32-4.15,1.11-.73.32-1.16.56-1.39.56-.43-.02-1.11-.51-1.48-1.01-.06-.08-.08-.13-.08-.17,0-.08.04-.13.17-.13Zm6.96-4.82c1.39.41,1.8.88,1.8,1.41,0,.26-.17.49-.47.49-.32,0-.66-.15-1.28-.53-1.01-.62-2.33-1.18-3.53-1.6-.09-.04-.15-.13-.15-.19,0-.13.08-.21.19-.21,1.01.06,2.16.22,3.43.62Z"/>
    <path class="cls-1" d="m370.14,3.33c-.09-.43-.23-.75-.54-1.16-.04-.06-.06-.11-.06-.15,0-.11.11-.21.3-.21.49.02,1.05.22,1.31.36.26.13.34.34.34.53,0,.13-.07.34-.07.58,0,.22.04.47.07.75.23,1.41.49,2.5.94,3.42,1.09-.62,2.42-1.24,3.47-1.86.6-.36.84-.62.86-1,.02-.17.06-.24.17-.24.15,0,.62.26,1.01.75.26.34.32.49.32.62,0,.19-.15.34-.54.49-2.12.84-4.41,1.86-6.76,3.25-1.58.94-2.29,1.99-2.29,2.91,0,.86.43,1.37,1.41,1.69.53.17,1.28.26,2.7.26,1.54,0,3.44-.24,4.02-.41.36-.09.6-.11.77-.11.39,0,.79.17.99.53.06.09.09.21.09.32,0,.23-.15.45-.62.53-.88.17-2.55.26-4.77.26-1.6,0-2.89-.15-3.75-.49-.88-.34-1.69-1.18-1.69-2.53,0-1.45.75-2.55,3.7-4.41-.6-1.2-1.01-2.87-1.39-4.66Z"/>
    <path class="cls-1" d="m396.75,2.78c0-.62-.06-1.01-.24-1.5-.04-.09-.06-.15-.06-.21,0-.09.08-.15.19-.15.17,0,.81.24,1.22.54.3.22.41.36.41.53,0,.11-.06.24-.13.34-.13.15-.17.32-.23.88-.08.69-.13,1.41-.21,2.16.66-.08,1.26-.15,1.84-.24.15-.02.26-.06.32-.07.11-.04.21-.06.41-.06.36,0,.51.04.69.09.49.17.88.49.88.75,0,.34-.43.38-.98.38-.26,0-.75-.04-1.37-.04-.28,0-.6,0-.94.04-.28.02-.58.06-.96.09-.13,1.16-.26,2.35-.43,3.42-.09.68-.39,1.14-.84,1.48-.09.08-.19.11-.28.11-.15,0-.3-.08-.45-.24-.26-.28-.88-.96-1.16-1.43-.04-.06-.06-.11-.06-.17s.04-.11.13-.11c.04,0,.11.02.19.06.38.19.98.36,1.22.36.15,0,.21-.13.23-.3.19-1.05.3-2.1.39-3.08-1.61.15-3.3.36-5.35.69-.02.69-.06,1.46-.06,2.23s.04,1.52.09,2.23c.15,1.69.81,2.12,2.5,2.37.34.04.71.06,1.07.06.69,0,1.35-.06,1.71-.08.53-.04,1.43-.38,1.91-.38s1.28.24,1.28.73c0,.6-1.03.58-1.58.62-.47.04-1.97.13-2.55.13-.54,0-1.43-.08-2.18-.21-.81-.13-1.5-.34-2.03-.84-.62-.58-1.07-1.28-1.14-3.08-.02-.56-.04-2.12-.04-3.58-.84.15-1.71.34-2.61.56-.23.06-.41.11-.56.11-.09,0-.17-.02-.24-.08-.39-.28-.64-.51-.64-.66,0-.08.06-.11.19-.13,1.31-.24,2.61-.47,3.87-.68,0-.9-.02-1.65-.02-1.88-.02-.62-.02-.75-.09-1.01s-.19-.56-.32-.75c-.08-.09-.09-.13-.09-.17,0-.09.08-.19.19-.19.15,0,.64.11,1.24.49.34.21.43.43.43.64,0,.08-.02.15-.08.26-.06.11-.13.51-.15.86-.02.39-.04.94-.06,1.58,1.73-.28,3.34-.51,4.73-.68.23-.02.45-.06.66-.08.06-.92.09-1.76.13-2.48v-.26Z"/>
    <path class="cls-1" d="m413.61,3.57c0-.62-.02-1.18-.24-1.73-.04-.08-.06-.15-.06-.21,0-.09.06-.17.21-.17.51,0,1.18.38,1.37.53.13.11.23.26.23.43,0,.06-.02.15-.07.28-.11.24-.23.54-.24.79-.06.56-.11,1.67-.11,2.18,1.2-.17,2.08-.36,2.61-.49.34-.08.49-.15.73-.3.11-.08.24-.13.43-.13.15,0,.51.06.66.11.34.11.54.3.54.58,0,.24-.15.28-.47.34-1.13.21-3.02.58-4.5.81.02,1.61.13,3.19.28,4.84,2.14.58,3.77,1.18,5.33,2.25.19.13.3.38.3.6,0,.32-.24.58-.58.58-.15,0-.3-.06-.49-.17-1.03-.68-2.78-1.65-4.47-2.1.02.15.02.3.02.45,0,1.88-1.52,2.68-3.55,2.68-1.82,0-3.27-.98-3.27-2.25,0-1.09.98-2.27,3.77-2.27.92,0,1.37.06,1.84.11-.17-1.97-.26-4-.26-6.4v-1.35Zm-2.2,8.43c-.99,0-2.33.41-2.33,1.48,0,.83,1.24,1.31,2.27,1.31,1.63,0,2.59-.56,2.59-2.05,0-.13,0-.28-.02-.43-.96-.28-1.65-.32-2.52-.32Z"/>
    <path class="cls-1" d="m431.29,14.81c0,1.24-.99,2.23-2.23,2.23s-2.23-.99-2.23-2.23.99-2.23,2.23-2.23,2.23,1,2.23,2.23Zm-3.75,0c0,.86.66,1.52,1.52,1.52s1.52-.66,1.52-1.52-.66-1.52-1.52-1.52-1.52.66-1.52,1.52Z"/>
    <path class="cls-1" d="m5.72,33.29c.23,0,.45,0,.66-.02,1.24-.08,2.53-.17,3.9-.3,1.13-.11,2.2-.17,3.1-.28.3-.04.58-.11.73-.21.11-.08.39-.15.68-.15.28.02.56.11.86.34.19.13.28.3.28.51,0,.17-.11.23-.36.26-.17.02-.54.08-1.09.11-1.58.11-2.55.15-3.81.24.69.43.9.6.9.73,0,.19-.11.38-.13.49-.06.26-.08.84-.09,1.63,0,1.43.02,2.52.02,3.62,1.86-.13,2.97-.19,4.41-.26.43-.02.71-.11.94-.21.21-.09.58-.15.79-.15.32,0,.99.28,1.37.58.23.17.24.32.24.6,0,.15-.23.28-.54.28h-.11c-.73-.07-1.78-.09-2.29-.09-1.5.02-3.06.04-4.8.17,0,1.18,0,2.53-.04,4.45-.02,2.2-.23,3.08-.66,3.08-.28,0-.54-.77-.54-2.95v-.23c.02-1.82.04-3.08.06-4.26l-.34.04c-1.05.11-2.72.38-4.04.6-.9.15-1.75.39-1.99.39-.17,0-.28-.04-.53-.24-.47-.38-.71-.68-.71-.77,0-.06.06-.09.21-.11.34-.02,1.43-.15,2.72-.3,1.58-.19,3.47-.43,4.67-.53.02-1.09.04-2.23.04-3.81,0-.69-.02-1.28-.06-1.56-.04-.39-.08-.77-.19-1.14-1.03.11-2.4.26-3.28.41-.11.02-.23.04-.3.04-.11,0-.17-.02-.26-.08-.56-.36-.92-.71-.92-.86,0-.04.06-.08.15-.08h.36Zm1.56,5.61c-.36,0-.68-.36-.98-.73-.24-.32-.92-1.29-1.24-1.88-.04-.08-.06-.13-.06-.19s.04-.09.11-.09c.04,0,.09.02.15.04.39.13.99.43,1.33.69.38.26.71.68.88.94.15.23.23.47.23.68,0,.3-.13.53-.43.54Zm8.61-2.21c-.92.79-1.82,1.39-3,2.03-.08.04-.13.06-.17.06-.09,0-.15-.06-.15-.13s.04-.15.13-.23c.9-.69,1.75-1.71,2.16-2.38.13-.22.19-.47.19-.68,0-.11-.04-.3-.04-.41,0-.17.06-.26.19-.26.17,0,.86.45,1.3.84.09.09.15.23.15.34,0,.08-.04.17-.09.23-.24.24-.49.47-.66.6Z"/>
    <path class="cls-1" d="m28.49,38.68c0,.19-.02.38-.02.56.6.07,1.39.38,1.75.56.39.19.83.6.83,1.05,0,.24-.13.51-.41.51-.26,0-.64-.32-.86-.54-.21-.23-.83-.79-1.3-1.2-.04,2.18-.06,4.13-.09,7.83-.02.45-.24.71-.49.71-.21,0-.38-.15-.51-.39-.19-.34-.24-.64-.24-.94,0-.19.02-.36.06-.56.09-.38.13-1.16.15-1.78.06-1.78.09-2.98.11-4.22-1.07,1.41-2.87,2.95-4.19,3.72-.07.04-.13.06-.17.06-.09,0-.13-.06-.13-.13,0-.06.04-.13.11-.21,1.46-1.35,3.1-3.21,4.17-5.29-1.01.15-1.75.26-2.63.45-.17.04-.39.09-.45.09s-.21-.06-.32-.17c-.17-.15-.53-.54-.53-.66,0-.04.04-.07.09-.07.41-.04.9-.11,1.22-.15.94-.13,1.91-.28,2.85-.43,0-1.11,0-2.01-.13-2.57-.69.24-1.69.53-2.55.69-.08.02-.19.04-.28.04-.13,0-.21-.08-.21-.15s.06-.13.15-.17c1.65-.62,2.82-1.22,3.75-1.99.38-.32.54-.6.54-.79,0-.21.08-.34.21-.34.11,0,.51.21.84.49.24.19.51.47.53.69,0,.19-.21.34-.6.51-.39.19-.86.45-1.54.71-.06.02-.11.04-.17.08.19.11.36.24.51.41.09.09.13.23.13.36,0,.15-.04.32-.07.47-.06.21-.09.73-.11,1.41.24-.02.47-.06.69-.09.15-.02.38-.09.47-.13.17-.09.32-.13.47-.13.17,0,.34.06.47.11.24.11.39.21.39.45s-.17.38-.53.43c-.62.08-1.29.17-1.97.26v.47Zm5.07,5.63c0,.3-.06.49-.38.49-.39,0-.68-.39-.69-1.14-.02-.71-.09-2.2-.24-3.74-.07-.83-.24-1.76-.53-2.38-.04-.08-.06-.13-.06-.19,0-.11.09-.19.24-.19s.47.13.88.39c1.8-.19,3.25-.34,4.45-.47.32-.04.54-.28.81-.28.41,0,.66.13,1.09.53.32.3.51.62.51.84,0,.21-.11.32-.21.41-.17.21-.24.41-.3.62-.21.77-.47,1.78-.84,3.47.21.15.39.38.39.71,0,.21-.19.32-.99.34-.71,0-2.42.06-4.13.17v.41Zm-.23-5.65c.04,1.13.13,2.72.21,4.35.45-.04.92-.06,1.37-.09.81-.06,1.6-.09,2.38-.15.3-1.69.6-3.9.66-4.79-1.39.09-3.12.28-4.62.45v.23Z"/>
    <path class="cls-1" d="m50.79,35.92c.38-.09.75-.23.9-.3.11-.06.36-.11.54-.11.17,0,.38.06.51.11.26.11.41.28.41.45s-.08.32-.56.41c-.79.17-1.78.36-2.8.53-.86,1.8-1.9,3.92-2.81,5.54-.32.56-.56.86-.73.98-.09.06-.19.08-.34.08s-.38-.3-.38-.77c0-.24.08-.47.24-.64.15-.15.58-.68.99-1.37.62-1.05,1.28-2.25,1.88-3.62-.84.13-1.67.24-2.36.3-.07,0-.15.02-.21.02-.09,0-.17-.02-.23-.06-.34-.23-.58-.53-.58-.68,0-.06.02-.09.17-.11,1.41-.09,2.61-.23,3.6-.39.19-.47.36-.94.53-1.43.11-.32.23-.77.23-1.14s-.15-.53-.15-.66c0-.09.04-.15.19-.15.17,0,.77.19,1.07.36.26.13.39.3.39.49,0,.11-.04.21-.09.3-.08.13-.24.47-.38.73-.17.38-.38.81-.58,1.28.19-.04.38-.09.54-.13Zm4.11,3.62c0,1.11.11,1.9.23,2.78.08.6.13.96.24,1.35.99.38,2.06.9,2.63,1.39.19.15.24.32.24.49,0,.34-.24.6-.43.6-.36,0-.53-.13-.9-.39-.38-.26-1.13-.68-1.54-.9,0,1.61-1.18,2.55-2.87,2.55-1.78,0-3.21-.68-3.21-2.2,0-1.05,1.16-2.14,2.95-2.14.96,0,1.41.11,2.03.26-.09-1.05-.15-2.1-.15-2.82,0-.34.08-.81.19-.99.08-.13.17-.28.3-.39.04-.04.08-.06.11-.06.09,0,.19.09.19.24v.23Zm-.64,4.92c-.62-.26-1.29-.49-2.18-.49s-2.12.26-2.12,1.31c0,.54.54,1.26,2.16,1.26s2.14-.86,2.14-1.88v-.21Zm1.09-8.26c.56,0,1.28.08,1.76.21.96.26,1.71.77,2.01,1.22.15.21.19.38.19.53,0,.32-.19.49-.43.49-.23,0-.38-.02-.79-.15-.41-.13-1.11-.19-1.56-.19-.17,0-.23-.06-.23-.11,0-.08.06-.13.13-.15.83-.23.96-.32.96-.43,0-.06-.04-.09-.15-.17-.36-.23-1.15-.64-2.31-.96-.06-.02-.11-.07-.11-.15,0-.06.06-.13.24-.13h.28Z"/>
    <path class="cls-1" d="m79.43,46.3c-.47,0-.66-.11-1.09-.49-1.03-.9-1.95-1.84-2.67-2.57-1.13-1.14-2.36-2.48-3.36-3.6-.84,1.63-1.84,2.85-2.52,3.53-1.44,1.45-2.97,2.35-4.49,3.08-.04.02-.08.04-.11.04-.13,0-.19-.09-.19-.19,0-.06.02-.11.08-.15,1.44-.9,2.87-2.08,4-3.36.79-.9,1.8-2.4,2.63-4.52.28-.77.68-1.99.81-2.82.04-.21.06-.39.06-.56,0-.3-.06-.51-.19-.73-.04-.06-.06-.11-.06-.17,0-.13.09-.23.28-.23.13,0,.39.09.75.26.71.38.9.58.9.81,0,.11-.09.24-.23.49-.08.13-.15.3-.21.47-.43,1.41-.75,2.38-1.24,3.45,1.26,1.29,2.38,2.23,3.38,3.06.94.77,1.9,1.5,2.72,2.03,1.03.68,2.08,1.11,3.19,1.58.15.06.23.15.23.22s-.04.13-.17.17c-.58.13-1.37.21-2.14.21h-.38Z"/>
    <path class="cls-1" d="m89.58,35.04c0,.15-.06.32-.19.53-.21.36-.32.62-.47,1.14-.54,1.82-.86,3.79-.86,5.72,0,.54.02,1.35.09,1.93.02.17.04.19.08.19s.07-.02.11-.08c.32-.53.73-1.2,1.05-1.73.06-.09.11-.11.17-.11s.09.04.09.11c0,.04-.02.11-.04.17-.41,1.2-.58,2.01-.62,2.57-.02.21-.02.56-.04,1.03-.02.38-.17.56-.47.56-.24,0-.56-.23-.69-.51-.24-.47-.45-1.09-.54-1.82-.08-.73-.09-1.56-.09-2.12,0-2.16.34-4.94.71-6.44.17-.69.26-1.22.26-1.61,0-.45-.11-.56-.11-.68,0-.13.06-.17.17-.17s.66.24,1.07.69c.19.21.32.39.32.6Zm2.82,7.38c.08,0,.15.04.17.17.08.62.3,1.16.79,1.54.66.53,1.76.83,3.12.83,1.18,0,1.9-.09,2.35-.23.19-.06.34-.09.56-.09.81,0,1.22.39,1.22.79,0,.21-.17.38-.49.47-.43.13-1.41.24-2.72.24-2.1,0-3.13-.34-4.09-.98-.73-.51-1.09-1.44-1.09-2.27,0-.11,0-.21.02-.3.02-.11.09-.17.17-.17Zm4.99-5.93c-.99,0-2.16.09-3.15.26-.54.09-.94.15-1.33.21-.13.02-.15.02-.19.02-.13,0-.19-.06-.19-.13,0-.06.02-.11.09-.17.58-.41,1.43-.69,2.29-.88,1.16-.24,2.37-.34,3.36-.34.84,0,1.43.24,1.61.53.06.09.09.19.09.28,0,.15-.09.3-.3.38-.24.09-.62.17-.9.28-.53.23-1.35.66-2.14,1.07-.04.02-.09.04-.13.04-.09,0-.15-.08-.15-.15,0-.06.04-.11.08-.15.53-.45,1.01-.88,1.39-1.24h-.43Z"/>
    <path class="cls-1" d="m109.42,46.5c0,.45-.24.69-.53.69-.21,0-.41-.17-.54-.43-.41-.83-.69-2.12-.69-4.26,0-1.82.26-4.22.83-7.02.09-.45.13-.83.13-1.13,0-.53-.11-.69-.11-.77,0-.11.08-.19.21-.19.17,0,.69.34,1.07.71.24.24.26.34.26.51,0,.13-.04.26-.13.43-.13.24-.24.58-.38.99-.58,1.97-.96,4.34-.96,6.36,0,.92.04,1.5.11,2.01.04.26.08.41.11.41s.15-.19.23-.32c.3-.53.56-.9.81-1.43.02-.04.06-.06.09-.06.08,0,.15.06.15.13,0,.04-.02.08-.04.15-.17.66-.36,1.31-.53,2.18-.09.41-.09.68-.09,1.01Zm8.78-7.49c0,1.56.02,3.04.06,4.43.69.19,1.45.51,2.27,1.03.51.32.79.66.79,1.01,0,.32-.23.56-.45.56-.19,0-.38-.11-.84-.47-.47-.34-1.16-.75-1.78-1.03.02.11.02.21.02.3,0,1.39-1.09,2.06-2.7,2.06-1.82,0-3.02-.92-3.02-2.03,0-.49.32-1.03.83-1.35.49-.3,1.26-.53,2.08-.53.62,0,1.2.07,1.8.17-.02-1.03-.02-3.38-.02-5.11-.92.11-2.23.23-3.06.26-.26.02-.28.02-.36.02-.19,0-.34-.02-.45-.09-.49-.34-.83-.71-.83-.88,0-.06.06-.11.11-.11.04,0,.06,0,.17.02.41.08.68.11,1.09.11h.24c.9-.02,1.91-.09,3.12-.26v-1.9c0-.6-.08-.96-.38-1.33-.04-.06-.08-.11-.08-.17,0-.09.08-.15.23-.15.28.02.53.06.94.22.38.15.64.39.64.58,0,.15-.04.21-.09.3-.09.17-.15.41-.19.86-.04.47-.08.98-.08,1.39.71-.19,1.16-.34,1.37-.45.19-.09.36-.15.53-.15.58,0,1.05.23,1.05.53,0,.26-.02.47-.68.58-.64.13-1.46.32-2.33.51v1.05Zm-.94,5.14c-.53-.23-1.13-.39-2.1-.39-1.16,0-1.95.53-1.95,1.11,0,.38.09.53.41.77.23.19.94.39,1.46.39.66,0,1.16-.17,1.58-.39.43-.24.6-.64.6-1.28v-.21Z"/>
    <path class="cls-1" d="m134.11,40.48c-.99,1.33-1.95,2.29-3,3.17-1.35,1.11-2.81,1.99-4.22,2.57-.06.02-.09.04-.15.04-.09,0-.17-.06-.17-.13s.06-.17.17-.24c1.24-.79,2.52-1.76,3.44-2.63.99-.92,2.14-2.18,3.15-3.66-1.03.09-2.05.19-2.89.3-.43.06-.77.11-1.45.23-.08.02-.13.02-.21.02-.09,0-.19-.02-.26-.08-.26-.22-.6-.66-.6-.79,0-.04.04-.08.19-.09.71-.04,1.28-.08,2.03-.15,1.26-.13,2.61-.24,3.98-.36,0-.43-.02-1.31-.02-2.74-.66.06-.99.09-1.39.13-.81.08-1.22.13-2.05.24h-.09c-.13,0-.23-.04-.28-.07-.24-.19-.56-.68-.56-.79,0-.06.04-.11.19-.11.69,0,1.2-.04,1.95-.09.49-.04,1.28-.11,2.21-.19v-.39c0-1.48-.06-2.12-.24-2.51-.04-.09-.06-.17-.06-.23,0-.13.07-.21.21-.21.21,0,.83.21,1.31.51.17.09.23.22.23.36,0,.11-.02.23-.09.34-.15.28-.24.83-.24,1.52v.53c.79-.08,1.54-.15,1.86-.19.45-.06.62-.11.84-.23.17-.08.36-.11.53-.11.28,0,.71.15.96.34.17.13.28.26.28.45,0,.24-.21.36-.56.38-.84.04-2.61.15-3.92.26v2.72c1.18-.09,2.36-.17,3.49-.26.51-.04.88-.13,1.11-.26.19-.09.34-.15.51-.15s.77.23,1.24.56c.21.15.28.32.28.45,0,.3-.24.34-.49.34-.17,0-.86-.04-1.33-.04-.38,0-.54,0-.96.02-.98.04-2.25.11-3.58.21.75.79,1.45,1.45,2.67,2.5.96.81,1.52,1.22,2.1,1.63.32.23.75.49,1.15.69.68.38,1.07.58,1.63.9.09.06.13.13.13.21,0,.06-.04.11-.11.13-.69.15-1.44.15-1.93.15-.94-.02-1.09-.19-1.6-.66-.6-.56-1.26-1.33-2.08-2.25-.54-.6-1.41-1.59-2.21-2.61,0,2.68.02,5.74.06,7.26v.17c0,.79-.24,1.03-.58,1.03-.47,0-.77-.79-.77-1.73,0-.47.17-.88.21-1.88.02-.79.04-1.86.04-3.1v-1.43Z"/>
    <path class="cls-1" d="m155.8,47.52c0,.77-.23,1.03-.56,1.03-.41,0-.77-.81-.77-1.73,0-.47.17-.88.21-1.88.04-.94.04-2.31.04-3.88-1.01,1.31-2.12,2.38-3.15,3.15-1.43,1.05-2.7,1.71-3.85,2.18-.04.02-.09.02-.13.02-.11,0-.17-.08-.17-.17,0-.08.04-.17.15-.22,1.07-.58,2.53-1.58,3.43-2.42.98-.9,1.84-1.71,2.7-2.98-.86.07-1.69.17-2.42.26-.45.06-.79.11-1.46.22-.07.02-.13.02-.21.02-.09,0-.17-.02-.24-.07-.38-.32-.64-.66-.64-.77,0-.06.08-.09.19-.09.71-.04,1.31-.08,2.05-.15,1.22-.11,2.5-.23,3.75-.34,0-1.29-.02-2.61-.02-3.9-1.29.13-2.85.3-3.88.45h-.09c-.13,0-.23-.04-.28-.08-.32-.24-.68-.69-.68-.81,0-.06.06-.11.23-.11.71,0,1.26-.04,2.01-.09.73-.06,1.71-.15,2.68-.23,0-1.95-.06-2.44-.24-2.83-.04-.09-.06-.17-.06-.22,0-.13.07-.21.21-.21.26,0,.99.3,1.28.51.21.13.24.19.24.36,0,.11-.02.23-.09.34-.17.28-.24.73-.24,1.75v.22c.98-.09,1.84-.19,2.29-.24.43-.06.66-.11.9-.22.15-.08.34-.13.51-.13.08,0,.15.02.23.04.32.09.6.22.73.32.26.17.36.3.36.45,0,.24-.24.34-.6.36-.53.02-1.07.06-1.35.08-.84.04-1.97.11-3.08.22v3.92c1.16-.09,2.31-.21,3.4-.3.49-.04.88-.13,1.11-.26.17-.09.34-.15.49-.15s.3.06.47.13c.28.13.58.28.79.43.21.15.28.32.28.43,0,.3-.23.34-.49.34h-.19c-.54-.04-.79-.04-1.16-.04-.98,0-2.21.08-4.24.21.73.62,1.31,1.09,2.5,1.93,1.01.73,1.6,1.05,2.2,1.41.36.21.86.43,1.24.62.71.38,1.18.6,1.75.9.09.06.13.13.13.19,0,.08-.04.13-.11.15-.69.15-1.39.17-1.88.17-.94-.02-1.09-.17-1.63-.62-.69-.56-1.6-1.39-2.4-2.16-.62-.6-1.37-1.31-2.23-2.16.02,2.48.02,5.12.06,6.51v.17Zm-3.21-8.26c-.3,0-.53-.21-.79-.71-.26-.53-.53-1.45-.53-1.61,0-.08.04-.11.11-.11.19,0,.75.41,1.15.86.36.41.49.79.49,1.05,0,.34-.19.53-.43.53Zm6.33-1.46c-.54.49-1.01.84-1.56,1.18-.04.02-.08.04-.11.04-.08,0-.13-.06-.13-.11s.02-.09.06-.15c.36-.47.62-.96.9-1.54.09-.21.13-.38.13-.54,0-.11-.04-.28-.04-.38,0-.13.08-.21.19-.21.13,0,.54.17,1.03.54.15.11.26.23.26.36,0,.08-.04.15-.11.23-.23.21-.47.43-.62.58Z"/>
    <path class="cls-1" d="m170.18,37.87c.13,0,.49-.02,1.09-.11.51-.09,1.39-.26,2.06-.41.71-1.78.86-2.53.86-3.21,0-.17-.04-.32-.11-.47-.06-.13-.08-.19-.08-.23,0-.08.08-.15.19-.15.17,0,.75.13,1.2.43.28.19.39.36.39.51,0,.13-.06.24-.13.36-.08.09-.15.17-.21.28-.21.41-.58,1.29-.99,2.35.47-.09,1.07-.17,1.52-.17,1.45.02,2.27.75,2.27,2.85,0,2.27-.66,4.84-1.46,6.06-.54.83-1.2,1.16-1.56,1.16-.38,0-.53-.15-.58-.43-.04-.26-.36-.62-1.15-1.5-.04-.04-.06-.09-.06-.13,0-.07.06-.15.13-.15.04,0,.09.02.21.08.45.24,1.09.54,1.63.54.24,0,.45-.17.71-.77.69-1.6,1.05-3.58,1.05-5.16,0-1.43-.24-1.82-.96-1.82-.64,0-1.39.09-2.16.32-.64,1.71-2.06,4.88-3.66,7.96-.24.49-.41.62-.73.62-.24,0-.43-.26-.43-.77,0-.34.08-.6.17-.73.09-.13.24-.34.38-.54.94-1.46,2.23-4.02,3.15-6.29-.49.11-1.09.26-1.5.38-.38.09-.56.19-.75.24-.24.08-.43.11-.53.11-.17,0-.26-.04-.43-.17-.38-.3-.69-.77-.69-.94,0-.11.06-.19.17-.19.08,0,.23.09.64.09h.34Zm11.94.39c.75.9,1.29,2.01,1.29,2.65,0,.69-.24.9-.58.9-.3,0-.56-.23-.69-.66-.21-.66-.58-1.61-.84-2.1-.53-.98-1.2-1.82-2.06-2.7-.04-.04-.06-.08-.06-.11,0-.11.09-.19.17-.19.04,0,.08.02.11.04.96.47,1.78,1.13,2.67,2.18Zm1.09-2.18c0,.22-.23.45-.43.45-.15,0-.34-.09-.73-.58-.41-.53-.9-1.09-1.18-1.35-.04-.04-.04-.06-.04-.09,0-.06.04-.11.11-.11.13,0,.94.17,1.58.64.45.34.69.73.69,1.05Zm1.5-1.26c0,.34-.15.56-.43.56-.21,0-.34-.17-.71-.56-.43-.45-.88-.94-1.24-1.24-.06-.06-.08-.08-.08-.11,0-.06.06-.09.13-.09.13,0,.96.13,1.56.53.47.3.77.71.77.92Z"/>
    <path class="cls-1" d="m191.9,36.11c.45-.02,1.6-.13,2.67-.26.08-.56.13-1.05.19-1.6.02-.17.02-.21.02-.26,0-.24-.06-.49-.15-.77-.02-.06-.04-.09-.04-.13,0-.09.06-.17.17-.17.32.02.77.19,1.09.39.24.17.41.36.41.51,0,.11-.04.24-.09.32-.11.17-.19.36-.3.69-.08.23-.17.56-.24.86,1-.17,2.33-.43,3.06-.68.26-.09.39-.17.49-.22.17-.11.43-.23.62-.23.84,0,1.18.21,1.18.53,0,.3-.08.41-.77.6-.92.26-3.13.68-4.77.88-.13.94-.21,1.8-.23,2.36.73-.28,1.9-.51,3.08-.56.07-.34.13-.73.13-.98,0-.15-.04-.22-.04-.28s.06-.09.11-.09c.04,0,.08,0,.13.04.41.24.77.73.77,1.18,0,.06,0,.09-.02.15,2.91.41,4.2,2.27,4.2,4.17,0,2.76-2.05,4.47-6.38,4.67-.11,0-.23-.09-.23-.23,0-.11.06-.21.21-.24,3.49-.75,5.16-2.12,5.16-4.5,0-1.88-1.45-3.12-3.21-3.23-.88,2.06-2.23,3.66-3.36,4.77.09.24.23.47.32.69.08.19.15.39.15.54,0,.26-.19.41-.45.41-.21,0-.41-.15-.53-.36-.09-.17-.17-.36-.28-.66-1.58,1.45-2.81,1.97-3.3,1.97-.23,0-.51-.15-.83-.51-.45-.51-.73-1.26-.73-1.99,0-1.8,1.78-3.57,4.19-4.6,0-.34.06-1.75.15-2.61-.98.13-1.97.24-2.65.3h-.17c-.24,0-.32-.04-.39-.09-.3-.24-.6-.56-.6-.69,0-.07.04-.13.11-.13s.19.02.71.02h.43Zm2.4,3.96c-1.07.58-2.14,1.5-2.65,2.21-.53.73-.79,1.41-.79,1.67,0,.34.11.6.36.92.23.3.53.56.66.56.11,0,.28-.06.49-.15.71-.36,1.58-.98,2.33-1.69-.21-.96-.39-2.21-.39-3.36v-.17Zm1.2,2.89c1.33-1.5,2.21-2.97,2.59-3.98-1.07,0-2.23.34-2.93.66,0,1.22.15,2.57.34,3.32Z"/>
    <path class="cls-1" d="m222.38,42.45c0-1.43-.99-2.78-3.04-2.78-2.55,0-4.32.92-6.61,3.12-.69.66-.86.98-1.13.98-.17,0-.32-.15-.47-.38-.11-.19-.17-.43-.17-.6s.11-.3.34-.45c.45-.3,2.14-1.86,4.02-3.74,1.11-1.11,2.59-2.76,3.7-4.11-.54.08-1.28.24-2.48.51-.77.17-1.43.3-1.9.43-.17.06-.41.13-.56.13-.21,0-.41-.17-.62-.38-.17-.17-.47-.54-.47-.69,0-.09.04-.15.15-.15.36.02.64.04.88.04.34,0,1.33-.08,3.17-.39,1.76-.3,1.99-.34,2.14-.43.11-.08.24-.15.38-.15.21,0,.45.09.71.3.39.3.6.51.6.68s-.17.32-.41.47c-.24.13-.49.26-.96.71-1.03.96-1.8,1.73-2.7,2.59-.98.92-1.78,1.71-2.5,2.38,1.78-1.13,3.38-1.63,5.05-1.63,2.68,0,4.15,1.75,4.15,3.57,0,2.83-1.88,4.79-5.84,4.79-2.08,0-3.42-.79-3.42-2.2,0-.9.83-1.69,2.25-1.69.94,0,1.71.43,2.38,1.01.64.56.92,1.22,1.05,1.58,1.6-.68,2.29-1.9,2.29-3.51Zm-4.35,2.38c-.45-.39-1.09-.66-1.63-.66-.77,0-1.26.38-1.26.9,0,.75,1.05,1.31,2.42,1.31.43,0,1.11-.06,1.46-.15-.17-.38-.47-.96-.99-1.41Z"/>
    <path class="cls-1" d="m234.21,46.33c0,1.24-.99,2.23-2.23,2.23s-2.23-.99-2.23-2.23.99-2.23,2.23-2.23,2.23,1,2.23,2.23Zm-3.75,0c0,.86.66,1.52,1.52,1.52s1.52-.66,1.52-1.52-.66-1.52-1.52-1.52-1.52.66-1.52,1.52Z"/>
  </g>
  <g>
    <path d="m4.59,73.54v-6.08c0-.45-.05-.68-.18-.96l.06-.07c1.19.2,1.41.26,1.41.46,0,.15-.1.21-.53.32v6.33l.03,2.66-.11.11-.73.02.06-2.8Zm3.56,1.77v.84l-.12.11-.69.02.06-2.43v-6.08c0-.52-.05-.8-.17-1.15l.07-.07c.41.18.75.34,1.1.55h3.95l.39-.47h.16c.62.48.78.62.78.76,0,.11-.11.21-.42.32v6.04l.06,2.28-.11.12-.71.02v-.86h-4.34Zm4.34-7.81h-4.34v3.36h4.34v-3.36Zm0,3.75h-4.34v3.67h4.34v-3.67Z"/>
    <path d="m15.72,72.67c.8.28,1.03.39,1.03.55,0,.13-.1.17-.44.22-.23.69-.54,1.53-1.08,2.24l-.23-.13c.34-.75.54-1.5.62-2.13.02-.17.03-.32.03-.45,0-.09-.01-.17-.02-.26l.08-.04Zm2.72-5.38c.78.34,1.09.58,1.09.72,0,.13-.09.18-.54.16-.79,1.16-1.48,2.08-2.17,2.85.63-.03,1.27-.07,1.89-.13-.13-.28-.3-.5-.52-.72l.19-.2c1.09.64,1.3,1.23,1.3,1.53s-.17.47-.32.47c-.19,0-.31-.05-.4-.4-.03-.14-.08-.28-.13-.39-.33.07-.68.14-1.02.21v3.04l.05,2.07-.11.12-.69.02.07-2.2v-2.93c-.39.07-.78.13-1.17.2-.03.34-.09.4-.18.4-.15,0-.3-.26-.57-.98l.05-.08c.31.01.6.01.93,0,.09,0,.18-.01.29-.01.65-1,1.14-1.86,1.61-2.85.1-.23.24-.57.29-.86l.08-.03Zm-3.05.44c.34.12.63.25.88.38.28-.48.46-.92.62-1.38.07-.18.15-.49.18-.72l.08-.04c.8.34,1.14.55,1.14.69s-.09.18-.6.16c-.41.63-.73,1.03-1.15,1.46.44.28.67.57.67.8,0,.28-.1.47-.36.47-.16,0-.28-.07-.44-.38-.23-.4-.56-.83-1.17-1.21l.14-.24Zm3.04,4.96c.92.72,1.22,1.51,1.22,1.84,0,.45-.11.63-.38.63-.19,0-.29-.1-.38-.53-.1-.6-.31-1.21-.68-1.78l.22-.16Zm5.84-4.07l.39-.47h.2c.63.52.73.6.73.76,0,.11-.09.18-.45.32-.02,2.2-.09,4.1-.31,5.22-.31,1.66-.86,2.09-2.28,2.1-.05-.39-.21-.55-1.07-.86l.06-.26c.79.16,1.11.21,1.45.21.56,0,.92-.37,1.11-1.32.23-1.08.31-3,.31-5.3h-3.72c-.32.55-.7,1.07-1.18,1.54l-.22-.14c.75-1.21,1.16-2.38,1.42-3.37.09-.34.11-.61.11-.88l.08-.06c1,.32,1.19.42,1.19.58,0,.12-.08.2-.48.25-.22.61-.45,1.17-.71,1.69h3.36Zm-3.44,1.7c1.43.76,2.09,1.62,2.09,2.15,0,.39-.18.58-.41.58-.21,0-.34-.14-.46-.48-.24-.69-.7-1.37-1.4-2.04l.18-.21Z"/>
    <path d="m27.43,68.65l-.8.07-.14-.53.94.07h2.29l.47-.58h.16l.68.7v.28h-3.6Zm2.18.58h.16l.61.61v.28h-2.51l-.8.07-.14-.53.94.07h1.34l.4-.49Zm0,1.51h.16l.61.61v.28h-2.51l-.8.07-.14-.53.94.07h1.34l.4-.49Zm-1.89,4.87v.77l-.11.11-.61.02.06-1.61v-1.18c0-.52,0-.8-.13-1.15l.07-.07c.3.16.55.29.81.45h1.55l.34-.4h.16c.44.31.69.52.69.65,0,.12-.14.18-.38.29v1.14l.06,1.63-.12.12-.62.02v-.79h-1.78Zm1.94-9.39h.16l.63.63v.28h-2.48l-.8.07-.14-.53.94.07h1.26l.42-.52Zm-.16,7.13h-1.78v1.87h1.78v-1.87Zm3.8-5.16h-1.27l-.8.07-.14-.53.94.07h1.27v-.72c0-.31-.06-.67-.18-.93l.06-.07c1.12.18,1.37.25,1.37.44,0,.12-.1.17-.5.28v1.01h1.21l.52-.67h.16l.75.78v.28h-2.63v1.65h1.7l.54-.69h.16l.77.8v.28h-5.73l-.8.07-.14-.53.94.07h1.82v-1.65Zm-1.76,4.14l-.8.07-.14-.53.94.07h3.2v-.44c0-.44-.03-.67-.16-.94l.06-.07c1.08.16,1.26.24,1.26.39,0,.12-.06.16-.46.26v.79h.36l.48-.61h.16l.7.72v.28h-1.7v1.34l.06,1.88c0,.65-.44.97-1.54,1.01-.03-.42-.16-.6-.93-.86l.07-.26c.8.15,1.1.18,1.34.18.21,0,.3-.09.3-.3v-2.99h-3.2Zm.28.38c1.16.5,1.71,1.1,1.71,1.65,0,.29-.16.49-.41.49-.2,0-.31-.13-.41-.44-.17-.52-.5-1.02-1.07-1.5l.18-.21Z"/>
    <path d="m38.42,72.49c.8.28,1.01.39,1.01.54,0,.13-.08.18-.42.23-.25.89-.44,1.48-.86,2.21l-.25-.1c.25-.76.38-1.49.45-2.13.02-.15.02-.28.02-.39s0-.22-.02-.32l.08-.04Zm2.51-2.59c.95.62,1.17,1.12,1.17,1.54,0,.26-.14.42-.29.42-.16,0-.29-.05-.37-.34-.03-.12-.07-.24-.1-.36-.31.08-.62.16-.93.23v3.03l.06,2.07-.11.12-.67.02.06-2.2v-2.89c-.33.07-.69.13-1.08.2-.03.34-.09.4-.18.4-.15,0-.3-.26-.57-.97l.05-.08c.31.01.6.01.93,0,.06,0,.13,0,.2-.01.62-.94,1.09-1.81,1.51-2.78.1-.23.24-.56.31-.85l.08-.03c.78.34,1.02.54,1.02.68,0,.13-.1.18-.54.16-.77,1.23-1.37,2.08-2,2.81.6-.05,1.18-.09,1.78-.15-.13-.3-.3-.58-.53-.81l.21-.18Zm-2.81-2.16c.3.1.56.21.78.32.29-.48.48-.92.64-1.38.07-.18.15-.5.18-.73l.08-.03c.8.34,1.09.53,1.09.67s-.06.18-.56.16c-.4.63-.75,1.07-1.15,1.48.46.3.69.61.69.85,0,.28-.14.45-.33.45-.16,0-.25-.07-.42-.39-.22-.39-.53-.77-1.14-1.15l.14-.24Zm2.85,4.55c.63.59.94,1.18.94,1.66,0,.28-.15.48-.34.48-.23,0-.31-.1-.36-.48-.06-.5-.19-1.02-.46-1.5l.22-.16Zm2.03.77c-.28,1.04-.75,1.9-1.5,2.68l-.21-.18c1.11-1.51,1.33-2.89,1.33-5.04v-1.67c0-.51-.03-.76-.15-1.17l.07-.07c.33.15.6.3.88.47h3.83l.34-.42h.16c.56.46.67.56.67.7,0,.12-.07.17-.36.29v.89l.06,1.02-.12.12-.63.02v-.45h-4.07c-.01.33-.01.67-.03.99l.28.14h3.97l.32-.38h.16c.53.42.63.49.63.63,0,.09-.09.16-.37.29v2.08l.02,1.54c0,.69-.14.99-.96,1.02-.03-.38-.16-.57-.58-.68l.02-.28c.41.05.54.06.65.06.16,0,.22-.03.22-.33v-1.64h-1.06v.57l.02,1.94-.11.11-.52.02.03-2.03v-.62h-.95v.6l.02,1.92-.11.11-.52.02.03-2.03v-.62h-.94v2.74l-.12.12-.56.02.08-2.15.06-1.35Zm-.06-6.04l-.8.07-.14-.53.94.07h4.3l.56-.71h.16l.79.83v.28h-5.82Zm4.44,2.83v-1.39h-4.07v1.39h4.07Zm-3.84,3.43h.94v-1.53h-.94v1.53Zm2.47-1.53h-.95v1.53h.95v-1.53Zm1.63,1.53v-1.53h-1.06v1.53h1.06Z"/>
    <path d="m49.45,68.39c0-.36.09-.47.3-.59.49-.28,1.18-.46,1.89-.46,1.34,0,2.11.77,2.11,1.86,0,.87-.52,1.78-1.76,2.05v.05c1.27.13,2.07.81,2.07,2.03,0,1.37-1.12,2.36-2.85,2.36-.71,0-1.35-.15-1.8-.37-.18-.09-.24-.26-.24-.49v-1.23h.44l.13.73c.05.32.1.42.38.57.31.17.71.29,1.18.29,1.16,0,1.72-.68,1.72-1.66,0-1.08-.67-1.72-2.16-1.72h-.52l.23-.71h.16c1.3,0,2.02-.57,2.02-1.77,0-.91-.59-1.48-1.49-1.48-.32,0-.64.07-.92.22-.15.08-.18.15-.26.44l-.18.87h-.45v-1Z"/>
    <path d="m56.7,68.24c-.4,0-.5.06-.69.57l-.25.69h-.36l.31-1.74c.05-.26.14-.33.4-.33h4.3v.16c0,.25-.06.44-.26.79-.44.77-.88,1.59-1.57,3.04-.68,1.42-1.07,2.72-1.19,4.21h-1.01c0-.61.54-1.97,1.23-3.36.65-1.32,1.25-2.5,1.79-3.52.06-.12.1-.22.1-.33,0-.15-.09-.17-.3-.17h-2.5Z"/>
    <path d="m61.13,72.49c.8.28,1.01.39,1.01.54,0,.13-.08.18-.42.23-.25.89-.44,1.48-.86,2.21l-.25-.1c.25-.76.38-1.49.45-2.13.02-.15.02-.28.02-.39s0-.22-.02-.32l.08-.04Zm2.51-2.59c.95.62,1.17,1.12,1.17,1.54,0,.26-.14.42-.29.42-.16,0-.29-.05-.37-.34-.03-.12-.07-.24-.1-.36-.31.08-.62.16-.93.23v3.03l.06,2.07-.11.12-.67.02.06-2.2v-2.89c-.33.07-.69.13-1.08.2-.03.34-.09.4-.18.4-.15,0-.3-.26-.57-.97l.05-.08c.31.01.6.01.93,0,.06,0,.13,0,.2-.01.62-.94,1.09-1.81,1.51-2.78.1-.23.24-.56.31-.85l.08-.03c.78.34,1.02.54,1.02.68,0,.13-.1.18-.54.16-.77,1.23-1.37,2.08-2,2.81.6-.05,1.18-.09,1.78-.15-.13-.3-.3-.58-.53-.81l.21-.18Zm-2.81-2.16c.3.1.56.21.78.32.29-.48.48-.92.64-1.38.07-.18.15-.5.18-.73l.08-.03c.8.34,1.09.53,1.09.67s-.06.18-.56.16c-.4.63-.75,1.07-1.15,1.48.46.3.69.61.69.85,0,.28-.14.45-.33.45-.16,0-.25-.07-.42-.39-.22-.39-.53-.77-1.14-1.15l.14-.24Zm2.85,4.55c.63.59.94,1.18.94,1.66,0,.28-.15.48-.34.48-.23,0-.31-.1-.36-.48-.06-.5-.19-1.02-.46-1.5l.22-.16Zm2.03.77c-.28,1.04-.75,1.9-1.5,2.68l-.21-.18c1.11-1.51,1.33-2.89,1.33-5.04v-1.67c0-.51-.03-.76-.15-1.17l.07-.07c.33.15.6.3.88.47h3.83l.34-.42h.16c.56.46.67.56.67.7,0,.12-.07.17-.36.29v.89l.06,1.02-.12.12-.63.02v-.45h-4.07c-.01.33-.01.67-.03.99l.28.14h3.97l.32-.38h.16c.53.42.63.49.63.63,0,.09-.09.16-.37.29v2.08l.02,1.54c0,.69-.14.99-.96,1.02-.03-.38-.16-.57-.58-.68l.02-.28c.41.05.54.06.65.06.16,0,.22-.03.22-.33v-1.64h-1.06v.57l.02,1.94-.11.11-.52.02.03-2.03v-.62h-.95v.6l.02,1.92-.11.11-.52.02.03-2.03v-.62h-.94v2.74l-.12.12-.56.02.08-2.15.06-1.35Zm-.06-6.04l-.8.07-.14-.53.94.07h4.3l.56-.71h.16l.79.83v.28h-5.82Zm4.44,2.83v-1.39h-4.07v1.39h4.07Zm-3.84,3.43h.94v-1.53h-.94v1.53Zm2.47-1.53h-.95v1.53h.95v-1.53Zm1.63,1.53v-1.53h-1.06v1.53h1.06Z"/>
    <path d="m72.17,68.39c0-.36.09-.47.3-.59.49-.28,1.18-.46,1.89-.46,1.34,0,2.11.77,2.11,1.86,0,.87-.52,1.78-1.76,2.05v.05c1.27.13,2.07.81,2.07,2.03,0,1.37-1.12,2.36-2.85,2.36-.71,0-1.35-.15-1.8-.37-.18-.09-.24-.26-.24-.49v-1.23h.44l.13.73c.05.32.1.42.38.57.31.17.71.29,1.18.29,1.16,0,1.72-.68,1.72-1.66,0-1.08-.67-1.72-2.16-1.72h-.52l.23-.71h.16c1.3,0,2.02-.57,2.02-1.77,0-.91-.58-1.48-1.49-1.48-.32,0-.64.07-.92.22-.15.08-.18.15-.26.44l-.18.87h-.45v-1Z"/>
    <path d="m79.42,68.24c-.4,0-.5.06-.69.57l-.25.69h-.36l.31-1.74c.05-.26.14-.33.4-.33h4.3v.16c0,.25-.06.44-.26.79-.44.77-.88,1.59-1.57,3.04-.68,1.42-1.07,2.72-1.19,4.21h-1.01c0-.61.54-1.97,1.23-3.36.65-1.32,1.25-2.5,1.79-3.52.06-.12.1-.22.1-.33,0-.15-.09-.17-.3-.17h-2.5Z"/>
    <path d="m86.6,67.74c.49.41.76.79.76,1.16,0,.3-.13.49-.36.49-.21,0-.3-.13-.36-.46-.07-.46-.21-.8-.49-1.19h-.98c-.47.65-1.01,1.14-1.68,1.61l-.18-.21c.79-.78,1.25-1.37,1.64-2.39.1-.26.15-.52.16-.73l.08-.03c.83.29,1.11.46,1.11.61,0,.11-.16.17-.55.17-.1.21-.22.4-.32.58h2.11l.49-.61h.16l.73.72v.28h-2.34Zm-2.08,2.63c0-.5-.05-.79-.17-1.12l.07-.07c.36.16.64.31.95.48h2.11l.34-.4h.16c.54.4.68.52.68.65,0,.12-.05.16-.38.29v1.16l.03,1.93-.11.11-.6.02v-.52h-2.4v2.19c.73-.15,1.46-.34,2.18-.55-.17-.31-.4-.64-.7-.99l.21-.18c1.15.75,1.68,1.53,1.68,1.97,0,.36-.15.55-.38.55-.21,0-.31-.1-.41-.46-.06-.18-.13-.38-.24-.6-1.03.46-1.94.79-3.08,1.17-.01.33-.06.42-.19.42-.13,0-.31-.23-.72-1.04l.05-.08c.3,0,.62-.03.93-.09v-4.85Zm3.09.68v-1h-2.4v1h2.4Zm0,1.47v-1.08h-2.4v1.08h2.4Zm3.65-4.77c.65.47.9.79.9,1.17,0,.31-.14.46-.36.46-.19,0-.32-.14-.4-.47-.1-.45-.24-.75-.56-1.16h-.99c-.38.58-.84,1.04-1.4,1.49l-.21-.18c.6-.65,1.02-1.29,1.38-2.26.1-.29.15-.52.16-.77l.08-.03c.83.29,1.08.44,1.08.58,0,.12-.15.17-.54.17-.1.22-.21.42-.31.61h2.43l.52-.67h.16l.8.78v.28h-2.74Zm-1.03,6.7l.03,2.03-.11.11-.67.02.05-2.15v-4.08c0-.52-.02-.77-.15-1.11l.07-.07c.34.16.63.31.88.47h2.08l.37-.45h.16c.49.39.7.58.7.69,0,.13-.08.18-.41.3v2.04l.03,1.96c0,.91-.4,1.2-1.51,1.22,0-.36-.13-.57-.86-.79l.03-.28c.63.09,1,.14,1.39.14.16,0,.22-.04.22-.37v-4.07h-2.29v4.38Z"/>
  </g>
</svg>