<svg id="レイヤー_1" data-name="レイヤー 1" xmlns="http://www.w3.org/2000/svg" viewBox="0 0 227 116"><defs><style>.cls-1{fill:olive;}.cls-2{fill:#fff;}.cls-3{opacity:0.49;}.cls-4{opacity:0.48;}</style></defs><title>toyosawa-church</title><path class="cls-1" d="M132.41,103.19c-1.6-3-6.45-3.37-9.44-1.76a6.14,6.14,0,1,0,5.82,10.81C131.78,110.64,134,106.18,132.41,103.19Z"/><path class="cls-2" d="M132.4,103.2a5.45,5.45,0,0,0-4.13-2.52,8.56,8.56,0,0,0-4.85.76,5.88,5.88,0,0,0-3,3.58,5.73,5.73,0,0,0,.47,4.6,5.81,5.81,0,0,0,3.65,2.86,5.91,5.91,0,0,0,4.65-.68,8.39,8.39,0,0,0,3.17-3.74A5.7,5.7,0,0,0,132.4,103.2Zm0,0a5.8,5.8,0,0,1,0,4.92,8.8,8.8,0,0,1-3.14,3.89,6.17,6.17,0,1,1-6-10.76,8.79,8.79,0,0,1,5-.65A5.54,5.54,0,0,1,132.43,103.18Z"/><path class="cls-1" d="M134.94,37.5c-1.61-3-6.46-3.37-9.44-1.76a6.14,6.14,0,1,0,5.82,10.81C134.3,45,136.55,40.49,134.94,37.5Z"/><path class="cls-2" d="M134.92,37.51A5.46,5.46,0,0,0,130.79,35a8.63,8.63,0,0,0-4.84.77,5.94,5.94,0,0,0-3.06,3.57A5.92,5.92,0,0,0,127,46.78a5.89,5.89,0,0,0,4.66-.67,8.45,8.45,0,0,0,3.17-3.74A5.7,5.7,0,0,0,134.92,37.51Zm0,0a5.77,5.77,0,0,1,0,4.92,8.66,8.66,0,0,1-3.14,3.89,6.16,6.16,0,1,1-5.94-10.76,8.79,8.79,0,0,1,5-.65A5.53,5.53,0,0,1,135,37.49Z"/><path class="cls-1" d="M139.89,69.55l-.28-.14a7.38,7.38,0,0,0,1.23-3.78,11.85,11.85,0,0,0-2.26-6.89,8.09,8.09,0,0,0-3.91-15.17c-4.15,0-8.84,2.75-9.48,6.72a8.08,8.08,0,0,0-10.07,7.84c0,4.46,2.88,8.67,7.35,8.67.2,0,.41,0,.61,0a11,11,0,0,0,1.46,4.81C120.6,70,115,70.69,113,74.33c-2.11,3.93.84,9.8,4.77,11.92a8.1,8.1,0,0,0,9.29-1.15,8.69,8.69,0,0,0,3,2.81,6.72,6.72,0,0,0,9.05-9.19,5,5,0,0,0,.77-9.17Zm-11.28,5.5a5.47,5.47,0,0,0,1.35.26,8.42,8.42,0,0,0-1,.33A6.63,6.63,0,0,0,128.61,75.05Z"/><path class="cls-1" d="M102.94,69.47a5,5,0,0,0,2.78,2.4,6.71,6.71,0,0,0,9,9.28,8.7,8.7,0,0,0,3-2.78A8.09,8.09,0,0,0,127,79.61c3.95-2.08,7-7.92,4.89-11.87-1.92-3.66-7.53-4.42-11.49-2.87a11.14,11.14,0,0,0,1.51-4.79c.2,0,.41,0,.61,0,4.47,0,7.4-4.13,7.44-8.6a8.11,8.11,0,0,0-10-7.94c-.61-4-5.27-6.76-9.42-6.81a8.09,8.09,0,0,0-4.06,15.13,11.86,11.86,0,0,0-2.33,6.86,7.31,7.31,0,0,0,1.2,3.8l-.28.13A5,5,0,0,0,102.94,69.47Zm13-.58a7.31,7.31,0,0,0-1-.34,6,6,0,0,0,1.35-.25C116.15,68.49,116.05,68.69,116,68.89Z"/><path class="cls-1" d="M126.27,98.56a11,11,0,0,0,1.5-4.79c.21,0,.41,0,.62,0,4.46,0,7.39-4.13,7.44-8.6a8.09,8.09,0,0,0-8-8.16,8.21,8.21,0,0,0-2,.22c-.6-4-5.26-6.77-9.41-6.81a8.09,8.09,0,0,0-4.06,15.13A11.79,11.79,0,0,0,110,92.44a7.38,7.38,0,0,0,1.19,3.8l-.28.13a5,5,0,0,0,.68,9.19,6.72,6.72,0,0,0,8.95,9.28,8.79,8.79,0,0,0,3-2.78m-1.75-9.48a7,7,0,0,0-1-.34,6,6,0,0,0,1.35-.25A6.63,6.63,0,0,0,121.85,102.58Z"/><path class="cls-1" d="M116,43.46c1.81-3.37,7.28-3.8,10.65-2a6.93,6.93,0,0,1-6.56,12.2C116.72,51.85,114.19,46.83,116,43.46Z"/><path class="cls-2" d="M116,43.45a6.25,6.25,0,0,1,4.67-3,10.08,10.08,0,0,1,5.68.66,7.13,7.13,0,1,1-6.87,12.43,10,10,0,0,1-3.53-4.5A6.58,6.58,0,0,1,116,43.45Zm0,0a6.46,6.46,0,0,0,0,5.5,9.85,9.85,0,0,0,3.53,4.36,6.89,6.89,0,1,0,6.64-12,9.92,9.92,0,0,0-5.56-.74A6.21,6.21,0,0,0,116,43.47Z"/><path class="cls-1" d="M135.63,50.93c-1.76-3.26-7.07-3.68-10.34-1.92a6.72,6.72,0,0,0,6.37,11.83C134.93,59.08,137.38,54.2,135.63,50.93Z"/><path class="cls-2" d="M135.44,51a5.84,5.84,0,0,0-4.37-2.75,9.48,9.48,0,0,0-5.31.68,6.59,6.59,0,0,0-3.07,9.16,6.64,6.64,0,0,0,4.2,3.24,6.71,6.71,0,0,0,5.25-.87,9.49,9.49,0,0,0,3.43-4.21,6.3,6.3,0,0,0,.06-5.35Zm.19-.1a6.31,6.31,0,0,1,0,5.37,9.42,9.42,0,0,1-3.42,4.27A6.8,6.8,0,0,1,122,52.77a6.85,6.85,0,0,1,3.65-4.1,9.79,9.79,0,0,1,5.5-.75,6.2,6.2,0,0,1,4.68,2.92Z"/><path class="cls-1" d="M116.15,102.13c0-3.36,2.17-6.53,5.53-6.53a7,7,0,0,1,6.63,6.53,6.08,6.08,0,0,1-12.16,0Z"/><path class="cls-2" d="M115.94,102.13a7.56,7.56,0,0,1,1.57-4.64,5.22,5.22,0,0,1,4.37-2,6.83,6.83,0,0,1,4.42,2,6.69,6.69,0,0,1,2.1,4.34,6.14,6.14,0,0,1-6,6.44,6.1,6.1,0,0,1-6.24-6.12Zm.21,0a6.06,6.06,0,0,0,6.24,6,6,6,0,0,0,4.24-2,5.91,5.91,0,0,0,1.56-4.38,6.85,6.85,0,0,0-6.32-6,4.92,4.92,0,0,0-4.07,2,7.13,7.13,0,0,0-1.44,4.41Z"/><path class="cls-1" d="M114.57,92.85c1.6,3,6.4,3.34,9.36,1.75a6.09,6.09,0,0,0-5.77-10.72C115.21,85.48,113,89.89,114.57,92.85Z"/><path class="cls-2" d="M114.76,92.75a5.28,5.28,0,0,0,3.94,2.49,8.59,8.59,0,0,0,4.8-.61,6,6,0,1,0-5.76-10.42,8.56,8.56,0,0,0-3.11,3.8,5.69,5.69,0,0,0-.06,4.84Zm-.19.1a5.74,5.74,0,0,1,0-4.86,8.65,8.65,0,0,1,3.1-3.87,6.09,6.09,0,0,1,4.84-.85,6.19,6.19,0,0,1,1.11,11.64,8.9,8.9,0,0,1-5,.69A5.65,5.65,0,0,1,114.39,93Z"/><path class="cls-1" d="M110.42,82c1.59,3,6.4,3.34,9.36,1.75A6.08,6.08,0,1,0,114,73C111.05,74.6,108.83,79,110.42,82Z"/><path class="cls-2" d="M110.61,81.87a5.26,5.26,0,0,0,3.94,2.49,8.59,8.59,0,0,0,4.8-.61,6,6,0,1,0-5.77-10.42,8.61,8.61,0,0,0-3.1,3.8,5.69,5.69,0,0,0-.06,4.84Zm-.19.1a5.74,5.74,0,0,1,0-4.86,8.65,8.65,0,0,1,3.1-3.87,6.17,6.17,0,0,1,9.26,7.07A6.26,6.26,0,0,1,119.48,84a8.9,8.9,0,0,1-5,.68,5.63,5.63,0,0,1-4.25-2.65Z"/><path class="cls-1" d="M124.42,87.17c1.32,2.46,5.31,2.77,7.77,1.45a5.05,5.05,0,1,0-4.79-8.9C124.94,81,123.1,84.71,124.42,87.17Z"/><path class="cls-2" d="M124.6,87.07a4.37,4.37,0,0,0,3.25,2.05,7.11,7.11,0,0,0,4-.5,4.92,4.92,0,0,0,2.3-6.84A5,5,0,0,0,127.05,80a7.13,7.13,0,0,0-2.58,3.16,4.71,4.71,0,0,0,0,4Zm-.18.1a4.76,4.76,0,0,1,0-4A7.19,7.19,0,0,1,127,79.91a5.14,5.14,0,0,1,7.72,5.89A5.22,5.22,0,0,1,132,88.91a7.46,7.46,0,0,1-4.17.57,4.75,4.75,0,0,1-3.56-2.21Z"/><path class="cls-1" d="M122.12,96.15c0-3.35,2.17-7,5.53-7s6.64,3.61,6.64,7a6.09,6.09,0,1,1-12.17,0Z"/><path class="cls-2" d="M121.91,96.15a8.46,8.46,0,0,1,1.5-4.74A5.18,5.18,0,0,1,127.68,89a6.55,6.55,0,0,1,4.45,2.1,7.6,7.6,0,0,1,2.22,4.39,6.13,6.13,0,1,1-12.23.63Zm.21,0a6,6,0,0,0,10.64,3.91,5.94,5.94,0,0,0,1.39-4.51,7.47,7.47,0,0,0-2.2-4.23,6.26,6.26,0,0,0-4.27-2,4.84,4.84,0,0,0-4,2.27,8.05,8.05,0,0,0-1.38,4.53Z"/><path class="cls-1" d="M115.76,47.89c-1.17-2.18-4.72-2.46-6.9-1.29a4.49,4.49,0,0,0,4.25,7.9C115.29,53.33,116.93,50.07,115.76,47.89Z"/><path class="cls-2" d="M115.74,47.9a4,4,0,0,0-3-1.83,6.19,6.19,0,0,0-3.51.59,4.27,4.27,0,1,0,4.12,7.47,6.16,6.16,0,0,0,2.33-2.69A4.14,4.14,0,0,0,115.74,47.9Zm0,0a4.24,4.24,0,0,1,0,3.6,6.43,6.43,0,0,1-2.29,2.84,4.51,4.51,0,1,1-4.35-7.87,6.52,6.52,0,0,1,3.62-.48A4.1,4.1,0,0,1,115.78,47.88Z"/><path class="cls-1" d="M124.39,57c0,3.3-2.14,6.42-5.45,6.42A6.86,6.86,0,0,1,112.41,57a6,6,0,1,1,12,0Z"/><path class="cls-2" d="M124.6,57a7.37,7.37,0,0,1-1.55,4.56,5.19,5.19,0,0,1-4.31,2,6.76,6.76,0,0,1-4.35-2,6.65,6.65,0,0,1-2.07-4.28,6.05,6.05,0,0,1,10.28-4.62A6,6,0,0,1,124.39,57Zm-.21,0a5.94,5.94,0,0,0-10.32-4,5.85,5.85,0,0,0-1.54,4.31,6.74,6.74,0,0,0,6.22,5.95,4.84,4.84,0,0,0,4-1.91A7.08,7.08,0,0,0,124.18,57Z"/><path class="cls-1" d="M132,60.15c-1.74-3.23-7-3.65-10.22-1.91a6.64,6.64,0,0,0,6.3,11.7C131.26,68.2,133.69,63.38,132,60.15Z"/><path class="cls-2" d="M131.76,60.25a5.74,5.74,0,0,0-4.32-2.72,9.36,9.36,0,0,0-5.25.66,6.53,6.53,0,0,0,1.11,12.27,6.59,6.59,0,0,0,5.2-.87,9.34,9.34,0,0,0,3.39-4.16,6.21,6.21,0,0,0,.06-5.28Zm.19-.1a6.22,6.22,0,0,1,0,5.3,9.38,9.38,0,0,1-3.39,4.23A6.73,6.73,0,0,1,118.45,62a6.78,6.78,0,0,1,3.61-4.06,9.76,9.76,0,0,1,5.44-.75,6.17,6.17,0,0,1,4.63,2.89Z"/><path class="cls-1" d="M130.63,69.35c-1.74-3.23-7-3.64-10.22-1.9a6.64,6.64,0,0,0,6.3,11.7C129.94,77.41,132.37,72.58,130.63,69.35Z"/><path class="cls-1" d="M146.26,70.25c-1.73-3.23-7-3.64-10.21-1.9a6.64,6.64,0,0,0,6.29,11.7C145.57,78.31,148,73.49,146.26,70.25Z"/><path class="cls-2" d="M146.08,70.35a5.79,5.79,0,0,0-4.32-2.72,9.45,9.45,0,0,0-5.25.67,6.53,6.53,0,0,0-3,9.06,6.58,6.58,0,0,0,9.34,2.34,9.42,9.42,0,0,0,3.4-4.16,6.2,6.2,0,0,0,0-5.29Zm.18-.1a6.21,6.21,0,0,1,0,5.31,9.47,9.47,0,0,1-3.38,4.23,6.71,6.71,0,0,1-5.29.93A6.76,6.76,0,0,1,136.38,68a9.76,9.76,0,0,1,5.44-.74,6.15,6.15,0,0,1,4.63,2.89Z"/><path class="cls-1" d="M112.58,59.31c-1.74-3.23-7-3.65-10.22-1.91a6.64,6.64,0,1,0,6.3,11.7C111.89,67.36,114.32,62.54,112.58,59.31Z"/><path class="cls-2" d="M112.39,59.41a5.75,5.75,0,0,0-4.32-2.73,9.45,9.45,0,0,0-5.25.67,6.53,6.53,0,1,0,6.3,11.4,9.3,9.3,0,0,0,3.4-4.16,6.21,6.21,0,0,0,.06-5.28Zm.19-.1a6.22,6.22,0,0,1,0,5.3,9.44,9.44,0,0,1-3.39,4.23,6.73,6.73,0,0,1-10.1-7.72,6.79,6.79,0,0,1,3.61-4,9.68,9.68,0,0,1,5.44-.75,6.15,6.15,0,0,1,4.63,2.89Z"/><path class="cls-1" d="M118.8,52.26c-1.74-3.23-7-3.65-10.22-1.91a6.64,6.64,0,0,0,6.3,11.7C118.11,60.31,120.54,55.49,118.8,52.26Z"/><path class="cls-1" d="M132,81.19c-1.74-3.23-7-3.65-10.22-1.91A6.64,6.64,0,0,0,128,91C131.26,89.24,133.69,84.42,132,81.19Z"/><path class="cls-1" d="M126.69,95.65c-1.74-3.23-7-3.64-10.22-1.9a6.64,6.64,0,0,0,6.3,11.7C126,103.71,128.43,98.88,126.69,95.65Z"/><path class="cls-1" d="M129.32,47c-1.74-3.23-7-3.65-10.22-1.91a6.64,6.64,0,0,0,6.3,11.7C128.63,55.05,131.06,50.23,129.32,47Z"/><path class="cls-1" d="M142.47,60.15c-1.74-3.23-7-3.65-10.22-1.91a6.64,6.64,0,1,0,6.3,11.7C141.78,68.2,144.21,63.38,142.47,60.15Z"/><path class="cls-1" d="M121.43,82.5c-1.74-3.23-7-3.64-10.22-1.9a6.64,6.64,0,0,0,6.3,11.7C120.74,90.56,123.17,85.73,121.43,82.5Z"/><g class="cls-3"><path class="cls-1" d="M148.25,33.43c-.35-1.78,1.28-3.46,3.05-3.84a10.55,10.55,0,0,1,5.33.7L165.45,33a13,13,0,0,1-5.6,3c3.21.82,5.2,4.06,6.22,7.22s1.42,6.56,3.09,9.43a15.73,15.73,0,0,0,6.74,5.89l-14.21-1.72a13.4,13.4,0,0,1-4.61-1.13c-2.61-1.36-4.06-4.29-6.53-5.9q.7,4.08,1.58,8.12c-3.37-1.42-6.82-2.89-9.57-5.31s-4.73-6-4.28-9.66,3.92-6.92,7.54-6.31c-2.38-1-3.34-4.16-5.75-5.14-2.75-1.13-5.62,1.07-8,2.8s-6.26,2.91-8,.49c1.49-.22,2.91,1,4.4.81,1.33-.19,2.19-1.45,3.16-2.39,3.54-3.42,10.29-2.34,12.58,2a3.2,3.2,0,0,0,1.2,1.56,1.79,1.79,0,0,0,2.2-1,5.19,5.19,0,0,0,.29-2.63"/></g><path class="cls-1" d="M141.3,58c.69-1.92-.34-4-1.34-5.77l-7.67-13.57a16.2,16.2,0,0,1-1.92-4.37c-1.21-5.48,3.52-10.6,8.62-12.94,2.66-1.23,5.58-2.06,7.77-4s3.33-5.55,1.46-7.8A15.91,15.91,0,0,1,150.28,16c7.74-1.53,16.51-2.85,22.92,1.76,2.2,1.59,3.91,3.76,6,5.54a21.41,21.41,0,0,0,16.66,4.94c-8.4,5.92-19.78,5.25-29.74,2.71a15.77,15.77,0,0,1-5-2c-3.34-2.29-5.93-7.2-9.84-6.15,1.16-1.09.29-3.24-1.2-3.82s-3.15-.07-4.62.55c-5.37,2.24-10.51,6.52-11.21,12.29-1.09,9,8.73,16.21,8.63,25.25,0,.87-.64,2.06-1.41,1.64"/><path class="cls-1" d="M102.91,29.12c-1.12-1.67-.27-4.09,1.34-5.3A10.16,10.16,0,0,1,110,22.26c2.74-.12,5.75.14,7.73,2,3.33,3.18,1.78,8.91-1.09,12.51s-6.85,6.5-8.44,10.82a11.67,11.67,0,0,0,3.74,12.93,24.62,24.62,0,0,1-16.1-10.42,14.8,14.8,0,0,1-12,9.11c-2.32.23-4.75-.09-6.94.71-4.91,1.78-6.32,7.91-7,13.09C65.85,70.3,64.69,64.83,65,60s1.74-9.64,1.52-14.5c-.11-2.25-.57-4.52-.19-6.73C67.48,32,75.57,28.83,82.41,29a33.51,33.51,0,0,0-17.69.33,23.4,23.4,0,0,0,11.84-7.19c1.2-1.36,2.28-2.9,3.86-3.8a12.27,12.27,0,0,1,5.74-1.12L93.79,17a9.26,9.26,0,0,1,4.88.74c1.45.82,2.39,2.8,1.49,4.21s-3,2.54-1.93,3.67,2.33-.45,3.4-1.28c2.26-1.74,5.62-.35,7.67,1.64s3.64,4.6,6.23,5.79c3.06,1.42,6.64.48,10,.77s7.17,3.18,6,6.33a12,12,0,0,0-8.68-4.49c-2.27-.12-4.56.41-6.8.06-4.92-.78-8.14-5.43-10.76-9.67a1.64,1.64,0,0,0-1.51,1.42"/><path class="cls-1" d="M145.2,8.28a5.61,5.61,0,0,1,10.31,0c.44,1,.57,2.14,1.08,3.12a2.42,2.42,0,0,0,2.66,1.45,4.8,4.8,0,0,1-6.19,1.32c3.61,4.63,2,11.55-1.34,16.42A8.89,8.89,0,0,0,150,34.05a2.58,2.58,0,0,0,1.77,3c-2.81-.85-5.67-1.72-8-3.47s-4.12-4.55-3.81-7.46c.37-3.61,3.73-6.39,4.06-10a7.92,7.92,0,0,1-7.58,2.79,1.71,1.71,0,0,0,.66-2.09,12.56,12.56,0,0,0-1.17-2.08,4.67,4.67,0,0,1,.64-5.46,3.54,3.54,0,0,1,5.17.36c-.43-2.82-2.1-5.82-4.9-6.33-1.83-.34-3.66.46-5.5.75S127.15,3.8,126.63,2a1,1,0,0,1,.08-.82c.42-.52,1.21,0,1.79.36,1.95,1.12,4.25-.67,6.48-1a6.43,6.43,0,0,1,5.85,2.88,14.62,14.62,0,0,1,2.22,6.42l2.61-2.11"/><path class="cls-1" d="M129.07,12.47c3,.71,6.45,2,6.93,5,.56,3.5-3.43,5.81-5.3,8.82-.51.82-.61,2.25.34,2.4a3.22,3.22,0,0,1-4.08-.63A9.41,9.41,0,0,1,125,24c-.74,3.39-4.37,5.17-7.56,6.52s-6.8,3.23-7.41,6.64c-5.07-7.66-3.24-19.08,4-24.78a7.58,7.58,0,0,0-5.88,3,8.07,8.07,0,0,1-1.36,1.7c-1.35,1.05-3.29.56-4.92,0a3.68,3.68,0,0,0,2.72-2.83,16.65,16.65,0,0,0,.27-4.12c0-3.44,1.42-7.4,4.7-8.41,2.36-.72,4.87.34,7,1.53,2.43,1.35,5,3.44,4.84,6.21a6.11,6.11,0,0,0,4-3.14,4,4,0,0,0-1-4.78,1,1,0,0,1,1.5-.55,2.29,2.29,0,0,1,.94,1.55,7,7,0,0,1-5,8,16,16,0,0,1,7.32,1.88"/><path class="cls-1" d="M212.2,14.28a5.61,5.61,0,0,1,10.31,0c.44,1,.57,2.14,1.08,3.12a2.42,2.42,0,0,0,2.66,1.45,4.8,4.8,0,0,1-6.19,1.32c3.61,4.63,2,11.55-1.34,16.42A8.89,8.89,0,0,0,217,40.05a2.58,2.58,0,0,0,1.77,3c-2.81-.85-5.67-1.72-8-3.47s-4.12-4.55-3.81-7.46c.37-3.61,3.73-6.39,4.06-10a7.92,7.92,0,0,1-7.58,2.79,1.71,1.71,0,0,0,.66-2.09,12.56,12.56,0,0,0-1.17-2.08,4.67,4.67,0,0,1,.64-5.46,3.54,3.54,0,0,1,5.17.36c-.43-2.82-2.1-5.82-4.9-6.33-1.83-.34-3.66.46-5.5.75S194.15,9.8,193.63,8a1,1,0,0,1,.08-.82c.42-.52,1.21,0,1.79.36,1.95,1.12,4.25-.67,6.48-1a6.43,6.43,0,0,1,5.85,2.88,14.62,14.62,0,0,1,2.22,6.42l2.61-2.11"/><path class="cls-1" d="M196.07,18.47c3,.71,6.45,2,6.93,5,.56,3.5-3.43,5.81-5.3,8.82-.51.82-.61,2.25.34,2.4a3.22,3.22,0,0,1-4.08-.63A9.41,9.41,0,0,1,192,30c-.74,3.39-4.37,5.17-7.56,6.52s-6.8,3.23-7.41,6.64c-5.07-7.66-3.24-19.08,4-24.78a7.58,7.58,0,0,0-5.88,3.05,8.07,8.07,0,0,1-1.36,1.7c-1.35,1.05-3.29.56-4.92,0a3.68,3.68,0,0,0,2.72-2.83,16.65,16.65,0,0,0,.27-4.12c0-3.44,1.42-7.4,4.7-8.41,2.36-.72,4.87.34,7,1.53,2.43,1.35,5,3.44,4.84,6.21a6.11,6.11,0,0,0,4-3.14,4,4,0,0,0-1-4.78,1,1,0,0,1,1.5-.55,2.29,2.29,0,0,1,.94,1.55,7,7,0,0,1-5,8,16,16,0,0,1,7.32,1.88"/><g class="cls-4"><path class="cls-1" d="M52.7,13a6.81,6.81,0,0,1,12.5.05c.52,1.23.68,2.6,1.3,3.78s2,2.18,3.22,1.76a5.79,5.79,0,0,1-7.49,1.59c4.37,5.62,2.37,14-1.62,19.9a10.76,10.76,0,0,0-2.11,4.15c-.25,1.55.59,3.4,2.13,3.65-3.39-1-6.86-2.09-9.71-4.2s-5-5.52-4.62-9.05c.45-4.37,4.52-7.74,4.92-12.12A9.59,9.59,0,0,1,42,25.9a2.07,2.07,0,0,0,.8-2.53,15.26,15.26,0,0,0-1.41-2.52,5.63,5.63,0,0,1,.77-6.62c1.72-1.65,4.94-1.54,6.27.44-.52-3.42-2.55-7-5.94-7.68-2.22-.41-4.44.56-6.67.91s-5-.32-5.65-2.49a1.11,1.11,0,0,1,.09-1c.51-.63,1.47,0,2.17.43,2.37,1.36,5.15-.82,7.85-1.2s5.48,1.24,7.09,3.49a17.75,17.75,0,0,1,2.7,7.78l3.16-2.55"/><path class="cls-1" d="M33.15,18.1c3.57.86,7.82,2.43,8.4,6,.68,4.24-4.15,7-6.42,10.69-.62,1-.74,2.72.41,2.9-1.45,1.13-3.67.55-4.95-.76a11.39,11.39,0,0,1-2.35-4.88c-.9,4.1-5.29,6.27-9.16,7.9s-8.24,3.91-9,8C4,38.76,6.16,24.92,14.9,18a9.22,9.22,0,0,0-7.13,3.7,9.76,9.76,0,0,1-1.65,2.06c-1.64,1.28-4,.68-6,0a4.46,4.46,0,0,0,3.29-3.42,19.44,19.44,0,0,0,.33-5c.05-4.17,1.72-9,5.7-10.19,2.86-.87,5.9.41,8.51,1.86,3,1.63,6.11,4.17,5.86,7.52a7.42,7.42,0,0,0,4.86-3.81A4.88,4.88,0,0,0,27.53,5c.11-.75,1.15-1,1.81-.67a2.81,2.81,0,0,1,1.15,1.89,8.47,8.47,0,0,1-6,9.72,19.49,19.49,0,0,1,8.87,2.28"/></g></svg>